{"glyphs":{"0":{"ha":893,"x_min":86,"x_max":808,"o":"m 440 -12 q 174 110 263 -12 q 86 428 86 233 q 136 666 86 564 q 272 822 186 768 q 461 876 358 876 q 725 760 642 876 q 808 443 808 644 q 760 205 808 308 q 628 44 713 101 q 440 -12 544 -12 m 446 58 q 653 429 653 58 q 606 707 653 610 q 450 804 560 804 q 292 712 343 804 q 240 447 240 619 q 290 165 240 271 q 446 58 339 58 z "},"1":{"ha":611,"x_min":54,"x_max":582,"o":"m 261 717 q 169 690 232 706 q 68 669 107 675 l 54 747 q 199 799 125 763 q 324 878 274 835 l 325 878 l 410 864 l 410 81 l 582 68 l 582 0 l 82 0 l 82 68 l 261 81 l 261 717 z "},"2":{"ha":831,"x_min":65,"x_max":785,"o":"m 65 58 q 300 224 193 131 q 470 418 407 318 q 533 607 533 518 q 488 728 533 683 q 357 774 442 774 q 221 742 278 774 q 115 665 164 711 l 71 728 q 210 831 119 785 q 403 878 300 878 q 567 842 500 878 q 665 750 633 807 q 697 625 697 693 q 565 342 697 488 q 235 82 433 197 l 665 114 l 714 233 l 785 219 l 749 0 l 86 0 l 65 58 z "},"3":{"ha":778,"x_min":79,"x_max":711,"o":"m 218 -224 q 147 -219 186 -224 q 82 -207 108 -214 l 82 -128 q 192 -142 128 -142 q 381 -107 301 -142 q 503 -12 461 -72 q 546 118 546 47 q 488 265 546 213 q 311 318 431 317 l 268 307 q 224 294 222 293 l 200 368 q 310 401 258 379 q 449 498 396 438 q 501 626 501 558 q 455 742 501 706 q 336 779 408 779 q 216 757 274 779 q 117 703 158 735 l 79 765 q 203 841 118 804 q 378 878 289 878 q 582 823 504 878 q 660 656 660 768 q 582 476 660 557 q 397 358 504 396 q 436 360 411 360 q 581 329 518 360 q 677 247 643 299 q 711 129 711 194 q 650 -53 711 28 q 477 -178 589 -133 q 218 -224 365 -224 z "},"4":{"ha":894,"x_min":51,"x_max":868,"o":"m 549 0 l 88 0 l 51 63 q 253 474 133 218 q 467 944 372 731 l 503 944 l 614 885 l 239 163 l 183 78 l 549 97 l 554 368 l 672 378 l 672 104 l 868 114 l 868 0 l 672 0 l 672 -224 l 549 -224 l 549 0 z "},"5":{"ha":825,"x_min":126,"x_max":732,"o":"m 131 -147 q 214 -151 169 -151 q 394 -111 313 -151 q 524 0 476 -71 q 571 161 571 71 q 364 385 571 385 q 262 372 318 385 q 164 340 206 358 l 126 367 l 194 867 l 590 867 l 604 893 l 690 893 l 665 750 l 297 750 l 233 426 q 329 461 271 446 q 446 476 388 476 q 656 401 579 476 q 732 183 732 326 q 669 -19 732 74 q 490 -168 606 -112 q 228 -224 375 -224 q 131 -214 168 -224 l 131 -147 z "},"6":{"ha":922,"x_min":106,"x_max":822,"o":"m 465 -15 q 272 41 353 -15 q 148 194 190 97 q 106 408 106 290 q 190 731 106 583 q 408 974 275 879 q 679 1092 540 1069 l 711 1032 q 438 860 549 981 q 286 588 326 740 q 382 656 321 628 q 524 685 443 685 q 745 600 668 685 q 822 365 822 515 q 780 177 822 264 q 656 38 738 90 q 465 -15 575 -15 m 482 599 q 349 565 407 599 q 268 492 290 531 q 265 438 265 458 q 310 163 261 269 q 474 56 358 56 q 582 95 538 56 q 648 199 626 135 q 669 333 669 263 q 619 535 669 471 q 482 599 568 599 z "},"7":{"ha":817,"x_min":67,"x_max":758,"o":"m 224 -199 q 367 131 299 -35 q 560 601 436 297 l 625 765 l 214 760 l 156 575 l 67 592 l 96 867 l 729 867 l 758 829 q 568 295 690 639 q 379 -240 446 -49 l 224 -199 z "},"8":{"ha":879,"x_min":90,"x_max":794,"o":"m 90 254 q 144 406 90 336 q 304 524 197 476 q 178 635 222 576 q 133 783 133 694 q 177 924 133 865 q 293 1014 221 983 q 449 1044 365 1044 q 665 982 583 1044 q 747 815 747 919 q 699 669 747 736 q 561 551 651 601 q 733 425 672 489 q 794 267 794 361 q 745 119 794 182 q 614 21 696 56 q 436 -14 532 -14 q 269 14 347 -14 q 140 102 190 42 q 90 254 90 163 m 261 815 q 292 726 261 765 q 367 660 322 688 q 494 588 411 632 q 593 672 557 621 q 629 783 629 724 q 579 927 629 875 q 444 979 529 979 q 315 935 368 979 q 261 815 261 890 m 647 238 q 618 326 647 288 q 545 392 589 364 q 425 458 501 419 q 367 489 386 478 q 261 400 301 456 q 221 281 221 344 q 281 117 221 178 q 446 57 342 57 q 542 79 496 57 q 618 143 589 101 q 647 238 647 185 z "},"9":{"ha":917,"x_min":97,"x_max":817,"o":"m 460 878 q 657 824 576 878 q 777 678 738 771 q 817 468 817 585 q 739 133 817 285 q 535 -113 661 -18 q 269 -232 410 -208 l 238 -171 q 500 0 399 -118 q 638 275 601 118 q 543 206 603 235 q 414 178 483 178 q 247 219 318 178 q 136 335 175 260 q 97 511 97 411 q 141 693 97 610 q 267 827 185 776 q 460 878 349 878 m 443 263 q 576 298 518 263 q 654 374 635 333 l 658 438 q 613 707 658 607 q 450 807 568 807 q 341 769 386 807 q 274 669 296 731 q 251 540 251 608 q 303 330 251 397 q 443 263 356 263 z "},"\u0000":{"ha":0,"x_min":0,"x_max":0,"o":""},"\r":{"ha":329,"x_min":0,"x_max":0,"o":""}," ":{"ha":329,"x_min":0,"x_max":0,"o":""},"A":{"ha":961,"x_min":-18,"x_max":979,"o":"m 403 1040 l 556 1040 l 893 82 l 979 68 l 979 0 l 613 0 l 613 68 l 728 82 l 663 288 l 257 288 l 192 82 l 311 68 l 311 0 l -18 0 l -18 68 l 68 82 l 403 1040 m 490 818 l 456 940 l 422 815 l 282 369 l 636 369 l 490 818 z "},"Á":{"ha":961,"x_min":-18,"x_max":979,"o":"m 403 1040 l 556 1040 l 893 82 l 979 68 l 979 0 l 613 0 l 613 68 l 728 82 l 663 288 l 257 288 l 192 82 l 311 68 l 311 0 l -18 0 l -18 68 l 68 82 l 403 1040 m 490 818 l 456 940 l 422 815 l 282 369 l 636 369 l 490 818 m 372 1151 l 558 1363 l 671 1292 q 563 1189 632 1243 q 442 1110 494 1135 l 372 1151 z "},"Ă":{"ha":961,"x_min":-18,"x_max":979,"o":"m 403 1040 l 556 1040 l 893 82 l 979 68 l 979 0 l 613 0 l 613 68 l 728 82 l 663 288 l 257 288 l 192 82 l 311 68 l 311 0 l -18 0 l -18 68 l 68 82 l 403 1040 m 490 818 l 456 940 l 422 815 l 282 369 l 636 369 l 490 818 m 476 1117 q 303 1176 365 1117 q 240 1326 240 1236 q 242 1354 240 1344 l 319 1354 q 321 1336 319 1344 q 365 1256 329 1290 q 476 1222 400 1222 q 635 1338 611 1222 l 636 1354 l 711 1354 q 713 1328 713 1344 q 683 1221 713 1269 q 601 1144 654 1172 q 476 1117 547 1117 z "},"Ắ":{"ha":961,"x_min":-18,"x_max":979,"o":"m 403 1040 l 556 1040 l 893 82 l 979 68 l 979 0 l 613 0 l 613 68 l 728 82 l 663 288 l 257 288 l 192 82 l 311 68 l 311 0 l -18 0 l -18 68 l 68 82 l 403 1040 m 490 818 l 456 940 l 422 815 l 282 369 l 636 369 l 490 818 m 414 1224 l 544 1365 l 624 1300 q 563 1235 603 1269 q 468 1171 522 1201 l 414 1224 m 476 1022 q 328 1056 385 1022 q 272 1144 272 1089 q 275 1183 272 1174 l 349 1183 l 349 1168 q 381 1128 349 1143 q 476 1113 414 1113 q 574 1127 539 1113 q 608 1167 608 1142 q 607 1183 608 1179 l 678 1183 q 681 1146 681 1164 q 626 1056 681 1089 q 476 1022 571 1022 z "},"Ặ":{"ha":961,"x_min":-18,"x_max":979,"o":"m 403 1040 l 556 1040 l 893 82 l 979 68 l 979 0 l 613 0 l 613 68 l 728 82 l 663 288 l 257 288 l 192 82 l 311 68 l 311 0 l -18 0 l -18 68 l 68 82 l 403 1040 m 490 818 l 456 940 l 422 815 l 282 369 l 636 369 l 490 818 m 476 1117 q 303 1176 365 1117 q 240 1326 240 1236 q 242 1354 240 1344 l 319 1354 q 321 1336 319 1344 q 365 1256 329 1290 q 476 1222 400 1222 q 635 1338 611 1222 l 636 1354 l 711 1354 q 713 1328 713 1344 q 683 1221 713 1269 q 601 1144 654 1172 q 476 1117 547 1117 m 458 -283 q 398 -258 421 -283 q 375 -193 375 -232 q 401 -118 375 -149 q 472 -87 426 -87 q 538 -114 514 -87 q 561 -178 561 -140 q 535 -253 561 -224 q 460 -283 508 -283 l 458 -283 z "},"Ằ":{"ha":961,"x_min":-18,"x_max":979,"o":"m 403 1040 l 556 1040 l 893 82 l 979 68 l 979 0 l 613 0 l 613 68 l 728 82 l 663 288 l 257 288 l 192 82 l 311 68 l 311 0 l -18 0 l -18 68 l 68 82 l 403 1040 m 490 818 l 456 940 l 422 815 l 282 369 l 636 369 l 490 818 m 492 1165 q 397 1230 438 1196 q 336 1294 357 1264 l 415 1360 l 546 1218 l 492 1165 m 476 1022 q 328 1056 385 1022 q 272 1144 272 1089 q 275 1183 272 1174 l 349 1183 l 349 1168 q 381 1128 349 1143 q 476 1113 414 1113 q 574 1127 539 1113 q 608 1167 608 1142 q 607 1183 608 1179 l 678 1183 q 681 1146 681 1164 q 626 1056 681 1089 q 476 1022 571 1022 z "},"Ẳ":{"ha":961,"x_min":-18,"x_max":979,"o":"m 403 1040 l 556 1040 l 893 82 l 979 68 l 979 0 l 613 0 l 613 68 l 728 82 l 663 288 l 257 288 l 192 82 l 311 68 l 311 0 l -18 0 l -18 68 l 68 82 l 403 1040 m 490 818 l 456 940 l 422 815 l 282 369 l 636 369 l 490 818 m 439 1144 q 429 1157 433 1149 q 425 1174 425 1165 q 431 1191 425 1183 q 449 1210 436 1199 q 468 1231 461 1221 q 475 1253 475 1240 q 460 1280 475 1269 q 419 1290 446 1290 q 354 1276 383 1290 l 350 1354 q 384 1362 353 1358 q 435 1365 415 1365 q 542 1341 503 1365 q 581 1272 581 1317 q 571 1237 581 1251 q 542 1207 561 1222 q 510 1158 510 1185 q 513 1146 510 1154 l 439 1144 m 476 1022 q 335 1056 386 1022 q 283 1144 283 1089 q 286 1183 283 1174 l 360 1183 l 360 1168 q 476 1113 360 1113 q 567 1127 538 1113 q 597 1167 597 1142 q 596 1183 597 1179 l 667 1183 q 669 1146 669 1164 q 620 1056 669 1089 q 476 1022 571 1022 z "},"Ẵ":{"ha":961,"x_min":-18,"x_max":979,"o":"m 403 1040 l 556 1040 l 893 82 l 979 68 l 979 0 l 613 0 l 613 68 l 728 82 l 663 288 l 257 288 l 192 82 l 311 68 l 311 0 l -18 0 l -18 68 l 68 82 l 403 1040 m 490 818 l 456 940 l 422 815 l 282 369 l 636 369 l 490 818 m 274 1250 q 291 1301 275 1275 q 335 1344 307 1326 q 396 1361 363 1361 q 444 1351 425 1361 q 486 1324 464 1342 q 519 1302 507 1308 q 549 1296 531 1296 q 586 1303 575 1296 q 606 1325 597 1311 q 621 1347 615 1339 l 668 1314 q 622 1235 660 1268 q 540 1203 585 1203 q 497 1213 515 1204 q 457 1240 479 1222 q 421 1265 436 1257 q 388 1274 406 1274 q 356 1264 368 1274 q 335 1240 344 1254 q 319 1218 325 1225 l 274 1250 m 476 1022 q 335 1056 386 1022 q 283 1144 283 1089 q 286 1183 283 1174 l 360 1183 l 360 1168 q 391 1128 360 1143 q 476 1113 422 1113 q 567 1127 538 1113 q 597 1167 597 1142 q 596 1183 597 1179 l 667 1183 q 669 1146 669 1164 q 620 1056 669 1089 q 476 1022 571 1022 z "},"Ǎ":{"ha":961,"x_min":-18,"x_max":979,"o":"m 403 1040 l 556 1040 l 893 82 l 979 68 l 979 0 l 613 0 l 613 68 l 728 82 l 663 288 l 257 288 l 192 82 l 311 68 l 311 0 l -18 0 l -18 68 l 68 82 l 403 1040 m 490 818 l 456 940 l 422 815 l 282 369 l 636 369 l 490 818 m 478 1229 l 654 1364 l 708 1326 l 535 1136 l 421 1136 l 244 1325 l 303 1364 l 478 1229 z "},"Â":{"ha":961,"x_min":-18,"x_max":979,"o":"m 403 1040 l 556 1040 l 893 82 l 979 68 l 979 0 l 613 0 l 613 68 l 728 82 l 663 288 l 257 288 l 192 82 l 311 68 l 311 0 l -18 0 l -18 68 l 68 82 l 403 1040 m 490 818 l 456 940 l 422 815 l 282 369 l 636 369 l 490 818 m 533 1364 l 721 1164 l 664 1124 l 478 1267 l 289 1124 l 235 1163 l 422 1364 l 533 1364 z "},"Ấ":{"ha":961,"x_min":-18,"x_max":979,"o":"m 403 1040 l 556 1040 l 893 82 l 979 68 l 979 0 l 613 0 l 613 68 l 728 82 l 663 288 l 257 288 l 192 82 l 311 68 l 311 0 l -18 0 l -18 68 l 68 82 l 403 1040 m 490 818 l 456 940 l 422 815 l 282 369 l 636 369 l 490 818 m 699 1224 l 829 1365 l 908 1300 q 847 1235 888 1269 q 753 1171 807 1201 l 699 1224 m 535 1315 l 703 1131 l 654 1083 l 476 1217 l 299 1082 l 249 1131 l 418 1315 l 535 1315 z "},"Ậ":{"ha":961,"x_min":-18,"x_max":979,"o":"m 458 -283 q 398 -258 421 -283 q 375 -193 375 -232 q 401 -118 375 -149 q 472 -87 426 -87 q 538 -114 514 -87 q 561 -178 561 -140 q 535 -253 561 -224 q 460 -283 508 -283 l 458 -283 m 403 1040 l 556 1040 l 893 82 l 979 68 l 979 0 l 613 0 l 613 68 l 728 82 l 663 288 l 257 288 l 192 82 l 311 68 l 311 0 l -18 0 l -18 68 l 68 82 l 403 1040 m 490 818 l 456 940 l 422 815 l 282 369 l 636 369 l 490 818 m 533 1364 l 721 1164 l 664 1124 l 478 1267 l 289 1124 l 235 1163 l 422 1364 l 533 1364 z "},"Ầ":{"ha":961,"x_min":-18,"x_max":979,"o":"m 403 1040 l 556 1040 l 893 82 l 979 68 l 979 0 l 613 0 l 613 68 l 728 82 l 663 288 l 257 288 l 192 82 l 311 68 l 311 0 l -18 0 l -18 68 l 68 82 l 403 1040 m 490 818 l 456 940 l 422 815 l 282 369 l 636 369 l 490 818 m 838 1171 q 743 1235 783 1201 q 682 1300 703 1269 l 761 1365 l 893 1224 l 838 1171 m 535 1307 l 703 1129 l 654 1081 l 476 1210 l 299 1081 l 249 1129 l 418 1307 l 535 1307 z "},"Ẩ":{"ha":961,"x_min":-18,"x_max":979,"o":"m 403 1040 l 556 1040 l 893 82 l 979 68 l 979 0 l 613 0 l 613 68 l 728 82 l 663 288 l 257 288 l 192 82 l 311 68 l 311 0 l -18 0 l -18 68 l 68 82 l 403 1040 m 490 818 l 456 940 l 422 815 l 282 369 l 636 369 l 490 818 m 764 1082 q 742 1133 742 1113 q 751 1164 742 1153 q 782 1188 761 1175 q 811 1208 801 1199 q 821 1236 821 1218 q 807 1273 821 1256 q 761 1293 793 1290 q 732 1290 750 1294 q 706 1281 714 1285 l 701 1356 q 726 1363 704 1360 q 764 1365 749 1365 q 872 1338 833 1365 q 911 1251 911 1310 q 896 1200 911 1219 q 851 1160 881 1181 q 821 1135 829 1143 q 808 1107 808 1122 q 811 1092 808 1103 l 764 1082 m 535 1307 l 703 1129 l 654 1081 l 476 1210 l 299 1081 l 249 1129 l 418 1307 l 535 1307 z "},"Ẫ":{"ha":961,"x_min":-18,"x_max":979,"o":"m 403 1040 l 556 1040 l 893 82 l 979 68 l 979 0 l 613 0 l 613 68 l 728 82 l 663 288 l 257 288 l 192 82 l 311 68 l 311 0 l -18 0 l -18 68 l 68 82 l 403 1040 m 490 818 l 456 940 l 422 815 l 282 369 l 636 369 l 490 818 m 274 1350 q 291 1402 275 1375 q 336 1447 307 1429 q 404 1465 365 1465 q 456 1453 433 1465 q 514 1418 479 1442 q 558 1390 543 1399 q 590 1382 572 1382 q 638 1393 622 1382 q 674 1433 653 1404 l 721 1400 q 674 1324 713 1354 q 583 1294 636 1294 q 538 1305 558 1294 q 482 1338 517 1315 q 435 1365 454 1356 q 399 1374 417 1374 q 357 1359 375 1374 q 319 1318 339 1344 l 274 1350 m 532 1261 l 726 1133 l 678 1081 l 476 1174 l 271 1081 l 226 1133 l 418 1261 l 532 1261 z "},"Ä":{"ha":961,"x_min":-18,"x_max":979,"o":"m 403 1040 l 556 1040 l 893 82 l 979 68 l 979 0 l 613 0 l 613 68 l 728 82 l 663 288 l 257 288 l 192 82 l 311 68 l 311 0 l -18 0 l -18 68 l 68 82 l 403 1040 m 490 818 l 456 940 l 422 815 l 282 369 l 636 369 l 490 818 m 296 1138 q 240 1163 261 1138 q 219 1225 219 1189 q 242 1299 219 1269 q 310 1328 265 1328 l 311 1328 q 372 1301 350 1328 q 394 1239 394 1275 q 369 1166 394 1194 q 297 1138 344 1138 l 296 1138 m 636 1138 q 580 1163 601 1138 q 558 1225 558 1189 q 582 1298 558 1268 q 649 1328 606 1328 l 650 1328 q 710 1301 689 1328 q 732 1239 732 1275 q 708 1166 732 1194 q 636 1138 683 1138 z "},"Ạ":{"ha":961,"x_min":-18,"x_max":979,"o":"m 403 1040 l 556 1040 l 893 82 l 979 68 l 979 0 l 613 0 l 613 68 l 728 82 l 663 288 l 257 288 l 192 82 l 311 68 l 311 0 l -18 0 l -18 68 l 68 82 l 403 1040 m 490 818 l 456 940 l 422 815 l 282 369 l 636 369 l 490 818 m 458 -283 q 398 -258 421 -283 q 375 -193 375 -232 q 401 -118 375 -149 q 472 -87 426 -87 q 538 -114 514 -87 q 561 -178 561 -140 q 535 -253 561 -224 q 460 -283 508 -283 l 458 -283 z "},"À":{"ha":961,"x_min":-18,"x_max":979,"o":"m 403 1040 l 556 1040 l 893 82 l 979 68 l 979 0 l 613 0 l 613 68 l 728 82 l 663 288 l 257 288 l 192 82 l 311 68 l 311 0 l -18 0 l -18 68 l 68 82 l 403 1040 m 490 818 l 456 940 l 422 815 l 282 369 l 636 369 l 490 818 m 511 1110 q 387 1190 458 1135 q 279 1292 315 1244 l 390 1363 l 578 1151 l 511 1110 z "},"Ả":{"ha":961,"x_min":-18,"x_max":979,"o":"m 403 1040 l 556 1040 l 893 82 l 979 68 l 979 0 l 613 0 l 613 68 l 728 82 l 663 288 l 257 288 l 192 82 l 311 68 l 311 0 l -18 0 l -18 68 l 68 82 l 403 1040 m 490 818 l 456 940 l 422 815 l 282 369 l 636 369 l 490 818 m 450 1078 q 434 1104 440 1088 q 428 1139 428 1121 q 437 1160 428 1151 q 464 1179 446 1168 q 497 1202 486 1192 q 507 1229 507 1213 q 429 1279 507 1279 q 367 1265 392 1279 l 364 1344 q 410 1359 382 1353 q 461 1365 438 1365 q 619 1249 619 1365 q 603 1199 619 1217 q 556 1161 588 1181 l 525 1140 q 507 1100 507 1126 q 511 1078 507 1089 l 450 1078 z "},"Ā":{"ha":961,"x_min":-18,"x_max":979,"o":"m 403 1040 l 556 1040 l 893 82 l 979 68 l 979 0 l 613 0 l 613 68 l 728 82 l 663 288 l 257 288 l 192 82 l 311 68 l 311 0 l -18 0 l -18 68 l 68 82 l 403 1040 m 490 818 l 456 940 l 422 815 l 282 369 l 636 369 l 490 818 m 682 1185 l 271 1185 l 271 1285 l 682 1285 l 682 1185 z "},"Ą":{"ha":953,"x_min":-18,"x_max":979,"o":"m 404 1040 l 556 1040 l 893 82 l 979 68 l 979 0 l 907 0 q 798 -78 842 -28 q 754 -172 754 -128 q 784 -235 754 -214 q 861 -256 814 -256 q 963 -231 910 -256 l 963 -300 q 890 -333 935 -321 q 801 -346 846 -346 q 673 -313 725 -346 q 621 -214 621 -281 q 676 -94 621 -157 q 808 0 732 -31 l 613 0 l 613 68 l 728 82 l 663 288 l 257 288 l 192 82 l 311 68 l 311 0 l -18 0 l -18 68 l 68 82 l 404 1040 m 490 818 l 457 940 l 424 815 l 282 369 l 636 369 l 490 818 z "},"Å":{"ha":961,"x_min":-18,"x_max":979,"o":"m -18 68 l 68 82 l 399 1029 q 288 1087 325 1044 q 251 1189 251 1129 q 319 1319 251 1274 q 482 1365 386 1365 q 646 1319 589 1365 q 703 1196 703 1274 q 663 1090 703 1132 q 558 1032 624 1049 l 893 82 l 979 68 l 979 0 l 613 0 l 613 68 l 728 82 l 663 288 l 257 288 l 192 82 l 311 68 l 311 0 l -18 0 l -18 68 m 350 1196 q 382 1115 350 1147 q 478 1082 414 1082 q 603 1188 603 1082 q 573 1271 603 1239 q 479 1303 543 1303 q 383 1276 415 1303 q 350 1196 350 1249 m 636 369 l 490 818 l 456 940 l 422 815 l 282 369 l 636 369 z "},"Ǻ":{"ha":961,"x_min":-18,"x_max":979,"o":"m -18 68 l 68 82 l 383 979 q 294 1024 326 990 q 261 1106 261 1058 q 306 1198 261 1161 q 425 1242 350 1235 l 513 1365 l 638 1317 q 594 1269 613 1286 q 551 1239 575 1251 q 653 1193 614 1229 q 692 1103 692 1157 q 661 1024 692 1057 q 575 979 631 990 l 893 82 l 979 68 l 979 0 l 613 0 l 613 68 l 728 82 l 663 288 l 257 288 l 192 82 l 311 68 l 311 0 l -18 0 l -18 68 m 358 1106 q 391 1053 358 1074 q 476 1033 424 1033 q 563 1054 531 1033 q 594 1106 594 1075 q 563 1160 594 1139 q 476 1182 531 1182 q 391 1160 424 1182 q 358 1106 358 1139 m 636 369 l 490 818 l 456 940 l 422 815 l 282 369 l 636 369 z "},"Ã":{"ha":961,"x_min":-18,"x_max":979,"o":"m 403 1040 l 556 1040 l 893 82 l 979 68 l 979 0 l 613 0 l 613 68 l 728 82 l 663 288 l 257 288 l 192 82 l 311 68 l 311 0 l -18 0 l -18 68 l 68 82 l 403 1040 m 490 818 l 456 940 l 422 815 l 282 369 l 636 369 l 490 818 m 582 1132 q 515 1147 542 1132 q 454 1189 489 1161 q 413 1220 431 1210 q 375 1231 396 1231 q 323 1209 340 1231 q 292 1149 306 1188 l 226 1186 q 285 1288 246 1249 q 383 1326 324 1326 q 453 1311 426 1326 q 514 1265 481 1296 q 553 1235 538 1244 q 586 1225 568 1225 q 635 1249 617 1225 q 668 1310 654 1272 l 733 1272 q 678 1169 713 1207 q 582 1132 643 1132 z "},"Æ":{"ha":1279,"x_min":-122,"x_max":1264,"o":"m 557 300 l 197 300 l 110 82 l 217 67 l 217 0 l -122 0 l -122 67 l -21 82 l 361 947 l 176 964 l 176 1032 l 1147 1032 l 1169 813 l 1090 813 l 1047 954 l 706 961 l 706 568 l 933 572 l 951 688 l 1029 688 l 1029 368 l 951 368 l 933 489 l 706 492 l 706 76 l 1096 92 l 1179 267 l 1264 243 l 1213 0 l 438 0 l 438 67 l 557 82 l 557 300 m 557 956 l 465 956 l 389 774 l 231 382 l 557 382 l 557 956 z "},"Ǽ":{"ha":1279,"x_min":-122,"x_max":1264,"o":"m 557 300 l 197 300 l 110 82 l 217 67 l 217 0 l -122 0 l -122 67 l -21 82 l 361 947 l 176 964 l 176 1032 l 1147 1032 l 1169 813 l 1090 813 l 1047 954 l 706 961 l 706 568 l 933 572 l 951 688 l 1029 688 l 1029 368 l 951 368 l 933 489 l 706 492 l 706 76 l 1096 92 l 1179 267 l 1264 243 l 1213 0 l 438 0 l 438 67 l 557 82 l 557 300 m 557 956 l 465 956 l 389 774 l 231 382 l 557 382 l 557 956 m 536 1151 l 722 1363 l 835 1292 q 727 1189 796 1243 q 606 1110 658 1135 l 536 1151 z "},"B":{"ha":951,"x_min":64,"x_max":901,"o":"m 179 946 l 65 963 l 65 1032 l 253 1032 q 372 1038 300 1032 q 471 1043 439 1043 q 745 983 663 1043 q 828 808 828 924 q 771 639 828 710 q 615 550 714 568 q 825 488 749 553 q 901 310 901 422 q 802 81 901 169 q 474 -8 703 -8 q 378 -4 424 -8 q 249 0 269 0 l 64 0 l 64 68 l 179 82 l 179 946 m 326 576 q 406 575 346 575 l 482 575 q 629 629 579 575 q 679 783 679 683 q 629 926 679 881 q 458 971 579 971 q 356 965 408 971 l 326 963 l 326 576 m 326 78 q 471 67 358 67 q 674 124 611 67 q 738 290 738 182 q 683 446 738 397 q 506 494 628 494 q 326 492 364 494 l 326 78 z "},"Ḃ":{"ha":951,"x_min":64,"x_max":901,"o":"m 179 946 l 65 963 l 65 1032 l 253 1032 q 372 1038 300 1032 q 471 1043 439 1043 q 745 983 663 1043 q 828 808 828 924 q 771 639 828 710 q 615 550 714 568 q 825 488 749 553 q 901 310 901 422 q 802 81 901 169 q 474 -8 703 -8 q 378 -4 424 -8 q 249 0 269 0 l 64 0 l 64 68 l 179 82 l 179 946 m 326 576 q 406 575 346 575 l 482 575 q 629 629 579 575 q 679 783 679 683 q 629 926 679 881 q 458 971 579 971 q 356 965 408 971 l 326 963 l 326 576 m 326 78 q 471 67 358 67 q 674 124 611 67 q 738 290 738 182 q 683 446 738 397 q 506 494 628 494 q 326 492 364 494 l 326 78 m 467 1151 q 406 1176 429 1151 q 383 1238 383 1200 q 408 1309 383 1281 q 479 1338 433 1338 q 543 1312 519 1338 q 567 1250 567 1286 q 541 1179 567 1207 q 467 1151 515 1151 z "},"Ḅ":{"ha":951,"x_min":64,"x_max":901,"o":"m 179 946 l 65 963 l 65 1032 l 253 1032 q 372 1038 300 1032 q 471 1043 439 1043 q 745 983 663 1043 q 828 808 828 924 q 771 639 828 710 q 615 550 714 568 q 825 488 749 553 q 901 310 901 422 q 802 81 901 169 q 474 -8 703 -8 q 378 -4 424 -8 q 249 0 269 0 l 64 0 l 64 68 l 179 82 l 179 946 m 326 576 q 406 575 346 575 l 482 575 q 629 629 579 575 q 679 783 679 683 q 629 926 679 881 q 458 971 579 971 q 356 965 408 971 l 326 963 l 326 576 m 326 78 q 471 67 358 67 q 674 124 611 67 q 738 290 738 182 q 683 446 738 397 q 506 494 628 494 q 326 492 364 494 l 326 78 m 465 -283 q 405 -258 428 -283 q 382 -193 382 -232 q 408 -118 382 -149 q 479 -87 433 -87 q 544 -114 521 -87 q 568 -178 568 -140 q 542 -253 568 -224 q 467 -283 515 -283 l 465 -283 z "},"C":{"ha":907,"x_min":46,"x_max":857,"o":"m 525 -15 q 265 51 372 -15 q 101 236 157 117 q 46 517 46 356 q 111 792 46 672 q 290 977 176 911 q 546 1043 404 1043 q 803 1010 653 1043 l 849 1001 l 835 751 l 742 751 l 707 928 q 640 956 688 944 q 522 968 592 968 q 364 917 433 968 q 255 768 294 867 q 215 532 215 669 q 250 294 215 401 q 356 124 285 188 q 531 61 426 61 q 644 74 604 61 q 711 110 683 86 l 769 246 l 857 235 l 824 38 q 738 18 794 36 q 641 -6 688 3 q 525 -15 594 -15 z "},"Ć":{"ha":907,"x_min":46,"x_max":857,"o":"m 525 -15 q 265 51 372 -15 q 101 236 157 117 q 46 517 46 356 q 111 792 46 672 q 290 977 176 911 q 546 1043 404 1043 q 803 1010 653 1043 l 849 1001 l 835 751 l 742 751 l 707 928 q 640 956 688 944 q 522 968 592 968 q 364 917 433 968 q 255 768 294 867 q 215 532 215 669 q 250 294 215 401 q 356 124 285 188 q 531 61 426 61 q 644 74 604 61 q 711 110 683 86 l 769 246 l 857 235 l 824 38 q 738 18 794 36 q 641 -6 688 3 q 525 -15 594 -15 m 408 1151 l 594 1363 l 707 1292 q 599 1189 668 1243 q 478 1110 531 1135 l 408 1151 z "},"Č":{"ha":907,"x_min":46,"x_max":857,"o":"m 525 -15 q 265 51 372 -15 q 101 236 157 117 q 46 517 46 356 q 111 792 46 672 q 290 977 176 911 q 546 1043 404 1043 q 803 1010 653 1043 l 849 1001 l 835 751 l 742 751 l 707 928 q 640 956 688 944 q 522 968 592 968 q 364 917 433 968 q 255 768 294 867 q 215 532 215 669 q 250 294 215 401 q 356 124 285 188 q 531 61 426 61 q 644 74 604 61 q 711 110 683 86 l 769 246 l 857 235 l 824 38 q 738 18 794 36 q 641 -6 688 3 q 525 -15 594 -15 m 514 1229 l 690 1364 l 744 1326 l 571 1136 l 457 1136 l 281 1325 l 339 1364 l 514 1229 z "},"Ç":{"ha":907,"x_min":46,"x_max":857,"o":"m 525 -15 q 265 51 372 -15 q 101 236 157 117 q 46 517 46 356 q 111 792 46 672 q 290 977 176 911 q 546 1043 404 1043 q 803 1010 653 1043 l 849 1001 l 835 751 l 742 751 l 707 928 q 640 956 688 944 q 522 968 592 968 q 364 917 433 968 q 255 768 294 867 q 215 532 215 669 q 250 294 215 401 q 356 124 285 188 q 531 61 426 61 q 644 74 604 61 q 711 110 683 86 l 769 246 l 857 235 l 824 38 q 738 18 794 36 q 641 -6 688 3 q 525 -15 594 -15 m 451 -335 q 400 -329 428 -335 q 353 -317 372 -324 l 354 -221 q 386 -229 368 -226 q 417 -232 404 -232 q 496 -213 472 -232 q 519 -133 519 -194 q 503 -58 519 -97 q 472 1 488 -18 l 515 8 l 542 1 q 601 -79 571 -25 q 632 -190 632 -133 q 587 -301 632 -268 q 451 -335 542 -335 z "},"Ĉ":{"ha":907,"x_min":46,"x_max":857,"o":"m 525 -15 q 265 51 372 -15 q 101 236 157 117 q 46 517 46 356 q 111 792 46 672 q 290 977 176 911 q 546 1043 404 1043 q 803 1010 653 1043 l 849 1001 l 835 751 l 742 751 l 707 928 q 640 956 688 944 q 522 968 592 968 q 364 917 433 968 q 255 768 294 867 q 215 532 215 669 q 250 294 215 401 q 356 124 285 188 q 531 61 426 61 q 644 74 604 61 q 711 110 683 86 l 769 246 l 857 235 l 824 38 q 738 18 794 36 q 641 -6 688 3 q 525 -15 594 -15 m 569 1364 l 757 1164 l 700 1124 l 514 1267 l 325 1124 l 271 1163 l 458 1364 l 569 1364 z "},"Ċ":{"ha":907,"x_min":46,"x_max":857,"o":"m 525 -15 q 265 51 372 -15 q 101 236 157 117 q 46 517 46 356 q 111 792 46 672 q 290 977 176 911 q 546 1043 404 1043 q 803 1010 653 1043 l 849 1001 l 835 751 l 742 751 l 707 928 q 640 956 688 944 q 522 968 592 968 q 364 917 433 968 q 255 768 294 867 q 215 532 215 669 q 250 294 215 401 q 356 124 285 188 q 531 61 426 61 q 644 74 604 61 q 711 110 683 86 l 769 246 l 857 235 l 824 38 q 738 18 794 36 q 641 -6 688 3 q 525 -15 594 -15 m 504 1151 q 444 1176 467 1151 q 421 1238 421 1200 q 446 1309 421 1281 q 517 1338 471 1338 q 581 1312 557 1338 q 604 1250 604 1286 q 578 1179 604 1207 q 504 1151 553 1151 z "},"D":{"ha":1053,"x_min":64,"x_max":1007,"o":"m 179 946 l 71 963 l 71 1032 l 253 1032 q 376 1038 296 1032 q 497 1043 457 1043 q 881 913 756 1043 q 1007 549 1007 783 q 942 258 1007 385 q 761 60 878 131 q 493 -11 644 -11 q 379 -6 460 -11 q 254 0 296 0 l 64 0 l 64 68 l 179 82 l 179 946 m 326 78 q 451 67 375 67 l 493 67 q 677 119 597 68 q 801 273 757 171 q 846 521 846 375 q 751 854 846 740 q 464 968 656 968 q 368 963 424 968 q 326 958 344 958 l 326 78 z "},"Ǳ":{"ha":1961,"x_min":64,"x_max":1908,"o":"m 179 946 l 71 963 l 71 1032 l 253 1032 q 376 1038 296 1032 q 497 1043 457 1043 q 881 913 756 1043 q 1007 549 1007 783 q 942 258 1007 385 q 761 60 878 131 q 493 -11 644 -11 q 379 -6 460 -11 q 254 0 296 0 l 64 0 l 64 68 l 179 82 l 179 946 m 326 78 q 451 67 375 67 l 493 67 q 677 119 597 68 q 801 273 757 171 q 846 521 846 375 q 751 854 846 740 q 464 968 656 968 q 368 963 424 968 q 326 958 344 958 l 326 78 m 1719 965 l 1308 950 l 1238 765 l 1158 776 l 1189 1036 l 1863 1036 l 1894 976 l 1367 176 l 1274 74 l 1754 99 l 1826 317 l 1908 299 l 1876 0 l 1138 0 l 1100 61 l 1639 867 l 1719 965 z "},"Ǆ":{"ha":1961,"x_min":64,"x_max":1908,"o":"m 179 946 l 71 963 l 71 1032 l 253 1032 q 376 1038 296 1032 q 497 1043 457 1043 q 881 913 756 1043 q 1007 549 1007 783 q 942 258 1007 385 q 761 60 878 131 q 493 -11 644 -11 q 379 -6 460 -11 q 254 0 296 0 l 64 0 l 64 68 l 179 82 l 179 946 m 326 78 q 451 67 375 67 l 493 67 q 677 119 597 68 q 801 273 757 171 q 846 521 846 375 q 751 854 846 740 q 464 968 656 968 q 368 963 424 968 q 326 958 344 958 l 326 78 m 1719 965 l 1308 950 l 1238 765 l 1158 776 l 1189 1036 l 1863 1036 l 1894 976 l 1367 176 l 1274 74 l 1754 99 l 1826 317 l 1908 299 l 1876 0 l 1138 0 l 1100 61 l 1639 867 l 1719 965 m 1564 1229 l 1740 1364 l 1794 1326 l 1621 1136 l 1507 1136 l 1331 1325 l 1389 1364 l 1564 1229 z "},"Ð":{"ha":1053,"x_min":64,"x_max":1007,"o":"m 179 946 l 71 963 l 71 1032 l 253 1032 q 376 1038 296 1032 q 497 1043 457 1043 q 881 913 756 1043 q 1007 549 1007 783 q 942 258 1007 385 q 761 60 878 131 q 493 -11 644 -11 q 379 -6 460 -11 q 254 0 296 0 l 64 0 l 64 68 l 179 82 l 179 501 l 75 501 l 75 574 l 179 574 l 179 946 m 569 501 l 326 501 l 326 78 q 451 67 375 67 l 493 67 q 677 119 597 68 q 801 273 757 171 q 846 521 846 375 q 751 854 846 740 q 464 968 656 968 q 368 963 424 968 q 326 958 344 958 l 326 574 l 569 574 l 569 501 z "},"Ď":{"ha":1053,"x_min":64,"x_max":1007,"o":"m 179 946 l 71 963 l 71 1032 l 253 1032 q 376 1038 296 1032 q 497 1043 457 1043 q 881 913 756 1043 q 1007 549 1007 783 q 942 258 1007 385 q 761 60 878 131 q 493 -11 644 -11 q 379 -6 460 -11 q 254 0 296 0 l 64 0 l 64 68 l 179 82 l 179 946 m 326 78 q 451 67 375 67 l 493 67 q 677 119 597 68 q 801 273 757 171 q 846 521 846 375 q 751 854 846 740 q 464 968 656 968 q 368 963 424 968 q 326 958 344 958 l 326 78 m 528 1229 l 704 1364 l 758 1326 l 585 1136 l 471 1136 l 294 1325 l 353 1364 l 528 1229 z "},"Đ":{"ha":1053,"x_min":64,"x_max":1007,"o":"m 179 946 l 71 963 l 71 1032 l 253 1032 q 376 1038 296 1032 q 497 1043 457 1043 q 881 913 756 1043 q 1007 549 1007 783 q 942 258 1007 385 q 761 60 878 131 q 493 -11 644 -11 q 379 -6 460 -11 q 254 0 296 0 l 64 0 l 64 68 l 179 82 l 179 501 l 75 501 l 75 574 l 179 574 l 179 946 m 569 501 l 326 501 l 326 78 q 451 67 375 67 l 493 67 q 677 119 597 68 q 801 273 757 171 q 846 521 846 375 q 751 854 846 740 q 464 968 656 968 q 368 963 424 968 q 326 958 344 958 l 326 574 l 569 574 l 569 501 z "},"Ḋ":{"ha":1053,"x_min":64,"x_max":1007,"o":"m 179 946 l 71 963 l 71 1032 l 253 1032 q 376 1038 296 1032 q 497 1043 457 1043 q 881 913 756 1043 q 1007 549 1007 783 q 942 258 1007 385 q 761 60 878 131 q 493 -11 644 -11 q 379 -6 460 -11 q 254 0 296 0 l 64 0 l 64 68 l 179 82 l 179 946 m 326 78 q 451 67 375 67 l 493 67 q 677 119 597 68 q 801 273 757 171 q 846 521 846 375 q 751 854 846 740 q 464 968 656 968 q 368 963 424 968 q 326 958 344 958 l 326 78 m 518 1151 q 458 1176 481 1151 q 435 1238 435 1200 q 460 1309 435 1281 q 531 1338 485 1338 q 594 1312 571 1338 q 618 1250 618 1286 q 592 1179 618 1207 q 518 1151 567 1151 z "},"Ḍ":{"ha":1053,"x_min":64,"x_max":1007,"o":"m 179 946 l 71 963 l 71 1032 l 253 1032 q 376 1038 296 1032 q 497 1043 457 1043 q 881 913 756 1043 q 1007 549 1007 783 q 942 258 1007 385 q 761 60 878 131 q 493 -11 644 -11 q 379 -6 460 -11 q 254 0 296 0 l 64 0 l 64 68 l 179 82 l 179 946 m 326 78 q 451 67 375 67 l 493 67 q 677 119 597 68 q 801 273 757 171 q 846 521 846 375 q 751 854 846 740 q 464 968 656 968 q 368 963 424 968 q 326 958 344 958 l 326 78 m 517 -283 q 456 -258 479 -283 q 433 -193 433 -232 q 459 -118 433 -149 q 531 -87 485 -87 q 596 -114 572 -87 q 619 -178 619 -140 q 593 -253 619 -224 q 518 -283 567 -283 l 517 -283 z "},"ǲ":{"ha":1822,"x_min":64,"x_max":1772,"o":"m 179 946 l 71 963 l 71 1032 l 253 1032 q 376 1038 296 1032 q 497 1043 457 1043 q 881 913 756 1043 q 1007 549 1007 783 q 942 258 1007 385 q 761 60 878 131 q 493 -11 644 -11 q 379 -6 460 -11 q 254 0 296 0 l 64 0 l 64 68 l 179 82 l 179 946 m 326 78 q 451 67 375 67 l 493 67 q 677 119 597 68 q 801 273 757 171 q 846 521 846 375 q 751 854 846 740 q 464 968 656 968 q 368 963 424 968 q 326 958 344 958 l 326 78 m 1256 682 l 1231 550 l 1146 550 l 1146 771 l 1736 771 l 1764 711 l 1356 164 l 1260 78 l 1633 90 l 1692 246 l 1772 236 l 1747 0 l 1124 0 l 1094 61 l 1510 603 l 1601 692 l 1256 682 z "},"ǅ":{"ha":1822,"x_min":64,"x_max":1772,"o":"m 179 946 l 71 963 l 71 1032 l 253 1032 q 376 1038 296 1032 q 497 1043 457 1043 q 881 913 756 1043 q 1007 549 1007 783 q 942 258 1007 385 q 761 60 878 131 q 493 -11 644 -11 q 379 -6 460 -11 q 254 0 296 0 l 64 0 l 64 68 l 179 82 l 179 946 m 326 78 q 451 67 375 67 l 493 67 q 677 119 597 68 q 801 273 757 171 q 846 521 846 375 q 751 854 846 740 q 464 968 656 968 q 368 963 424 968 q 326 958 344 958 l 326 78 m 1256 682 l 1231 550 l 1146 550 l 1146 771 l 1736 771 l 1764 711 l 1356 164 l 1260 78 l 1633 90 l 1692 246 l 1772 236 l 1747 0 l 1124 0 l 1094 61 l 1510 603 l 1601 692 l 1256 682 m 1458 996 l 1657 1197 l 1708 1160 l 1514 889 l 1403 889 l 1207 1158 l 1263 1197 l 1458 996 z "},"E":{"ha":904,"x_min":64,"x_max":875,"o":"m 179 946 l 65 963 l 65 1032 l 772 1032 l 792 817 l 713 817 l 672 951 l 328 960 l 328 568 l 560 572 l 579 688 l 656 688 l 656 368 l 579 368 l 560 488 l 328 492 l 328 78 l 719 92 l 793 267 l 875 242 l 835 0 l 64 0 l 64 68 l 179 82 l 179 946 z "},"É":{"ha":904,"x_min":64,"x_max":875,"o":"m 179 946 l 65 963 l 65 1032 l 772 1032 l 792 817 l 713 817 l 672 951 l 328 960 l 328 568 l 560 572 l 579 688 l 656 688 l 656 368 l 579 368 l 560 488 l 328 492 l 328 78 l 719 92 l 793 267 l 875 242 l 835 0 l 64 0 l 64 68 l 179 82 l 179 946 m 369 1151 l 556 1363 l 668 1292 q 560 1189 629 1243 q 439 1110 492 1135 l 369 1151 z "},"Ĕ":{"ha":904,"x_min":64,"x_max":875,"o":"m 179 946 l 65 963 l 65 1032 l 772 1032 l 792 817 l 713 817 l 672 951 l 328 960 l 328 568 l 560 572 l 579 688 l 656 688 l 656 368 l 579 368 l 560 488 l 328 492 l 328 78 l 719 92 l 793 267 l 875 242 l 835 0 l 64 0 l 64 68 l 179 82 l 179 946 m 474 1117 q 300 1176 363 1117 q 238 1326 238 1236 q 239 1354 238 1344 l 317 1354 q 318 1336 317 1344 q 362 1256 326 1290 q 474 1222 397 1222 q 632 1338 608 1222 l 633 1354 l 708 1354 q 710 1328 710 1344 q 681 1221 710 1269 q 598 1144 651 1172 q 474 1117 544 1117 z "},"Ě":{"ha":904,"x_min":64,"x_max":875,"o":"m 179 946 l 65 963 l 65 1032 l 772 1032 l 792 817 l 713 817 l 672 951 l 328 960 l 328 568 l 560 572 l 579 688 l 656 688 l 656 368 l 579 368 l 560 488 l 328 492 l 328 78 l 719 92 l 793 267 l 875 242 l 835 0 l 64 0 l 64 68 l 179 82 l 179 946 m 475 1229 l 651 1364 l 706 1326 l 532 1136 l 418 1136 l 242 1325 l 300 1364 l 475 1229 z "},"Ȩ":{"ha":904,"x_min":64,"x_max":875,"o":"m 397 -335 q 346 -329 374 -335 q 299 -317 318 -324 l 300 -221 q 332 -229 314 -226 q 363 -232 350 -232 q 442 -213 418 -232 q 465 -133 465 -194 q 450 -61 465 -99 q 419 0 435 -24 l 64 0 l 64 68 l 179 82 l 179 946 l 65 963 l 65 1032 l 772 1032 l 792 817 l 713 817 l 672 951 l 328 960 l 328 568 l 560 572 l 579 688 l 656 688 l 656 368 l 579 368 l 560 488 l 328 492 l 328 78 l 719 92 l 793 267 l 875 242 l 835 0 l 489 0 q 549 -81 519 -28 q 578 -190 578 -135 q 533 -301 578 -268 q 397 -335 488 -335 z "},"Ê":{"ha":904,"x_min":64,"x_max":875,"o":"m 179 946 l 65 963 l 65 1032 l 772 1032 l 792 817 l 713 817 l 672 951 l 328 960 l 328 568 l 560 572 l 579 688 l 656 688 l 656 368 l 579 368 l 560 488 l 328 492 l 328 78 l 719 92 l 793 267 l 875 242 l 835 0 l 64 0 l 64 68 l 179 82 l 179 946 m 531 1364 l 718 1164 l 661 1124 l 475 1267 l 286 1124 l 232 1163 l 419 1364 l 531 1364 z "},"Ế":{"ha":904,"x_min":64,"x_max":906,"o":"m 179 946 l 65 963 l 65 1032 l 772 1032 l 792 817 l 713 817 l 672 951 l 328 960 l 328 568 l 560 572 l 579 688 l 656 688 l 656 368 l 579 368 l 560 488 l 328 492 l 328 78 l 719 92 l 793 267 l 875 242 l 835 0 l 64 0 l 64 68 l 179 82 l 179 946 m 696 1224 l 826 1365 l 906 1300 q 844 1235 885 1269 q 750 1171 804 1201 l 696 1224 m 532 1315 l 700 1131 l 651 1083 l 474 1217 l 296 1082 l 246 1131 l 415 1315 l 532 1315 z "},"Ệ":{"ha":904,"x_min":64,"x_max":875,"o":"m 179 946 l 65 963 l 65 1032 l 772 1032 l 792 817 l 713 817 l 672 951 l 328 960 l 328 568 l 560 572 l 579 688 l 656 688 l 656 368 l 579 368 l 560 488 l 328 492 l 328 78 l 719 92 l 793 267 l 875 242 l 835 0 l 64 0 l 64 68 l 179 82 l 179 946 m 443 -283 q 383 -258 406 -283 q 360 -193 360 -232 q 385 -118 360 -149 q 457 -87 411 -87 q 522 -114 499 -87 q 546 -178 546 -140 q 519 -253 546 -224 q 444 -283 493 -283 l 443 -283 m 531 1364 l 718 1164 l 661 1124 l 475 1267 l 286 1124 l 232 1163 l 419 1364 l 531 1364 z "},"Ề":{"ha":904,"x_min":64,"x_max":890,"o":"m 179 946 l 65 963 l 65 1032 l 772 1032 l 792 817 l 713 817 l 672 951 l 328 960 l 328 568 l 560 572 l 579 688 l 656 688 l 656 368 l 579 368 l 560 488 l 328 492 l 328 78 l 719 92 l 793 267 l 875 242 l 835 0 l 64 0 l 64 68 l 179 82 l 179 946 m 835 1171 q 740 1235 781 1201 q 679 1300 700 1269 l 758 1365 l 890 1224 l 835 1171 m 532 1307 l 700 1129 l 651 1081 l 474 1210 l 296 1081 l 246 1129 l 415 1307 l 532 1307 z "},"Ể":{"ha":904,"x_min":64,"x_max":908,"o":"m 179 946 l 65 963 l 65 1032 l 772 1032 l 792 817 l 713 817 l 672 951 l 328 960 l 328 568 l 560 572 l 579 688 l 656 688 l 656 368 l 579 368 l 560 488 l 328 492 l 328 78 l 719 92 l 793 267 l 875 242 l 835 0 l 64 0 l 64 68 l 179 82 l 179 946 m 761 1082 q 739 1133 739 1113 q 749 1164 739 1153 q 779 1188 758 1175 q 808 1208 799 1199 q 818 1236 818 1218 q 804 1273 818 1256 q 758 1293 790 1290 q 729 1290 747 1294 q 703 1281 711 1285 l 699 1356 q 724 1363 701 1360 q 761 1365 746 1365 q 869 1338 831 1365 q 908 1251 908 1310 q 893 1200 908 1219 q 849 1160 878 1181 q 818 1135 826 1143 q 806 1107 806 1122 q 808 1092 806 1103 l 761 1082 m 532 1307 l 700 1129 l 651 1081 l 474 1210 l 296 1081 l 246 1129 l 415 1307 l 532 1307 z "},"Ễ":{"ha":904,"x_min":64,"x_max":875,"o":"m 179 946 l 65 963 l 65 1032 l 772 1032 l 792 817 l 713 817 l 672 951 l 328 960 l 328 568 l 560 572 l 579 688 l 656 688 l 656 368 l 579 368 l 560 488 l 328 492 l 328 78 l 719 92 l 793 267 l 875 242 l 835 0 l 64 0 l 64 68 l 179 82 l 179 946 m 271 1350 q 288 1402 272 1375 q 333 1447 304 1429 q 401 1465 363 1465 q 453 1453 431 1465 q 511 1418 476 1442 q 555 1390 540 1399 q 588 1382 569 1382 q 635 1393 619 1382 q 671 1433 650 1404 l 718 1400 q 672 1324 710 1354 q 581 1294 633 1294 q 535 1305 556 1294 q 479 1338 514 1315 q 433 1365 451 1356 q 396 1374 414 1374 q 354 1359 372 1374 q 317 1318 336 1344 l 271 1350 m 529 1261 l 724 1133 l 675 1081 l 474 1174 l 268 1081 l 224 1133 l 415 1261 l 529 1261 z "},"Ë":{"ha":904,"x_min":64,"x_max":875,"o":"m 179 946 l 65 963 l 65 1032 l 772 1032 l 792 817 l 713 817 l 672 951 l 328 960 l 328 568 l 560 572 l 579 688 l 656 688 l 656 368 l 579 368 l 560 488 l 328 492 l 328 78 l 719 92 l 793 267 l 875 242 l 835 0 l 64 0 l 64 68 l 179 82 l 179 946 m 293 1138 q 238 1163 258 1138 q 217 1225 217 1189 q 240 1299 217 1269 q 307 1328 263 1328 l 308 1328 q 369 1301 347 1328 q 392 1239 392 1275 q 367 1166 392 1194 q 294 1138 342 1138 l 293 1138 m 633 1138 q 577 1163 599 1138 q 556 1225 556 1189 q 579 1298 556 1268 q 646 1328 603 1328 l 647 1328 q 708 1301 686 1328 q 729 1239 729 1275 q 705 1166 729 1194 q 633 1138 681 1138 z "},"Ė":{"ha":904,"x_min":64,"x_max":875,"o":"m 179 946 l 65 963 l 65 1032 l 772 1032 l 792 817 l 713 817 l 672 951 l 328 960 l 328 568 l 560 572 l 579 688 l 656 688 l 656 368 l 579 368 l 560 488 l 328 492 l 328 78 l 719 92 l 793 267 l 875 242 l 835 0 l 64 0 l 64 68 l 179 82 l 179 946 m 465 1151 q 405 1176 428 1151 q 382 1238 382 1200 q 407 1309 382 1281 q 478 1338 432 1338 q 542 1312 518 1338 q 565 1250 565 1286 q 540 1179 565 1207 q 465 1151 514 1151 z "},"Ẹ":{"ha":904,"x_min":64,"x_max":875,"o":"m 179 946 l 65 963 l 65 1032 l 772 1032 l 792 817 l 713 817 l 672 951 l 328 960 l 328 568 l 560 572 l 579 688 l 656 688 l 656 368 l 579 368 l 560 488 l 328 492 l 328 78 l 719 92 l 793 267 l 875 242 l 835 0 l 64 0 l 64 68 l 179 82 l 179 946 m 443 -283 q 383 -258 406 -283 q 360 -193 360 -232 q 385 -118 360 -149 q 457 -87 411 -87 q 522 -114 499 -87 q 546 -178 546 -140 q 519 -253 546 -224 q 444 -283 493 -283 l 443 -283 z "},"È":{"ha":904,"x_min":64,"x_max":875,"o":"m 179 946 l 65 963 l 65 1032 l 772 1032 l 792 817 l 713 817 l 672 951 l 328 960 l 328 568 l 560 572 l 579 688 l 656 688 l 656 368 l 579 368 l 560 488 l 328 492 l 328 78 l 719 92 l 793 267 l 875 242 l 835 0 l 64 0 l 64 68 l 179 82 l 179 946 m 508 1110 q 384 1190 456 1135 q 276 1292 313 1244 l 388 1363 l 575 1151 l 508 1110 z "},"Ẻ":{"ha":904,"x_min":64,"x_max":875,"o":"m 179 946 l 65 963 l 65 1032 l 772 1032 l 792 817 l 713 817 l 672 951 l 328 960 l 328 568 l 560 572 l 579 688 l 656 688 l 656 368 l 579 368 l 560 488 l 328 492 l 328 78 l 719 92 l 793 267 l 875 242 l 835 0 l 64 0 l 64 68 l 179 82 l 179 946 m 447 1078 q 431 1104 438 1088 q 425 1139 425 1121 q 434 1160 425 1151 q 461 1179 443 1168 q 494 1202 483 1192 q 504 1229 504 1213 q 426 1279 504 1279 q 364 1265 389 1279 l 361 1344 q 407 1359 379 1353 q 458 1365 435 1365 q 617 1249 617 1365 q 601 1199 617 1217 q 553 1161 585 1181 l 522 1140 q 504 1100 504 1126 q 508 1078 504 1089 l 447 1078 z "},"Ē":{"ha":904,"x_min":64,"x_max":875,"o":"m 179 946 l 65 963 l 65 1032 l 772 1032 l 792 817 l 713 817 l 672 951 l 328 960 l 328 568 l 560 572 l 579 688 l 656 688 l 656 368 l 579 368 l 560 488 l 328 492 l 328 78 l 719 92 l 793 267 l 875 242 l 835 0 l 64 0 l 64 68 l 179 82 l 179 946 m 679 1185 l 268 1185 l 268 1285 l 679 1285 l 679 1185 z "},"Ę":{"ha":906,"x_min":64,"x_max":875,"o":"m 179 946 l 65 963 l 65 1032 l 772 1032 l 792 817 l 713 817 l 672 951 l 328 960 l 328 568 l 560 572 l 579 688 l 656 688 l 656 368 l 579 368 l 560 488 l 328 492 l 328 78 l 719 92 l 793 267 l 875 242 l 835 0 l 818 0 q 729 -39 774 -10 q 656 -105 685 -68 q 628 -171 628 -142 q 656 -235 628 -214 q 731 -256 685 -256 q 832 -231 779 -256 l 832 -300 q 760 -333 804 -321 q 671 -346 715 -346 q 546 -313 594 -346 q 497 -214 497 -281 q 554 -94 497 -156 q 696 0 611 -32 l 64 0 l 64 68 l 179 82 l 179 946 z "},"Ẽ":{"ha":904,"x_min":64,"x_max":875,"o":"m 179 946 l 65 963 l 65 1032 l 772 1032 l 792 817 l 713 817 l 672 951 l 328 960 l 328 568 l 560 572 l 579 688 l 656 688 l 656 368 l 579 368 l 560 488 l 328 492 l 328 78 l 719 92 l 793 267 l 875 242 l 835 0 l 64 0 l 64 68 l 179 82 l 179 946 m 579 1132 q 513 1147 539 1132 q 451 1189 486 1161 q 410 1220 428 1210 q 372 1231 393 1231 q 320 1209 338 1231 q 289 1149 303 1188 l 224 1186 q 282 1288 243 1249 q 381 1326 321 1326 q 451 1311 424 1326 q 511 1265 478 1296 q 550 1235 535 1244 q 583 1225 565 1225 q 633 1249 614 1225 q 665 1310 651 1272 l 731 1272 q 675 1169 710 1207 q 579 1132 640 1132 z "},"F":{"ha":860,"x_min":60,"x_max":817,"o":"m 179 946 l 60 963 l 60 1032 l 803 1032 l 817 796 l 726 796 l 685 950 l 328 960 l 328 557 l 579 561 l 603 676 l 676 676 l 676 351 l 604 351 l 579 472 l 328 478 l 328 82 l 544 68 l 544 0 l 68 0 l 68 68 l 179 82 l 179 946 z "},"Ḟ":{"ha":860,"x_min":60,"x_max":817,"o":"m 179 946 l 60 963 l 60 1032 l 803 1032 l 817 796 l 726 796 l 685 950 l 328 960 l 328 557 l 579 561 l 603 676 l 676 676 l 676 351 l 604 351 l 579 472 l 328 478 l 328 82 l 544 68 l 544 0 l 68 0 l 68 68 l 179 82 l 179 946 m 461 1151 q 401 1176 424 1151 q 378 1238 378 1200 q 403 1309 378 1281 q 474 1338 428 1338 q 538 1312 514 1338 q 561 1250 561 1286 q 535 1179 561 1207 q 461 1151 510 1151 z "},"G":{"ha":1028,"x_min":60,"x_max":1001,"o":"m 542 -15 q 283 51 392 -15 q 117 235 174 118 q 60 501 60 353 q 127 794 60 672 q 314 980 194 917 q 586 1043 433 1043 q 910 1000 726 1043 l 897 760 l 799 760 l 765 926 q 699 956 746 942 q 575 969 653 969 q 396 919 474 969 q 274 771 318 869 q 231 532 231 672 q 266 296 231 403 q 374 124 301 189 q 553 60 447 60 q 679 76 619 60 q 771 118 739 92 l 771 428 l 596 442 l 596 524 l 1001 524 l 1001 442 l 921 429 l 921 56 q 819 32 890 54 q 683 -3 747 10 q 542 -15 619 -15 z "},"Ǵ":{"ha":1028,"x_min":60,"x_max":1001,"o":"m 542 -15 q 283 51 392 -15 q 117 235 174 118 q 60 501 60 353 q 127 794 60 672 q 314 980 194 917 q 586 1043 433 1043 q 910 1000 726 1043 l 897 760 l 799 760 l 765 926 q 699 956 746 942 q 575 969 653 969 q 396 919 474 969 q 274 771 318 869 q 231 532 231 672 q 266 296 231 403 q 374 124 301 189 q 553 60 447 60 q 679 76 619 60 q 771 118 739 92 l 771 428 l 596 442 l 596 524 l 1001 524 l 1001 442 l 921 429 l 921 56 q 819 32 890 54 q 683 -3 747 10 q 542 -15 619 -15 m 451 1151 l 638 1363 l 750 1292 q 642 1189 711 1243 q 521 1110 574 1135 l 451 1151 z "},"Ğ":{"ha":1028,"x_min":60,"x_max":1001,"o":"m 542 -15 q 283 51 392 -15 q 117 235 174 118 q 60 501 60 353 q 127 794 60 672 q 314 980 194 917 q 586 1043 433 1043 q 910 1000 726 1043 l 897 760 l 799 760 l 765 926 q 699 956 746 942 q 575 969 653 969 q 396 919 474 969 q 274 771 318 869 q 231 532 231 672 q 266 296 231 403 q 374 124 301 189 q 553 60 447 60 q 679 76 619 60 q 771 118 739 92 l 771 428 l 596 442 l 596 524 l 1001 524 l 1001 442 l 921 429 l 921 56 q 819 32 890 54 q 683 -3 747 10 q 542 -15 619 -15 m 556 1117 q 382 1176 444 1117 q 319 1326 319 1236 q 321 1354 319 1344 l 399 1354 q 400 1336 399 1344 q 444 1256 408 1290 q 556 1222 479 1222 q 714 1338 690 1222 l 715 1354 l 790 1354 q 792 1328 792 1344 q 763 1221 792 1269 q 680 1144 733 1172 q 556 1117 626 1117 z "},"Ǧ":{"ha":1028,"x_min":60,"x_max":1001,"o":"m 542 -15 q 283 51 392 -15 q 117 235 174 118 q 60 501 60 353 q 127 794 60 672 q 314 980 194 917 q 586 1043 433 1043 q 910 1000 726 1043 l 897 760 l 799 760 l 765 926 q 699 956 746 942 q 575 969 653 969 q 396 919 474 969 q 274 771 318 869 q 231 532 231 672 q 266 296 231 403 q 374 124 301 189 q 553 60 447 60 q 679 76 619 60 q 771 118 739 92 l 771 428 l 596 442 l 596 524 l 1001 524 l 1001 442 l 921 429 l 921 56 q 819 32 890 54 q 683 -3 747 10 q 542 -15 619 -15 m 557 1229 l 733 1364 l 788 1326 l 614 1136 l 500 1136 l 324 1325 l 382 1364 l 557 1229 z "},"Ĝ":{"ha":1028,"x_min":60,"x_max":1001,"o":"m 542 -15 q 283 51 392 -15 q 117 235 174 118 q 60 501 60 353 q 127 794 60 672 q 314 980 194 917 q 586 1043 433 1043 q 910 1000 726 1043 l 897 760 l 799 760 l 765 926 q 699 956 746 942 q 575 969 653 969 q 396 919 474 969 q 274 771 318 869 q 231 532 231 672 q 266 296 231 403 q 374 124 301 189 q 553 60 447 60 q 679 76 619 60 q 771 118 739 92 l 771 428 l 596 442 l 596 524 l 1001 524 l 1001 442 l 921 429 l 921 56 q 819 32 890 54 q 683 -3 747 10 q 542 -15 619 -15 m 613 1364 l 800 1164 l 743 1124 l 557 1267 l 368 1124 l 314 1163 l 501 1364 l 613 1364 z "},"Ģ":{"ha":1028,"x_min":60,"x_max":1001,"o":"m 542 -15 q 283 51 392 -15 q 117 235 174 118 q 60 501 60 353 q 127 794 60 672 q 314 980 194 917 q 586 1043 433 1043 q 910 1000 726 1043 l 897 760 l 799 760 l 765 926 q 699 956 746 942 q 575 969 653 969 q 396 919 474 969 q 274 771 318 869 q 231 532 231 672 q 266 296 231 403 q 374 124 301 189 q 553 60 447 60 q 679 76 619 60 q 771 118 739 92 l 771 428 l 596 442 l 596 524 l 1001 524 l 1001 442 l 921 429 l 921 56 q 819 32 890 54 q 683 -3 747 10 q 542 -15 619 -15 m 610 -187 q 589 -279 610 -237 q 542 -347 568 -321 q 501 -378 515 -374 l 500 -378 l 453 -353 l 451 -344 q 483 -307 471 -335 q 496 -249 496 -279 q 488 -219 496 -231 q 467 -199 481 -208 q 439 -143 439 -179 q 463 -92 439 -107 q 513 -76 486 -76 l 518 -76 q 585 -106 560 -76 q 610 -187 610 -135 z "},"Ġ":{"ha":1028,"x_min":60,"x_max":1001,"o":"m 542 -15 q 283 51 392 -15 q 117 235 174 118 q 60 501 60 353 q 127 794 60 672 q 314 980 194 917 q 586 1043 433 1043 q 910 1000 726 1043 l 897 760 l 799 760 l 765 926 q 699 956 746 942 q 575 969 653 969 q 396 919 474 969 q 274 771 318 869 q 231 532 231 672 q 266 296 231 403 q 374 124 301 189 q 553 60 447 60 q 679 76 619 60 q 771 118 739 92 l 771 428 l 596 442 l 596 524 l 1001 524 l 1001 442 l 921 429 l 921 56 q 819 32 890 54 q 683 -3 747 10 q 542 -15 619 -15 m 547 1151 q 487 1176 510 1151 q 464 1238 464 1200 q 489 1309 464 1281 q 560 1338 514 1338 q 624 1312 600 1338 q 647 1250 647 1286 q 622 1179 647 1207 q 547 1151 596 1151 z "},"Ḡ":{"ha":1028,"x_min":60,"x_max":1001,"o":"m 542 -15 q 283 51 392 -15 q 117 235 174 118 q 60 501 60 353 q 127 794 60 672 q 314 980 194 917 q 586 1043 433 1043 q 910 1000 726 1043 l 897 760 l 799 760 l 765 926 q 699 956 746 942 q 575 969 653 969 q 396 919 474 969 q 274 771 318 869 q 231 532 231 672 q 266 296 231 403 q 374 124 301 189 q 553 60 447 60 q 679 76 619 60 q 771 118 739 92 l 771 428 l 596 442 l 596 524 l 1001 524 l 1001 442 l 921 429 l 921 56 q 819 32 890 54 q 683 -3 747 10 q 542 -15 619 -15 m 761 1185 l 350 1185 l 350 1285 l 761 1285 l 761 1185 z "},"H":{"ha":1150,"x_min":69,"x_max":1079,"o":"m 182 946 l 72 963 l 72 1032 l 450 1032 l 450 963 l 331 946 l 331 572 l 819 572 l 819 946 l 707 963 l 707 1032 l 1079 1032 l 1079 963 l 969 946 l 969 82 l 1079 68 l 1079 0 l 706 0 l 706 68 l 819 82 l 819 486 l 331 486 l 331 82 l 451 68 l 451 0 l 69 0 l 69 68 l 182 82 l 182 946 z "},"Ħ":{"ha":1150,"x_min":35,"x_max":1121,"o":"m 182 946 l 72 963 l 72 1033 l 449 1033 l 449 963 l 329 946 l 329 771 l 821 771 l 821 946 l 708 963 l 708 1033 l 1079 1033 l 1079 963 l 969 946 l 969 771 l 1121 771 l 1121 700 l 969 700 l 969 83 l 1079 68 l 1079 0 l 708 0 l 708 68 l 819 83 l 821 421 l 329 421 l 329 82 l 450 68 l 450 0 l 69 0 l 69 68 l 182 82 l 182 700 l 35 700 l 35 771 l 182 771 l 182 946 m 329 700 l 329 504 l 821 504 l 821 700 l 329 700 z "},"Ĥ":{"ha":1150,"x_min":69,"x_max":1079,"o":"m 182 946 l 72 963 l 72 1032 l 450 1032 l 450 963 l 331 946 l 331 572 l 819 572 l 819 946 l 707 963 l 707 1032 l 1079 1032 l 1079 963 l 969 946 l 969 82 l 1079 68 l 1079 0 l 706 0 l 706 68 l 819 82 l 819 486 l 331 486 l 331 82 l 451 68 l 451 0 l 69 0 l 69 68 l 182 82 l 182 946 m 642 1364 l 829 1164 l 772 1124 l 586 1267 l 397 1124 l 343 1163 l 531 1364 l 642 1364 z "},"Ḥ":{"ha":1150,"x_min":69,"x_max":1079,"o":"m 182 946 l 72 963 l 72 1032 l 450 1032 l 450 963 l 331 946 l 331 572 l 819 572 l 819 946 l 707 963 l 707 1032 l 1079 1032 l 1079 963 l 969 946 l 969 82 l 1079 68 l 1079 0 l 706 0 l 706 68 l 819 82 l 819 486 l 331 486 l 331 82 l 451 68 l 451 0 l 69 0 l 69 68 l 182 82 l 182 946 m 567 -283 q 506 -258 529 -283 q 483 -193 483 -232 q 509 -118 483 -149 q 581 -87 535 -87 q 646 -114 622 -87 q 669 -178 669 -140 q 643 -253 669 -224 q 568 -283 617 -283 l 567 -283 z "},"I":{"ha":560,"x_min":75,"x_max":483,"o":"m 204 946 l 75 963 l 75 1032 l 483 1032 l 483 963 l 354 946 l 354 82 l 483 67 l 483 0 l 76 0 l 76 68 l 204 82 l 204 946 z "},"Ĳ":{"ha":1089,"x_min":75,"x_max":1036,"o":"m 204 946 l 75 963 l 75 1032 l 483 1032 l 483 963 l 354 946 l 354 82 l 483 67 l 483 0 l 76 0 l 76 68 l 204 82 l 204 946 m 551 -190 q 661 -126 613 -172 q 732 -11 710 -79 q 756 112 750 42 q 761 328 761 182 l 761 944 l 628 963 l 628 1032 l 1036 1032 l 1036 963 l 910 944 l 910 382 l 910 317 q 907 140 910 207 q 894 26 904 74 q 785 -157 869 -85 q 589 -249 700 -229 l 551 -190 z "},"Í":{"ha":560,"x_min":75,"x_max":483,"o":"m 204 946 l 75 963 l 75 1032 l 483 1032 l 483 963 l 354 946 l 354 82 l 483 67 l 483 0 l 76 0 l 76 68 l 204 82 l 204 946 m 176 1151 l 363 1363 l 475 1292 q 367 1189 436 1243 q 246 1110 299 1135 l 176 1151 z "},"Ĭ":{"ha":560,"x_min":44,"x_max":517,"o":"m 204 946 l 75 963 l 75 1032 l 483 1032 l 483 963 l 354 946 l 354 82 l 483 67 l 483 0 l 76 0 l 76 68 l 204 82 l 204 946 m 281 1117 q 107 1176 169 1117 q 44 1326 44 1236 q 46 1354 44 1344 l 124 1354 q 125 1336 124 1344 q 169 1256 133 1290 q 281 1222 204 1222 q 439 1338 415 1222 l 440 1354 l 515 1354 q 517 1328 517 1344 q 488 1221 517 1269 q 405 1144 458 1172 q 281 1117 351 1117 z "},"Ǐ":{"ha":560,"x_min":49,"x_max":513,"o":"m 204 946 l 75 963 l 75 1032 l 483 1032 l 483 963 l 354 946 l 354 82 l 483 67 l 483 0 l 76 0 l 76 68 l 204 82 l 204 946 m 282 1229 l 458 1364 l 513 1326 l 339 1136 l 225 1136 l 49 1325 l 107 1364 l 282 1229 z "},"Î":{"ha":560,"x_min":39,"x_max":525,"o":"m 204 946 l 75 963 l 75 1032 l 483 1032 l 483 963 l 354 946 l 354 82 l 483 67 l 483 0 l 76 0 l 76 68 l 204 82 l 204 946 m 338 1364 l 525 1164 l 468 1124 l 282 1267 l 93 1124 l 39 1163 l 226 1364 l 338 1364 z "},"Ï":{"ha":560,"x_min":24,"x_max":536,"o":"m 204 946 l 75 963 l 75 1032 l 483 1032 l 483 963 l 354 946 l 354 82 l 483 67 l 483 0 l 76 0 l 76 68 l 204 82 l 204 946 m 100 1138 q 44 1163 65 1138 q 24 1225 24 1189 q 47 1299 24 1269 q 114 1328 69 1328 l 115 1328 q 176 1301 154 1328 q 199 1239 199 1275 q 174 1166 199 1194 q 101 1138 149 1138 l 100 1138 m 440 1138 q 384 1163 406 1138 q 363 1225 363 1189 q 386 1298 363 1268 q 453 1328 410 1328 l 454 1328 q 515 1301 493 1328 q 536 1239 536 1275 q 512 1166 536 1194 q 440 1138 488 1138 z "},"İ":{"ha":560,"x_min":75,"x_max":483,"o":"m 204 946 l 75 963 l 75 1032 l 483 1032 l 483 963 l 354 946 l 354 82 l 483 67 l 483 0 l 76 0 l 76 68 l 204 82 l 204 946 m 272 1151 q 212 1176 235 1151 q 189 1238 189 1200 q 214 1309 189 1281 q 285 1338 239 1338 q 349 1312 325 1338 q 372 1250 372 1286 q 347 1179 372 1207 q 272 1151 321 1151 z "},"Ị":{"ha":560,"x_min":75,"x_max":483,"o":"m 204 946 l 75 963 l 75 1032 l 483 1032 l 483 963 l 354 946 l 354 82 l 483 67 l 483 0 l 76 0 l 76 68 l 204 82 l 204 946 m 271 -283 q 210 -258 233 -283 q 188 -193 188 -232 q 213 -118 188 -149 q 285 -87 239 -87 q 350 -114 326 -87 q 374 -178 374 -140 q 347 -253 374 -224 q 272 -283 321 -283 l 271 -283 z "},"Ì":{"ha":560,"x_min":75,"x_max":483,"o":"m 204 946 l 75 963 l 75 1032 l 483 1032 l 483 963 l 354 946 l 354 82 l 483 67 l 483 0 l 76 0 l 76 68 l 204 82 l 204 946 m 315 1110 q 191 1190 263 1135 q 83 1292 119 1244 l 194 1363 l 382 1151 l 315 1110 z "},"Ỉ":{"ha":560,"x_min":75,"x_max":483,"o":"m 204 946 l 75 963 l 75 1032 l 483 1032 l 483 963 l 354 946 l 354 82 l 483 67 l 483 0 l 76 0 l 76 68 l 204 82 l 204 946 m 254 1078 q 238 1104 244 1088 q 232 1139 232 1121 q 241 1160 232 1151 q 268 1179 250 1168 q 301 1202 290 1192 q 311 1229 311 1213 q 233 1279 311 1279 q 171 1265 196 1279 l 168 1344 q 214 1359 186 1353 q 265 1365 242 1365 q 424 1249 424 1365 q 408 1199 424 1217 q 360 1161 392 1181 l 329 1140 q 311 1100 311 1126 q 315 1078 311 1089 l 254 1078 z "},"Ī":{"ha":560,"x_min":75,"x_max":486,"o":"m 204 946 l 75 963 l 75 1032 l 483 1032 l 483 963 l 354 946 l 354 82 l 483 67 l 483 0 l 76 0 l 76 68 l 204 82 l 204 946 m 486 1185 l 75 1185 l 75 1285 l 486 1285 l 486 1185 z "},"Į":{"ha":560,"x_min":76,"x_max":485,"o":"m 204 946 l 76 963 l 76 1032 l 485 1032 l 485 963 l 354 946 l 354 82 l 485 67 l 485 0 l 417 0 q 307 -78 353 -28 q 261 -171 261 -129 q 290 -235 261 -214 q 368 -256 319 -256 q 468 -231 418 -256 l 468 -300 q 396 -333 440 -321 q 307 -346 351 -346 q 181 -313 231 -346 q 131 -214 131 -281 q 187 -96 131 -158 q 318 0 243 -33 l 76 0 l 76 68 l 204 82 l 204 946 z "},"Ĩ":{"ha":560,"x_min":31,"x_max":538,"o":"m 204 946 l 75 963 l 75 1032 l 483 1032 l 483 963 l 354 946 l 354 82 l 483 67 l 483 0 l 76 0 l 76 68 l 204 82 l 204 946 m 386 1132 q 319 1147 346 1132 q 258 1189 293 1161 q 217 1220 235 1210 q 179 1231 200 1231 q 127 1209 144 1231 q 96 1149 110 1188 l 31 1186 q 89 1288 50 1249 q 188 1326 128 1326 q 258 1311 231 1326 q 318 1265 285 1296 q 357 1235 342 1244 q 390 1225 372 1225 q 440 1249 421 1225 q 472 1310 458 1272 l 538 1272 q 482 1169 517 1207 q 386 1132 447 1132 z "},"J":{"ha":529,"x_min":-8,"x_max":476,"o":"m -8 -190 q 101 -126 53 -172 q 172 -11 150 -79 q 196 112 190 42 q 201 328 201 182 l 201 944 l 68 963 l 68 1032 l 476 1032 l 476 963 l 350 944 l 350 382 l 350 317 q 347 140 350 207 q 335 26 344 74 q 225 -157 310 -85 q 29 -249 140 -229 l -8 -190 z "},"Ĵ":{"ha":529,"x_min":-8,"x_max":515,"o":"m -8 -190 q 101 -126 53 -172 q 172 -11 150 -79 q 196 112 190 42 q 201 328 201 182 l 201 944 l 68 963 l 68 1032 l 476 1032 l 476 963 l 350 944 l 350 382 l 350 317 q 347 140 350 207 q 335 26 344 74 q 225 -157 310 -85 q 29 -249 140 -229 l -8 -190 m 328 1364 l 515 1164 l 458 1124 l 272 1267 l 83 1124 l 29 1163 l 217 1364 l 328 1364 z "},"K":{"ha":1008,"x_min":67,"x_max":1010,"o":"m 811 0 q 751 56 788 0 q 646 233 714 113 q 599 316 638 249 q 528 432 561 383 q 471 508 496 481 l 331 350 l 331 82 l 457 68 l 457 0 l 67 0 l 67 68 l 182 82 l 182 946 l 68 963 l 68 1032 l 446 1032 l 446 963 l 331 946 l 331 460 l 739 946 l 622 963 l 622 1032 l 965 1032 l 965 963 l 858 946 l 558 610 q 662 489 607 568 q 796 285 717 410 q 895 133 864 178 q 944 83 926 88 l 1010 68 l 1010 0 l 811 0 z "},"Ķ":{"ha":1008,"x_min":67,"x_max":1010,"o":"m 811 0 q 751 56 788 0 q 646 233 714 113 q 599 316 638 249 q 528 432 561 383 q 471 508 496 481 l 331 350 l 331 82 l 457 68 l 457 0 l 67 0 l 67 68 l 182 82 l 182 946 l 68 963 l 68 1032 l 446 1032 l 446 963 l 331 946 l 331 460 l 739 946 l 622 963 l 622 1032 l 965 1032 l 965 963 l 858 946 l 558 610 q 662 489 607 568 q 796 285 717 410 q 895 133 864 178 q 944 83 926 88 l 1010 68 l 1010 0 l 811 0 m 646 -187 q 625 -279 646 -237 q 578 -347 604 -321 q 538 -378 551 -374 l 536 -378 l 489 -353 l 488 -344 q 519 -307 507 -335 q 532 -249 532 -279 q 524 -219 532 -231 q 503 -199 517 -208 q 475 -143 475 -179 q 499 -92 475 -107 q 549 -76 522 -76 l 554 -76 q 621 -106 596 -76 q 646 -187 646 -135 z "},"L":{"ha":881,"x_min":67,"x_max":856,"o":"m 182 946 l 69 963 l 69 1032 l 468 1032 l 468 963 l 331 946 l 331 82 l 689 94 l 771 328 l 856 315 l 807 0 l 67 0 l 67 68 l 182 82 l 182 946 z "},"Ǉ":{"ha":1410,"x_min":67,"x_max":1357,"o":"m 182 946 l 69 963 l 69 1032 l 468 1032 l 468 963 l 331 946 l 331 82 l 689 94 l 771 328 l 856 315 l 807 0 l 67 0 l 67 68 l 182 82 l 182 946 m 872 -190 q 982 -126 933 -172 q 1053 -11 1031 -79 q 1076 112 1071 42 q 1082 328 1082 182 l 1082 944 l 949 963 l 949 1032 l 1357 1032 l 1357 963 l 1231 944 l 1231 382 l 1231 317 q 1228 140 1231 207 q 1215 26 1225 74 q 1106 -157 1190 -85 q 910 -249 1021 -229 l 872 -190 z "},"Ĺ":{"ha":881,"x_min":67,"x_max":856,"o":"m 182 946 l 69 963 l 69 1032 l 468 1032 l 468 963 l 331 946 l 331 82 l 689 94 l 771 328 l 856 315 l 807 0 l 67 0 l 67 68 l 182 82 l 182 946 m 156 1151 l 342 1363 l 454 1292 q 347 1189 415 1243 q 225 1110 278 1135 l 156 1151 z "},"Ľ":{"ha":881,"x_min":67,"x_max":856,"o":"m 182 946 l 69 963 l 69 1032 l 468 1032 l 468 963 l 331 946 l 331 82 l 689 94 l 771 328 l 856 315 l 807 0 l 67 0 l 67 68 l 182 82 l 182 946 m 639 833 l 635 844 q 643 983 643 899 q 628 1106 643 1071 l 635 1131 l 754 1131 q 767 1028 767 1094 q 753 926 767 988 q 722 833 740 865 l 639 833 z "},"Ļ":{"ha":881,"x_min":67,"x_max":856,"o":"m 182 946 l 69 963 l 69 1032 l 468 1032 l 468 963 l 331 946 l 331 82 l 689 94 l 771 328 l 856 315 l 807 0 l 67 0 l 67 68 l 182 82 l 182 946 m 542 -187 q 521 -279 542 -237 q 474 -347 500 -321 q 433 -378 447 -374 l 432 -378 l 385 -353 l 383 -344 q 415 -307 403 -335 q 428 -249 428 -279 q 420 -219 428 -231 q 399 -199 413 -208 q 371 -143 371 -179 q 394 -92 371 -107 q 444 -76 418 -76 l 450 -76 q 517 -106 492 -76 q 542 -187 542 -135 z "},"Ŀ":{"ha":997,"x_min":67,"x_max":960,"o":"m 182 946 l 69 963 l 69 1032 l 468 1032 l 468 963 l 331 946 l 331 82 l 689 94 l 771 328 l 856 315 l 807 0 l 67 0 l 67 68 l 182 82 l 182 946 m 856 463 q 794 488 819 463 q 768 551 768 513 q 799 624 768 594 q 872 653 829 653 q 937 627 914 653 q 960 564 960 601 q 930 491 960 519 q 856 463 900 463 z "},"Ḷ":{"ha":881,"x_min":67,"x_max":856,"o":"m 182 946 l 69 963 l 69 1032 l 468 1032 l 468 963 l 331 946 l 331 82 l 689 94 l 771 328 l 856 315 l 807 0 l 67 0 l 67 68 l 182 82 l 182 946 m 436 -283 q 376 -258 399 -283 q 353 -193 353 -232 q 378 -118 353 -149 q 450 -87 404 -87 q 515 -114 492 -87 q 539 -178 539 -140 q 513 -253 539 -224 q 438 -283 486 -283 l 436 -283 z "},"ǈ":{"ha":1321,"x_min":67,"x_max":1211,"o":"m 182 946 l 69 963 l 69 1032 l 468 1032 l 468 963 l 331 946 l 331 82 l 689 94 l 771 328 l 856 315 l 807 0 l 67 0 l 67 68 l 182 82 l 182 946 m 1106 910 q 1040 935 1063 910 q 1018 999 1018 960 q 1045 1072 1018 1043 q 1119 1101 1072 1101 q 1189 1076 1167 1101 q 1211 1013 1211 1051 q 1184 938 1211 965 q 1107 910 1157 910 l 1106 910 m 939 763 l 1154 789 l 1157 789 l 1188 764 l 1188 10 q 1154 -184 1188 -106 q 1064 -300 1121 -262 q 936 -337 1007 -337 q 872 -332 882 -337 l 865 -267 q 898 -264 876 -268 q 942 -251 919 -260 q 1022 -158 999 -232 q 1044 42 1044 -83 l 1044 660 l 939 685 l 939 763 z "},"Ł":{"ha":881,"x_min":33,"x_max":856,"o":"m 182 946 l 69 963 l 69 1032 l 468 1032 l 468 963 l 331 946 l 331 651 l 606 772 l 606 689 l 331 569 l 331 82 l 689 94 l 771 328 l 856 315 l 807 0 l 67 0 l 67 68 l 182 82 l 182 510 l 33 447 l 33 526 l 182 590 l 182 946 z "},"M":{"ha":1375,"x_min":8,"x_max":1367,"o":"m 228 946 l 76 963 l 76 1032 l 444 1032 l 640 407 l 686 231 l 728 407 l 922 1032 l 1288 1032 l 1288 963 l 1135 946 l 1246 83 l 1367 68 l 1367 0 l 967 0 l 967 68 l 1093 82 l 1031 706 l 1001 974 l 943 774 l 711 47 l 621 47 l 396 713 l 314 975 l 289 706 l 233 82 l 371 68 l 371 0 l 8 0 l 8 68 l 126 82 l 228 946 z "},"Ḿ":{"ha":1375,"x_min":8,"x_max":1367,"o":"m 228 946 l 76 963 l 76 1032 l 444 1032 l 640 407 l 686 231 l 728 407 l 922 1032 l 1288 1032 l 1288 963 l 1135 946 l 1246 83 l 1367 68 l 1367 0 l 967 0 l 967 68 l 1093 82 l 1031 706 l 1001 974 l 943 774 l 711 47 l 621 47 l 396 713 l 314 975 l 289 706 l 233 82 l 371 68 l 371 0 l 8 0 l 8 68 l 126 82 l 228 946 m 592 1151 l 778 1363 l 890 1292 q 783 1189 851 1243 q 661 1110 714 1135 l 592 1151 z "},"Ṁ":{"ha":1375,"x_min":8,"x_max":1367,"o":"m 228 946 l 76 963 l 76 1032 l 444 1032 l 640 407 l 686 231 l 728 407 l 922 1032 l 1288 1032 l 1288 963 l 1135 946 l 1246 83 l 1367 68 l 1367 0 l 967 0 l 967 68 l 1093 82 l 1031 706 l 1001 974 l 943 774 l 711 47 l 621 47 l 396 713 l 314 975 l 289 706 l 233 82 l 371 68 l 371 0 l 8 0 l 8 68 l 126 82 l 228 946 m 688 1151 q 627 1176 650 1151 q 604 1238 604 1200 q 629 1309 604 1281 q 700 1338 654 1338 q 764 1312 740 1338 q 788 1250 788 1286 q 762 1179 788 1207 q 688 1151 736 1151 z "},"N":{"ha":1110,"x_min":69,"x_max":1075,"o":"m 181 946 l 69 963 l 69 1032 l 328 1032 l 790 354 l 868 207 l 868 946 l 747 963 l 747 1032 l 1075 1032 l 1075 963 l 964 946 l 964 0 l 854 0 l 382 693 l 275 876 l 275 82 l 407 68 l 407 0 l 69 0 l 69 68 l 181 83 l 181 946 z "},"Ǌ":{"ha":1639,"x_min":69,"x_max":1586,"o":"m 181 946 l 69 963 l 69 1032 l 328 1032 l 790 354 l 868 207 l 868 946 l 747 963 l 747 1032 l 1075 1032 l 1075 963 l 964 946 l 964 0 l 854 0 l 382 693 l 275 876 l 275 82 l 407 68 l 407 0 l 69 0 l 69 68 l 181 83 l 181 946 m 1101 -190 q 1211 -126 1163 -172 q 1282 -11 1260 -79 q 1306 112 1300 42 q 1311 328 1311 182 l 1311 944 l 1178 963 l 1178 1032 l 1586 1032 l 1586 963 l 1460 944 l 1460 382 l 1460 317 q 1457 140 1460 207 q 1444 26 1454 74 q 1335 -157 1419 -85 q 1139 -249 1250 -229 l 1101 -190 z "},"Ń":{"ha":1110,"x_min":69,"x_max":1075,"o":"m 181 946 l 69 963 l 69 1032 l 328 1032 l 790 354 l 868 207 l 868 946 l 747 963 l 747 1032 l 1075 1032 l 1075 963 l 964 946 l 964 0 l 854 0 l 382 693 l 275 876 l 275 82 l 407 68 l 407 0 l 69 0 l 69 68 l 181 83 l 181 946 m 468 1151 l 654 1363 l 767 1292 q 659 1189 728 1243 q 538 1110 590 1135 l 468 1151 z "},"Ň":{"ha":1110,"x_min":69,"x_max":1075,"o":"m 181 946 l 69 963 l 69 1032 l 328 1032 l 790 354 l 868 207 l 868 946 l 747 963 l 747 1032 l 1075 1032 l 1075 963 l 964 946 l 964 0 l 854 0 l 382 693 l 275 876 l 275 82 l 407 68 l 407 0 l 69 0 l 69 68 l 181 83 l 181 946 m 574 1229 l 750 1364 l 804 1326 l 631 1136 l 517 1136 l 340 1325 l 399 1364 l 574 1229 z "},"Ņ":{"ha":1110,"x_min":69,"x_max":1075,"o":"m 181 946 l 69 963 l 69 1032 l 328 1032 l 790 354 l 868 207 l 868 946 l 747 963 l 747 1032 l 1075 1032 l 1075 963 l 964 946 l 964 0 l 854 0 l 382 693 l 275 876 l 275 82 l 407 68 l 407 0 l 69 0 l 69 68 l 181 83 l 181 946 m 651 -187 q 631 -279 651 -237 q 583 -347 610 -321 q 543 -378 557 -374 l 542 -378 l 494 -353 l 493 -344 q 525 -307 513 -335 q 538 -249 538 -279 q 530 -219 538 -231 q 508 -199 522 -208 q 481 -143 481 -179 q 504 -92 481 -107 q 554 -76 528 -76 l 560 -76 q 626 -106 601 -76 q 651 -187 651 -135 z "},"Ṅ":{"ha":1110,"x_min":69,"x_max":1075,"o":"m 181 946 l 69 963 l 69 1032 l 328 1032 l 790 354 l 868 207 l 868 946 l 747 963 l 747 1032 l 1075 1032 l 1075 963 l 964 946 l 964 0 l 854 0 l 382 693 l 275 876 l 275 82 l 407 68 l 407 0 l 69 0 l 69 68 l 181 83 l 181 946 m 564 1151 q 503 1176 526 1151 q 481 1238 481 1200 q 506 1309 481 1281 q 576 1338 531 1338 q 640 1312 617 1338 q 664 1250 664 1286 q 638 1179 664 1207 q 564 1151 613 1151 z "},"Ṇ":{"ha":1110,"x_min":69,"x_max":1075,"o":"m 181 946 l 69 963 l 69 1032 l 328 1032 l 790 354 l 868 207 l 868 946 l 747 963 l 747 1032 l 1075 1032 l 1075 963 l 964 946 l 964 0 l 854 0 l 382 693 l 275 876 l 275 82 l 407 68 l 407 0 l 69 0 l 69 68 l 181 83 l 181 946 m 546 -283 q 485 -258 508 -283 q 463 -193 463 -232 q 488 -118 463 -149 q 560 -87 514 -87 q 625 -114 601 -87 q 649 -178 649 -140 q 622 -253 649 -224 q 547 -283 596 -283 l 546 -283 z "},"Ŋ":{"ha":1094,"x_min":69,"x_max":1078,"o":"m 183 949 l 69 967 l 69 1032 l 332 1032 l 768 353 l 871 167 l 871 946 l 750 964 l 750 1032 l 1078 1032 l 1078 964 l 965 946 l 965 247 q 939 10 965 90 q 865 -122 913 -69 q 749 -213 810 -183 q 615 -251 688 -243 l 581 -196 q 782 -58 715 -158 q 819 13 807 -24 l 375 699 l 278 879 l 278 82 l 406 67 l 406 0 l 69 0 l 69 67 l 183 82 l 183 949 z "},"ǋ":{"ha":1550,"x_min":69,"x_max":1440,"o":"m 181 946 l 69 963 l 69 1032 l 328 1032 l 790 354 l 868 207 l 868 946 l 747 963 l 747 1032 l 1075 1032 l 1075 963 l 964 946 l 964 0 l 854 0 l 382 693 l 275 876 l 275 82 l 407 68 l 407 0 l 69 0 l 69 68 l 181 83 l 181 946 m 1335 910 q 1269 935 1292 910 q 1247 999 1247 960 q 1274 1072 1247 1043 q 1349 1101 1301 1101 q 1418 1076 1396 1101 q 1440 1013 1440 1051 q 1413 938 1440 965 q 1336 910 1386 910 l 1335 910 m 1168 763 l 1383 789 l 1386 789 l 1417 764 l 1417 10 q 1383 -184 1417 -106 q 1293 -300 1350 -262 q 1165 -337 1236 -337 q 1101 -332 1111 -337 l 1094 -267 q 1127 -264 1106 -268 q 1171 -251 1149 -260 q 1251 -158 1228 -232 q 1274 42 1274 -83 l 1274 660 l 1168 685 l 1168 763 z "},"Ñ":{"ha":1110,"x_min":69,"x_max":1075,"o":"m 181 946 l 69 963 l 69 1032 l 328 1032 l 790 354 l 868 207 l 868 946 l 747 963 l 747 1032 l 1075 1032 l 1075 963 l 964 946 l 964 0 l 854 0 l 382 693 l 275 876 l 275 82 l 407 68 l 407 0 l 69 0 l 69 68 l 181 83 l 181 946 m 678 1132 q 611 1147 638 1132 q 550 1189 585 1161 q 509 1220 526 1210 q 471 1231 492 1231 q 419 1209 436 1231 q 388 1149 401 1188 l 322 1186 q 381 1288 342 1249 q 479 1326 419 1326 q 549 1311 522 1326 q 610 1265 576 1296 q 649 1235 633 1244 q 682 1225 664 1225 q 731 1249 713 1225 q 764 1310 750 1272 l 829 1272 q 774 1169 808 1207 q 678 1132 739 1132 z "},"O":{"ha":1003,"x_min":47,"x_max":957,"o":"m 485 -15 q 245 50 343 -15 q 97 234 147 115 q 47 510 47 353 q 108 790 47 669 q 274 977 168 911 q 511 1043 379 1043 q 842 906 728 1043 q 957 528 957 769 q 895 242 957 365 q 726 52 833 119 q 485 -15 618 -15 m 503 971 q 290 853 368 971 q 213 510 213 736 q 288 180 213 301 q 500 58 364 58 q 712 179 633 58 q 790 526 790 300 q 715 853 790 736 q 503 971 640 971 z "},"Ó":{"ha":1003,"x_min":47,"x_max":957,"o":"m 485 -15 q 245 50 343 -15 q 97 234 147 115 q 47 510 47 353 q 108 790 47 669 q 274 977 168 911 q 511 1043 379 1043 q 842 906 728 1043 q 957 528 957 769 q 895 242 957 365 q 726 52 833 119 q 485 -15 618 -15 m 503 971 q 290 853 368 971 q 213 510 213 736 q 288 180 213 301 q 500 58 364 58 q 712 179 633 58 q 790 526 790 300 q 715 853 790 736 q 503 971 640 971 m 400 1151 l 586 1363 l 699 1292 q 591 1189 660 1243 q 469 1110 522 1135 l 400 1151 z "},"Ŏ":{"ha":1003,"x_min":47,"x_max":957,"o":"m 485 -15 q 245 50 343 -15 q 97 234 147 115 q 47 510 47 353 q 108 790 47 669 q 274 977 168 911 q 511 1043 379 1043 q 842 906 728 1043 q 957 528 957 769 q 895 242 957 365 q 726 52 833 119 q 485 -15 618 -15 m 503 971 q 290 853 368 971 q 213 510 213 736 q 288 180 213 301 q 500 58 364 58 q 712 179 633 58 q 790 526 790 300 q 715 853 790 736 q 503 971 640 971 m 504 1117 q 331 1176 393 1117 q 268 1326 268 1236 q 269 1354 268 1344 l 347 1354 q 349 1336 347 1344 q 392 1256 357 1290 q 504 1222 428 1222 q 663 1338 639 1222 l 664 1354 l 739 1354 q 740 1328 740 1344 q 711 1221 740 1269 q 628 1144 682 1172 q 504 1117 575 1117 z "},"Ǒ":{"ha":1003,"x_min":47,"x_max":957,"o":"m 485 -15 q 245 50 343 -15 q 97 234 147 115 q 47 510 47 353 q 108 790 47 669 q 274 977 168 911 q 511 1043 379 1043 q 842 906 728 1043 q 957 528 957 769 q 895 242 957 365 q 726 52 833 119 q 485 -15 618 -15 m 503 971 q 290 853 368 971 q 213 510 213 736 q 288 180 213 301 q 500 58 364 58 q 712 179 633 58 q 790 526 790 300 q 715 853 790 736 q 503 971 640 971 m 506 1229 l 682 1364 l 736 1326 l 563 1136 l 449 1136 l 272 1325 l 331 1364 l 506 1229 z "},"Ô":{"ha":1003,"x_min":47,"x_max":957,"o":"m 485 -15 q 245 50 343 -15 q 97 234 147 115 q 47 510 47 353 q 108 790 47 669 q 274 977 168 911 q 511 1043 379 1043 q 842 906 728 1043 q 957 528 957 769 q 895 242 957 365 q 726 52 833 119 q 485 -15 618 -15 m 503 971 q 290 853 368 971 q 213 510 213 736 q 288 180 213 301 q 500 58 364 58 q 712 179 633 58 q 790 526 790 300 q 715 853 790 736 q 503 971 640 971 m 561 1364 l 749 1164 l 692 1124 l 506 1267 l 317 1124 l 263 1163 l 450 1364 l 561 1364 z "},"Ố":{"ha":1003,"x_min":47,"x_max":957,"o":"m 485 -15 q 245 50 343 -15 q 97 234 147 115 q 47 510 47 353 q 108 790 47 669 q 274 977 168 911 q 511 1043 379 1043 q 842 906 728 1043 q 957 528 957 769 q 895 242 957 365 q 726 52 833 119 q 485 -15 618 -15 m 503 971 q 290 853 368 971 q 213 510 213 736 q 288 180 213 301 q 500 58 364 58 q 712 179 633 58 q 790 526 790 300 q 715 853 790 736 q 503 971 640 971 m 726 1224 l 857 1365 l 936 1300 q 875 1235 915 1269 q 781 1171 835 1201 l 726 1224 m 563 1315 l 731 1131 l 682 1083 l 504 1217 l 326 1082 l 276 1131 l 446 1315 l 563 1315 z "},"Ộ":{"ha":1003,"x_min":47,"x_max":957,"o":"m 485 -15 q 245 50 343 -15 q 97 234 147 115 q 47 510 47 353 q 108 790 47 669 q 274 977 168 911 q 511 1043 379 1043 q 842 906 728 1043 q 957 528 957 769 q 895 242 957 365 q 726 52 833 119 q 485 -15 618 -15 m 503 971 q 290 853 368 971 q 213 510 213 736 q 288 180 213 301 q 500 58 364 58 q 712 179 633 58 q 790 526 790 300 q 715 853 790 736 q 503 971 640 971 m 493 -283 q 433 -258 456 -283 q 410 -193 410 -232 q 435 -118 410 -149 q 507 -87 461 -87 q 572 -114 549 -87 q 596 -178 596 -140 q 569 -253 596 -224 q 494 -283 543 -283 l 493 -283 m 561 1364 l 749 1164 l 692 1124 l 506 1267 l 317 1124 l 263 1163 l 450 1364 l 561 1364 z "},"Ồ":{"ha":1003,"x_min":47,"x_max":957,"o":"m 485 -15 q 245 50 343 -15 q 97 234 147 115 q 47 510 47 353 q 108 790 47 669 q 274 977 168 911 q 511 1043 379 1043 q 842 906 728 1043 q 957 528 957 769 q 895 242 957 365 q 726 52 833 119 q 485 -15 618 -15 m 503 971 q 290 853 368 971 q 213 510 213 736 q 288 180 213 301 q 500 58 364 58 q 712 179 633 58 q 790 526 790 300 q 715 853 790 736 q 503 971 640 971 m 865 1171 q 771 1235 811 1201 q 710 1300 731 1269 l 789 1365 l 921 1224 l 865 1171 m 563 1307 l 731 1129 l 682 1081 l 504 1210 l 326 1081 l 276 1129 l 446 1307 l 563 1307 z "},"Ổ":{"ha":1003,"x_min":47,"x_max":957,"o":"m 485 -15 q 245 50 343 -15 q 97 234 147 115 q 47 510 47 353 q 108 790 47 669 q 274 977 168 911 q 511 1043 379 1043 q 842 906 728 1043 q 957 528 957 769 q 895 242 957 365 q 726 52 833 119 q 485 -15 618 -15 m 503 971 q 290 853 368 971 q 213 510 213 736 q 288 180 213 301 q 500 58 364 58 q 712 179 633 58 q 790 526 790 300 q 715 853 790 736 q 503 971 640 971 m 792 1082 q 769 1133 769 1113 q 779 1164 769 1153 q 810 1188 789 1175 q 839 1208 829 1199 q 849 1236 849 1218 q 835 1273 849 1256 q 789 1293 821 1290 q 760 1290 778 1294 q 733 1281 742 1285 l 729 1356 q 754 1363 732 1360 q 792 1365 776 1365 q 900 1338 861 1365 q 939 1251 939 1310 q 924 1200 939 1219 q 879 1160 908 1181 q 849 1135 857 1143 q 836 1107 836 1122 q 839 1092 836 1103 l 792 1082 m 563 1307 l 731 1129 l 682 1081 l 504 1210 l 326 1081 l 276 1129 l 446 1307 l 563 1307 z "},"Ỗ":{"ha":1003,"x_min":47,"x_max":957,"o":"m 485 -15 q 245 50 343 -15 q 97 234 147 115 q 47 510 47 353 q 108 790 47 669 q 274 977 168 911 q 511 1043 379 1043 q 842 906 728 1043 q 957 528 957 769 q 895 242 957 365 q 726 52 833 119 q 485 -15 618 -15 m 503 971 q 290 853 368 971 q 213 510 213 736 q 288 180 213 301 q 500 58 364 58 q 712 179 633 58 q 790 526 790 300 q 715 853 790 736 q 503 971 640 971 m 301 1350 q 319 1402 303 1375 q 364 1447 335 1429 q 432 1465 393 1465 q 484 1453 461 1465 q 542 1418 507 1442 q 585 1390 571 1399 q 618 1382 600 1382 q 665 1393 650 1382 q 701 1433 681 1404 l 749 1400 q 702 1324 740 1354 q 611 1294 664 1294 q 565 1305 586 1294 q 510 1338 544 1315 q 463 1365 482 1356 q 426 1374 444 1374 q 385 1359 403 1374 q 347 1318 367 1344 l 301 1350 m 560 1261 l 754 1133 l 706 1081 l 504 1174 l 299 1081 l 254 1133 l 446 1261 l 560 1261 z "},"Ö":{"ha":1003,"x_min":47,"x_max":957,"o":"m 485 -15 q 245 50 343 -15 q 97 234 147 115 q 47 510 47 353 q 108 790 47 669 q 274 977 168 911 q 511 1043 379 1043 q 842 906 728 1043 q 957 528 957 769 q 895 242 957 365 q 726 52 833 119 q 485 -15 618 -15 m 503 971 q 290 853 368 971 q 213 510 213 736 q 288 180 213 301 q 500 58 364 58 q 712 179 633 58 q 790 526 790 300 q 715 853 790 736 q 503 971 640 971 m 324 1138 q 268 1163 289 1138 q 247 1225 247 1189 q 270 1299 247 1269 q 338 1328 293 1328 l 339 1328 q 400 1301 378 1328 q 422 1239 422 1275 q 397 1166 422 1194 q 325 1138 372 1138 l 324 1138 m 664 1138 q 608 1163 629 1138 q 586 1225 586 1189 q 610 1298 586 1268 q 676 1328 633 1328 l 678 1328 q 738 1301 717 1328 q 760 1239 760 1275 q 735 1166 760 1194 q 664 1138 711 1138 z "},"Ọ":{"ha":1003,"x_min":47,"x_max":957,"o":"m 485 -15 q 245 50 343 -15 q 97 234 147 115 q 47 510 47 353 q 108 790 47 669 q 274 977 168 911 q 511 1043 379 1043 q 842 906 728 1043 q 957 528 957 769 q 895 242 957 365 q 726 52 833 119 q 485 -15 618 -15 m 503 971 q 290 853 368 971 q 213 510 213 736 q 288 180 213 301 q 500 58 364 58 q 712 179 633 58 q 790 526 790 300 q 715 853 790 736 q 503 971 640 971 m 493 -283 q 433 -258 456 -283 q 410 -193 410 -232 q 435 -118 410 -149 q 507 -87 461 -87 q 572 -114 549 -87 q 596 -178 596 -140 q 569 -253 596 -224 q 494 -283 543 -283 l 493 -283 z "},"Ò":{"ha":1003,"x_min":47,"x_max":957,"o":"m 485 -15 q 245 50 343 -15 q 97 234 147 115 q 47 510 47 353 q 108 790 47 669 q 274 977 168 911 q 511 1043 379 1043 q 842 906 728 1043 q 957 528 957 769 q 895 242 957 365 q 726 52 833 119 q 485 -15 618 -15 m 503 971 q 290 853 368 971 q 213 510 213 736 q 288 180 213 301 q 500 58 364 58 q 712 179 633 58 q 790 526 790 300 q 715 853 790 736 q 503 971 640 971 m 539 1110 q 415 1190 486 1135 q 307 1292 343 1244 l 418 1363 l 606 1151 l 539 1110 z "},"Ỏ":{"ha":1003,"x_min":47,"x_max":957,"o":"m 485 -15 q 245 50 343 -15 q 97 234 147 115 q 47 510 47 353 q 108 790 47 669 q 274 977 168 911 q 511 1043 379 1043 q 842 906 728 1043 q 957 528 957 769 q 895 242 957 365 q 726 52 833 119 q 485 -15 618 -15 m 503 971 q 290 853 368 971 q 213 510 213 736 q 288 180 213 301 q 500 58 364 58 q 712 179 633 58 q 790 526 790 300 q 715 853 790 736 q 503 971 640 971 m 478 1078 q 462 1104 468 1088 q 456 1139 456 1121 q 465 1160 456 1151 q 492 1179 474 1168 q 524 1202 514 1192 q 535 1229 535 1213 q 457 1279 535 1279 q 394 1265 419 1279 l 392 1344 q 438 1359 410 1353 q 489 1365 465 1365 q 647 1249 647 1365 q 631 1199 647 1217 q 583 1161 615 1181 l 553 1140 q 535 1100 535 1126 q 539 1078 535 1089 l 478 1078 z "},"Ơ":{"ha":1003,"x_min":47,"x_max":1015,"o":"m 1015 1171 q 963 1014 1015 1078 q 822 929 911 950 q 923 760 889 863 q 957 528 957 658 q 895 242 957 365 q 726 52 833 119 q 485 -15 618 -15 q 245 50 343 -15 q 97 234 147 115 q 47 510 47 353 q 108 790 47 669 q 274 977 168 911 q 511 1043 379 1043 q 728 997 632 1043 q 821 1033 782 1003 q 879 1102 860 1063 q 899 1175 899 1142 q 897 1201 899 1194 l 1013 1201 q 1015 1171 1015 1179 m 500 58 q 712 179 633 58 q 790 526 790 300 q 715 853 790 736 q 503 971 640 971 q 290 853 368 971 q 213 510 213 736 q 288 180 213 301 q 500 58 364 58 z "},"Ớ":{"ha":1003,"x_min":47,"x_max":1015,"o":"m 1015 1171 q 963 1014 1015 1078 q 822 929 911 950 q 923 760 889 863 q 957 528 957 658 q 895 242 957 365 q 726 52 833 119 q 485 -15 618 -15 q 245 50 343 -15 q 97 234 147 115 q 47 510 47 353 q 108 790 47 669 q 274 977 168 911 q 511 1043 379 1043 q 728 997 632 1043 q 821 1033 782 1003 q 879 1102 860 1063 q 899 1175 899 1142 q 897 1201 899 1194 l 1013 1201 q 1015 1171 1015 1179 m 500 58 q 712 179 633 58 q 790 526 790 300 q 715 853 790 736 q 503 971 640 971 q 290 853 368 971 q 213 510 213 736 q 288 180 213 301 q 500 58 364 58 m 413 1151 l 599 1363 l 711 1292 q 603 1189 672 1243 q 482 1110 535 1135 l 413 1151 z "},"Ợ":{"ha":1003,"x_min":47,"x_max":1015,"o":"m 1015 1171 q 963 1014 1015 1078 q 822 929 911 950 q 923 760 889 863 q 957 528 957 658 q 895 242 957 365 q 726 52 833 119 q 485 -15 618 -15 q 245 50 343 -15 q 97 234 147 115 q 47 510 47 353 q 108 790 47 669 q 274 977 168 911 q 511 1043 379 1043 q 728 997 632 1043 q 821 1033 782 1003 q 879 1102 860 1063 q 899 1175 899 1142 q 897 1201 899 1194 l 1013 1201 q 1015 1171 1015 1179 m 500 58 q 712 179 633 58 q 790 526 790 300 q 715 853 790 736 q 503 971 640 971 q 290 853 368 971 q 213 510 213 736 q 288 180 213 301 q 500 58 364 58 m 493 -283 q 433 -258 456 -283 q 410 -193 410 -232 q 435 -118 410 -149 q 507 -87 461 -87 q 572 -114 549 -87 q 596 -178 596 -140 q 569 -253 596 -224 q 494 -283 543 -283 l 493 -283 z "},"Ờ":{"ha":1003,"x_min":47,"x_max":1015,"o":"m 1015 1171 q 963 1014 1015 1078 q 822 929 911 950 q 923 760 889 863 q 957 528 957 658 q 895 242 957 365 q 726 52 833 119 q 485 -15 618 -15 q 245 50 343 -15 q 97 234 147 115 q 47 510 47 353 q 108 790 47 669 q 274 977 168 911 q 511 1043 379 1043 q 728 997 632 1043 q 821 1033 782 1003 q 879 1102 860 1063 q 899 1175 899 1142 q 897 1201 899 1194 l 1013 1201 q 1015 1171 1015 1179 m 500 58 q 712 179 633 58 q 790 526 790 300 q 715 853 790 736 q 503 971 640 971 q 290 853 368 971 q 213 510 213 736 q 288 180 213 301 q 500 58 364 58 m 551 1110 q 427 1190 499 1135 q 319 1292 356 1244 l 431 1363 l 618 1151 l 551 1110 z "},"Ở":{"ha":1003,"x_min":47,"x_max":1015,"o":"m 1015 1171 q 963 1014 1015 1078 q 822 929 911 950 q 923 760 889 863 q 957 528 957 658 q 895 242 957 365 q 726 52 833 119 q 485 -15 618 -15 q 245 50 343 -15 q 97 234 147 115 q 47 510 47 353 q 108 790 47 669 q 274 977 168 911 q 511 1043 379 1043 q 728 997 632 1043 q 821 1033 782 1003 q 879 1102 860 1063 q 899 1175 899 1142 q 897 1201 899 1194 l 1013 1201 q 1015 1171 1015 1179 m 500 58 q 712 179 633 58 q 790 526 790 300 q 715 853 790 736 q 503 971 640 971 q 290 853 368 971 q 213 510 213 736 q 288 180 213 301 q 500 58 364 58 m 490 1078 q 474 1104 481 1088 q 468 1139 468 1121 q 477 1160 468 1151 q 504 1179 486 1168 q 537 1202 526 1192 q 547 1229 547 1213 q 469 1279 547 1279 q 407 1265 432 1279 l 404 1344 q 450 1359 422 1353 q 501 1365 478 1365 q 660 1249 660 1365 q 644 1199 660 1217 q 596 1161 628 1181 l 565 1140 q 547 1100 547 1126 q 551 1078 547 1089 l 490 1078 z "},"Ỡ":{"ha":1003,"x_min":47,"x_max":1015,"o":"m 1015 1171 q 963 1014 1015 1078 q 822 929 911 950 q 923 760 889 863 q 957 528 957 658 q 895 242 957 365 q 726 52 833 119 q 485 -15 618 -15 q 245 50 343 -15 q 97 234 147 115 q 47 510 47 353 q 108 790 47 669 q 274 977 168 911 q 511 1043 379 1043 q 728 997 632 1043 q 821 1033 782 1003 q 879 1102 860 1063 q 899 1175 899 1142 q 897 1201 899 1194 l 1013 1201 q 1015 1171 1015 1179 m 500 58 q 712 179 633 58 q 790 526 790 300 q 715 853 790 736 q 503 971 640 971 q 290 853 368 971 q 213 510 213 736 q 288 180 213 301 q 500 58 364 58 m 622 1132 q 556 1147 582 1132 q 494 1189 529 1161 q 453 1220 471 1210 q 415 1231 436 1231 q 363 1209 381 1231 q 332 1149 346 1188 l 267 1186 q 325 1288 286 1249 q 424 1326 364 1326 q 494 1311 467 1326 q 554 1265 521 1296 q 593 1235 578 1244 q 626 1225 608 1225 q 676 1249 657 1225 q 708 1310 694 1272 l 774 1272 q 718 1169 753 1207 q 622 1132 683 1132 z "},"Ő":{"ha":1003,"x_min":47,"x_max":957,"o":"m 485 -15 q 245 50 343 -15 q 97 234 147 115 q 47 510 47 353 q 108 790 47 669 q 274 977 168 911 q 511 1043 379 1043 q 842 906 728 1043 q 957 528 957 769 q 895 242 957 365 q 726 52 833 119 q 485 -15 618 -15 m 503 971 q 290 853 368 971 q 213 510 213 736 q 288 180 213 301 q 500 58 364 58 q 712 179 633 58 q 790 526 790 300 q 715 853 790 736 q 503 971 640 971 m 546 1293 q 445 1199 506 1246 q 328 1117 385 1151 l 269 1167 l 456 1364 l 546 1293 m 865 1289 q 765 1196 828 1243 q 643 1117 701 1149 l 585 1168 l 783 1363 l 865 1289 z "},"Ō":{"ha":1003,"x_min":47,"x_max":957,"o":"m 485 -15 q 245 50 343 -15 q 97 234 147 115 q 47 510 47 353 q 108 790 47 669 q 274 977 168 911 q 511 1043 379 1043 q 842 906 728 1043 q 957 528 957 769 q 895 242 957 365 q 726 52 833 119 q 485 -15 618 -15 m 503 971 q 290 853 368 971 q 213 510 213 736 q 288 180 213 301 q 500 58 364 58 q 712 179 633 58 q 790 526 790 300 q 715 853 790 736 q 503 971 640 971 m 710 1185 l 299 1185 l 299 1285 l 710 1285 l 710 1185 z "},"Ø":{"ha":1004,"x_min":47,"x_max":957,"o":"m 278 32 q 106 215 165 90 q 47 510 47 339 q 108 790 47 669 q 274 977 168 911 q 511 1043 379 1043 q 664 1022 593 1043 l 719 1165 l 785 1143 l 726 997 q 899 819 840 940 q 957 528 957 699 q 895 242 957 365 q 725 52 833 119 q 481 -15 617 -15 q 342 6 414 -15 l 279 -144 l 211 -122 l 278 32 m 504 971 q 291 854 369 971 q 213 510 213 738 q 242 292 213 388 q 329 143 272 197 l 629 936 q 504 971 575 971 m 792 526 q 762 740 792 647 q 675 889 732 833 l 375 96 q 501 58 429 58 q 654 111 589 58 q 756 269 719 164 q 792 526 792 375 z "},"Ǿ":{"ha":1004,"x_min":47,"x_max":957,"o":"m 278 32 q 106 215 165 90 q 47 510 47 339 q 108 790 47 669 q 274 977 168 911 q 511 1043 379 1043 q 664 1022 593 1043 l 719 1165 l 785 1143 l 726 997 q 899 819 840 940 q 957 528 957 699 q 895 242 957 365 q 725 52 833 119 q 481 -15 617 -15 q 342 6 414 -15 l 279 -144 l 211 -122 l 278 32 m 504 971 q 291 854 369 971 q 213 510 213 738 q 242 292 213 388 q 329 143 272 197 l 629 936 q 504 971 575 971 m 792 526 q 762 740 792 647 q 675 889 732 833 l 375 96 q 501 58 429 58 q 654 111 589 58 q 756 269 719 164 q 792 526 792 375 m 411 1151 l 597 1363 l 710 1292 q 602 1189 671 1243 q 481 1110 533 1135 l 411 1151 z "},"Õ":{"ha":1003,"x_min":47,"x_max":957,"o":"m 485 -15 q 245 50 343 -15 q 97 234 147 115 q 47 510 47 353 q 108 790 47 669 q 274 977 168 911 q 511 1043 379 1043 q 842 906 728 1043 q 957 528 957 769 q 895 242 957 365 q 726 52 833 119 q 485 -15 618 -15 m 503 971 q 290 853 368 971 q 213 510 213 736 q 288 180 213 301 q 500 58 364 58 q 712 179 633 58 q 790 526 790 300 q 715 853 790 736 q 503 971 640 971 m 610 1132 q 543 1147 569 1132 q 482 1189 517 1161 q 441 1220 458 1210 q 403 1231 424 1231 q 351 1209 368 1231 q 319 1149 333 1188 l 254 1186 q 313 1288 274 1249 q 411 1326 351 1326 q 481 1311 454 1326 q 542 1265 508 1296 q 581 1235 565 1244 q 614 1225 596 1225 q 663 1249 644 1225 q 696 1310 682 1272 l 761 1272 q 706 1169 740 1207 q 610 1132 671 1132 z "},"Œ":{"ha":1432,"x_min":47,"x_max":1401,"o":"m 692 40 q 489 -11 596 -11 q 249 54 349 -11 q 99 238 150 119 q 47 511 47 356 q 110 795 47 674 q 281 983 172 917 q 526 1049 390 1049 q 692 1014 615 1049 l 692 1032 l 1286 1032 l 1306 813 l 1226 813 l 1188 949 l 840 958 l 840 569 l 1074 574 l 1093 688 l 1172 688 l 1172 368 l 1093 368 l 1074 489 l 840 493 l 840 76 l 1238 92 l 1324 265 l 1401 243 l 1351 0 l 692 0 l 692 40 m 504 61 q 692 163 621 61 l 692 890 q 616 956 661 935 q 506 976 571 976 q 289 856 368 976 q 210 511 210 735 q 244 277 210 379 q 346 118 279 175 q 504 61 413 61 z "},"P":{"ha":901,"x_min":67,"x_max":867,"o":"m 182 946 l 74 963 l 74 1032 l 258 1032 q 357 1036 308 1032 q 499 1042 432 1042 q 783 967 700 1040 q 867 744 867 893 q 815 551 867 633 q 673 426 764 469 q 464 383 582 383 q 382 385 424 383 q 331 389 340 388 l 331 83 l 521 68 l 521 0 l 67 0 l 67 68 l 182 82 l 182 946 m 331 465 q 464 458 369 458 q 642 525 574 458 q 711 743 711 592 q 651 915 711 863 q 465 967 592 967 q 371 961 421 967 q 331 958 340 958 l 331 465 z "},"Ṗ":{"ha":901,"x_min":67,"x_max":867,"o":"m 182 946 l 74 963 l 74 1032 l 258 1032 q 357 1036 308 1032 q 499 1042 432 1042 q 783 967 700 1040 q 867 744 867 893 q 815 551 867 633 q 673 426 764 469 q 464 383 582 383 q 382 385 424 383 q 331 389 340 388 l 331 83 l 521 68 l 521 0 l 67 0 l 67 68 l 182 82 l 182 946 m 331 465 q 464 458 369 458 q 642 525 574 458 q 711 743 711 592 q 651 915 711 863 q 465 967 592 967 q 371 961 421 967 q 331 958 340 958 l 331 465 m 488 1151 q 427 1176 450 1151 q 404 1238 404 1200 q 429 1309 404 1281 q 500 1338 454 1338 q 564 1312 540 1338 q 588 1250 588 1286 q 562 1179 588 1207 q 488 1151 536 1151 z "},"Þ":{"ha":896,"x_min":63,"x_max":857,"o":"m 178 946 l 64 964 l 64 1033 l 447 1033 l 449 964 l 326 946 l 326 793 l 372 797 q 440 803 386 799 q 542 807 493 807 q 775 738 693 807 q 857 533 857 669 q 763 302 857 379 q 497 225 668 225 q 326 232 393 225 l 326 82 l 475 67 l 475 0 l 63 0 l 63 67 l 178 82 l 178 946 m 481 296 q 637 352 578 296 q 696 525 696 408 q 644 676 696 622 q 482 731 592 731 q 326 718 414 731 l 326 301 q 422 296 374 296 q 481 296 471 296 z "},"Q":{"ha":1010,"x_min":50,"x_max":1256,"o":"m 1124 -275 q 1006 -254 1061 -275 q 905 -203 950 -233 q 797 -125 860 -174 q 683 -43 729 -72 q 588 -4 636 -14 q 488 -15 536 -15 q 249 50 347 -15 q 100 234 150 115 q 50 510 50 353 q 110 790 50 669 q 276 977 171 911 q 515 1043 382 1043 q 846 906 732 1043 q 960 528 960 769 q 885 218 960 349 q 685 28 811 88 q 806 -3 747 22 q 943 -74 864 -28 q 1085 -143 1031 -121 q 1196 -165 1139 -165 q 1239 -162 1219 -165 l 1256 -222 q 1196 -262 1231 -249 q 1124 -275 1161 -275 m 503 58 q 715 178 638 58 q 793 526 793 299 q 718 853 793 736 q 507 971 643 971 q 294 854 372 971 q 215 510 215 738 q 291 180 215 301 q 503 58 367 58 z "},"R":{"ha":978,"x_min":64,"x_max":979,"o":"m 64 68 l 179 82 l 179 946 l 71 964 l 71 1032 l 253 1032 q 358 1038 292 1032 q 467 1043 428 1043 q 758 977 671 1043 q 844 769 844 911 q 790 589 844 671 q 639 478 735 507 q 722 397 683 454 q 815 236 760 339 q 881 122 858 158 q 925 82 904 86 l 979 68 l 979 0 l 788 0 q 738 48 765 0 q 664 196 710 96 q 577 370 614 306 q 504 453 540 435 q 328 454 356 453 l 328 82 l 465 68 l 465 0 l 64 0 l 64 68 m 493 528 q 633 586 582 528 q 685 760 685 644 q 633 915 685 861 q 453 968 581 968 q 364 963 408 968 q 328 960 336 960 l 328 529 q 414 528 349 528 l 493 528 z "},"Ŕ":{"ha":978,"x_min":64,"x_max":979,"o":"m 64 68 l 179 82 l 179 946 l 71 964 l 71 1032 l 253 1032 q 358 1038 292 1032 q 467 1043 428 1043 q 758 977 671 1043 q 844 769 844 911 q 790 589 844 671 q 639 478 735 507 q 722 397 683 454 q 815 236 760 339 q 881 122 858 158 q 925 82 904 86 l 979 68 l 979 0 l 788 0 q 738 48 765 0 q 664 196 710 96 q 577 370 614 306 q 504 453 540 435 q 328 454 356 453 l 328 82 l 465 68 l 465 0 l 64 0 l 64 68 m 493 528 q 633 586 582 528 q 685 760 685 644 q 633 915 685 861 q 453 968 581 968 q 364 963 408 968 q 328 960 336 960 l 328 529 q 414 528 349 528 l 493 528 m 385 1151 l 571 1363 l 683 1292 q 576 1189 644 1243 q 454 1110 507 1135 l 385 1151 z "},"Ř":{"ha":978,"x_min":64,"x_max":979,"o":"m 64 68 l 179 82 l 179 946 l 71 964 l 71 1032 l 253 1032 q 358 1038 292 1032 q 467 1043 428 1043 q 758 977 671 1043 q 844 769 844 911 q 790 589 844 671 q 639 478 735 507 q 722 397 683 454 q 815 236 760 339 q 881 122 858 158 q 925 82 904 86 l 979 68 l 979 0 l 788 0 q 738 48 765 0 q 664 196 710 96 q 577 370 614 306 q 504 453 540 435 q 328 454 356 453 l 328 82 l 465 68 l 465 0 l 64 0 l 64 68 m 493 528 q 633 586 582 528 q 685 760 685 644 q 633 915 685 861 q 453 968 581 968 q 364 963 408 968 q 328 960 336 960 l 328 529 q 414 528 349 528 l 493 528 m 490 1229 l 667 1364 l 721 1326 l 547 1136 l 433 1136 l 257 1325 l 315 1364 l 490 1229 z "},"Ŗ":{"ha":978,"x_min":64,"x_max":979,"o":"m 64 68 l 179 82 l 179 946 l 71 964 l 71 1032 l 253 1032 q 358 1038 292 1032 q 467 1043 428 1043 q 758 977 671 1043 q 844 769 844 911 q 790 589 844 671 q 639 478 735 507 q 722 397 683 454 q 815 236 760 339 q 881 122 858 158 q 925 82 904 86 l 979 68 l 979 0 l 788 0 q 738 48 765 0 q 664 196 710 96 q 577 370 614 306 q 504 453 540 435 q 328 454 356 453 l 328 82 l 465 68 l 465 0 l 64 0 l 64 68 m 493 528 q 633 586 582 528 q 685 760 685 644 q 633 915 685 861 q 453 968 581 968 q 364 963 408 968 q 328 960 336 960 l 328 529 q 414 528 349 528 l 493 528 m 632 -187 q 611 -279 632 -237 q 564 -347 590 -321 q 524 -378 538 -374 l 522 -378 l 475 -353 l 474 -344 q 506 -307 493 -335 q 518 -249 518 -279 q 510 -219 518 -231 q 489 -199 503 -208 q 461 -143 461 -179 q 485 -92 461 -107 q 535 -76 508 -76 l 540 -76 q 607 -106 582 -76 q 632 -187 632 -135 z "},"S":{"ha":825,"x_min":86,"x_max":772,"o":"m 403 -15 q 274 -3 331 -15 q 149 31 217 10 q 86 47 107 46 l 97 299 l 186 299 l 210 118 q 287 78 233 96 q 404 61 340 61 q 565 108 510 61 q 619 239 619 156 q 590 332 619 293 q 510 399 560 371 q 375 464 461 426 q 240 535 297 499 q 140 631 182 571 q 97 776 97 692 q 138 913 97 853 q 256 1008 179 974 q 436 1043 333 1043 q 549 1033 500 1043 q 661 1007 599 1024 q 708 994 689 997 l 700 761 l 615 761 l 588 932 q 530 958 574 946 q 435 971 486 971 q 290 931 339 971 q 240 814 240 890 q 270 721 240 758 q 344 657 300 683 q 486 585 389 631 q 633 507 576 542 q 731 416 690 472 q 772 282 772 360 q 731 140 772 208 q 606 28 690 72 q 403 -15 522 -15 z "},"Ś":{"ha":825,"x_min":86,"x_max":772,"o":"m 403 -15 q 274 -3 331 -15 q 149 31 217 10 q 86 47 107 46 l 97 299 l 186 299 l 210 118 q 287 78 233 96 q 404 61 340 61 q 565 108 510 61 q 619 239 619 156 q 590 332 619 293 q 510 399 560 371 q 375 464 461 426 q 240 535 297 499 q 140 631 182 571 q 97 776 97 692 q 138 913 97 853 q 256 1008 179 974 q 436 1043 333 1043 q 549 1033 500 1043 q 661 1007 599 1024 q 708 994 689 997 l 700 761 l 615 761 l 588 932 q 530 958 574 946 q 435 971 486 971 q 290 931 339 971 q 240 814 240 890 q 270 721 240 758 q 344 657 300 683 q 486 585 389 631 q 633 507 576 542 q 731 416 690 472 q 772 282 772 360 q 731 140 772 208 q 606 28 690 72 q 403 -15 522 -15 m 350 1151 l 536 1363 l 649 1292 q 541 1189 610 1243 q 419 1110 472 1135 l 350 1151 z "},"Š":{"ha":825,"x_min":86,"x_max":772,"o":"m 403 -15 q 274 -3 331 -15 q 149 31 217 10 q 86 47 107 46 l 97 299 l 186 299 l 210 118 q 287 78 233 96 q 404 61 340 61 q 565 108 510 61 q 619 239 619 156 q 590 332 619 293 q 510 399 560 371 q 375 464 461 426 q 240 535 297 499 q 140 631 182 571 q 97 776 97 692 q 138 913 97 853 q 256 1008 179 974 q 436 1043 333 1043 q 549 1033 500 1043 q 661 1007 599 1024 q 708 994 689 997 l 700 761 l 615 761 l 588 932 q 530 958 574 946 q 435 971 486 971 q 290 931 339 971 q 240 814 240 890 q 270 721 240 758 q 344 657 300 683 q 486 585 389 631 q 633 507 576 542 q 731 416 690 472 q 772 282 772 360 q 731 140 772 208 q 606 28 690 72 q 403 -15 522 -15 m 456 1229 l 632 1364 l 686 1326 l 513 1136 l 399 1136 l 222 1325 l 281 1364 l 456 1229 z "},"Ş":{"ha":825,"x_min":86,"x_max":772,"o":"m 97 299 l 186 299 l 210 118 q 287 78 233 96 q 404 61 340 61 q 565 108 510 61 q 619 239 619 156 q 590 332 619 293 q 510 399 560 371 q 375 464 461 426 q 240 535 297 499 q 140 631 182 571 q 97 776 97 692 q 138 913 97 853 q 256 1008 179 974 q 436 1043 333 1043 q 549 1033 500 1043 q 661 1007 599 1024 q 708 994 689 997 l 700 761 l 615 761 l 588 932 q 530 958 574 946 q 435 971 486 971 q 290 931 339 971 q 240 814 240 890 q 270 721 240 758 q 344 657 300 683 q 486 585 389 631 q 633 507 576 542 q 731 416 690 472 q 772 282 772 360 q 738 151 772 214 q 632 43 703 88 q 460 -12 561 -1 q 515 -96 490 -44 q 538 -199 539 -147 q 489 -303 533 -272 q 357 -335 444 -335 q 306 -329 333 -335 q 258 -317 278 -324 l 260 -221 q 291 -228 274 -225 q 321 -232 308 -232 q 401 -212 376 -232 q 425 -133 425 -193 q 388 -15 425 -81 q 269 -2 321 -14 q 149 31 218 10 q 86 47 107 46 l 97 299 z "},"Ŝ":{"ha":825,"x_min":86,"x_max":772,"o":"m 403 -15 q 274 -3 331 -15 q 149 31 217 10 q 86 47 107 46 l 97 299 l 186 299 l 210 118 q 287 78 233 96 q 404 61 340 61 q 565 108 510 61 q 619 239 619 156 q 590 332 619 293 q 510 399 560 371 q 375 464 461 426 q 240 535 297 499 q 140 631 182 571 q 97 776 97 692 q 138 913 97 853 q 256 1008 179 974 q 436 1043 333 1043 q 549 1033 500 1043 q 661 1007 599 1024 q 708 994 689 997 l 700 761 l 615 761 l 588 932 q 530 958 574 946 q 435 971 486 971 q 290 931 339 971 q 240 814 240 890 q 270 721 240 758 q 344 657 300 683 q 486 585 389 631 q 633 507 576 542 q 731 416 690 472 q 772 282 772 360 q 731 140 772 208 q 606 28 690 72 q 403 -15 522 -15 m 511 1364 l 699 1164 l 642 1124 l 456 1267 l 267 1124 l 213 1163 l 400 1364 l 511 1364 z "},"Ș":{"ha":825,"x_min":86,"x_max":772,"o":"m 403 -15 q 274 -3 331 -15 q 149 31 217 10 q 86 47 107 46 l 97 299 l 186 299 l 210 118 q 287 78 233 96 q 404 61 340 61 q 565 108 510 61 q 619 239 619 156 q 590 332 619 293 q 510 399 560 371 q 375 464 461 426 q 240 535 297 499 q 140 631 182 571 q 97 776 97 692 q 138 913 97 853 q 256 1008 179 974 q 436 1043 333 1043 q 549 1033 500 1043 q 661 1007 599 1024 q 708 994 689 997 l 700 761 l 615 761 l 588 932 q 530 958 574 946 q 435 971 486 971 q 290 931 339 971 q 240 814 240 890 q 270 721 240 758 q 344 657 300 683 q 486 585 389 631 q 633 507 576 542 q 731 416 690 472 q 772 282 772 360 q 731 140 772 208 q 606 28 690 72 q 403 -15 522 -15 m 508 -187 q 488 -279 508 -237 q 440 -347 467 -321 q 400 -378 414 -374 l 399 -378 l 351 -353 l 350 -344 q 382 -307 369 -335 q 394 -249 394 -279 q 387 -219 394 -231 q 365 -199 379 -208 q 338 -143 338 -179 q 361 -92 338 -107 q 411 -76 385 -76 l 417 -76 q 483 -106 458 -76 q 508 -187 508 -135 z "},"Ṡ":{"ha":825,"x_min":86,"x_max":772,"o":"m 403 -15 q 274 -3 331 -15 q 149 31 217 10 q 86 47 107 46 l 97 299 l 186 299 l 210 118 q 287 78 233 96 q 404 61 340 61 q 565 108 510 61 q 619 239 619 156 q 590 332 619 293 q 510 399 560 371 q 375 464 461 426 q 240 535 297 499 q 140 631 182 571 q 97 776 97 692 q 138 913 97 853 q 256 1008 179 974 q 436 1043 333 1043 q 549 1033 500 1043 q 661 1007 599 1024 q 708 994 689 997 l 700 761 l 615 761 l 588 932 q 530 958 574 946 q 435 971 486 971 q 290 931 339 971 q 240 814 240 890 q 270 721 240 758 q 344 657 300 683 q 486 585 389 631 q 633 507 576 542 q 731 416 690 472 q 772 282 772 360 q 731 140 772 208 q 606 28 690 72 q 403 -15 522 -15 m 446 1151 q 385 1176 408 1151 q 363 1238 363 1200 q 388 1309 363 1281 q 458 1338 413 1338 q 522 1312 499 1338 q 546 1250 546 1286 q 520 1179 546 1207 q 446 1151 494 1151 z "},"Ṣ":{"ha":825,"x_min":86,"x_max":772,"o":"m 403 -15 q 274 -3 331 -15 q 149 31 217 10 q 86 47 107 46 l 97 299 l 186 299 l 210 118 q 287 78 233 96 q 404 61 340 61 q 565 108 510 61 q 619 239 619 156 q 590 332 619 293 q 510 399 560 371 q 375 464 461 426 q 240 535 297 499 q 140 631 182 571 q 97 776 97 692 q 138 913 97 853 q 256 1008 179 974 q 436 1043 333 1043 q 549 1033 500 1043 q 661 1007 599 1024 q 708 994 689 997 l 700 761 l 615 761 l 588 932 q 530 958 574 946 q 435 971 486 971 q 290 931 339 971 q 240 814 240 890 q 270 721 240 758 q 344 657 300 683 q 486 585 389 631 q 633 507 576 542 q 731 416 690 472 q 772 282 772 360 q 731 140 772 208 q 606 28 690 72 q 403 -15 522 -15 m 403 -283 q 342 -258 365 -283 q 319 -193 319 -232 q 345 -118 319 -149 q 417 -87 371 -87 q 482 -114 458 -87 q 506 -178 506 -140 q 479 -253 506 -224 q 404 -283 453 -283 l 403 -283 z "},"ẞ":{"ha":1007,"x_min":24,"x_max":982,"o":"m 107 82 l 107 618 q 165 836 107 739 q 327 988 224 933 q 560 1043 431 1043 q 722 1024 654 1043 q 854 971 789 1006 l 854 910 l 671 640 q 700 625 681 636 q 840 547 783 585 q 940 445 897 508 q 982 294 982 382 q 945 135 982 206 q 838 25 908 65 q 675 -15 768 -15 q 573 -4 618 -15 q 475 26 528 7 q 449 35 467 29 q 422 42 432 40 l 429 281 l 513 281 l 539 106 q 592 72 553 85 q 678 58 632 58 q 790 108 747 58 q 833 267 833 158 q 740 442 833 368 q 535 561 647 515 l 535 613 l 721 907 q 528 972 653 972 q 388 933 450 972 q 291 818 326 893 q 256 642 256 743 l 256 0 l 24 0 l 24 68 l 107 82 z "},"Ə":{"ha":924,"x_min":61,"x_max":879,"o":"m 424 -15 q 238 32 318 -15 q 110 171 157 79 q 61 393 64 263 q 71 539 61 500 l 726 539 q 683 767 721 671 q 581 916 646 864 q 433 968 517 968 q 299 946 347 968 q 214 888 250 924 l 189 781 l 90 782 l 97 989 q 190 1007 129 990 q 317 1033 258 1024 q 456 1043 375 1043 q 678 979 582 1043 q 826 797 774 915 q 879 524 879 679 q 820 241 879 364 q 657 51 761 118 q 424 -15 553 -15 m 453 71 q 649 166 575 71 q 726 458 722 261 l 218 458 q 214 383 214 433 q 239 234 214 306 q 318 117 264 163 q 453 71 372 71 z "},"T":{"ha":961,"x_min":24,"x_max":929,"o":"m 403 958 l 164 950 l 115 660 l 24 660 l 47 1032 l 913 1032 l 929 660 l 842 660 l 796 950 l 556 958 l 556 82 l 753 68 l 753 0 l 222 0 l 222 68 l 403 82 l 403 958 z "},"Ŧ":{"ha":982,"x_min":36,"x_max":940,"o":"m 414 958 l 176 950 l 128 660 l 36 660 l 58 1032 l 925 1032 l 940 660 l 851 660 l 807 950 l 568 958 l 568 513 l 735 513 l 735 428 l 568 428 l 568 82 l 765 68 l 765 0 l 235 0 l 235 68 l 414 82 l 414 428 l 247 428 l 247 513 l 414 513 l 414 958 z "},"Ť":{"ha":961,"x_min":24,"x_max":929,"o":"m 403 958 l 164 950 l 115 660 l 24 660 l 47 1032 l 913 1032 l 929 660 l 842 660 l 796 950 l 556 958 l 556 82 l 753 68 l 753 0 l 222 0 l 222 68 l 403 82 l 403 958 m 482 1229 l 658 1364 l 713 1326 l 539 1136 l 425 1136 l 249 1325 l 307 1364 l 482 1229 z "},"Ţ":{"ha":961,"x_min":24,"x_max":929,"o":"m 47 1032 l 913 1032 l 929 660 l 842 660 l 796 950 l 556 958 l 556 82 l 753 68 l 753 0 l 517 0 q 576 -80 547 -26 q 606 -190 606 -133 q 560 -301 606 -268 q 425 -335 515 -335 q 374 -329 401 -335 q 326 -317 346 -324 l 328 -221 q 360 -228 342 -225 q 390 -232 378 -232 q 469 -213 446 -232 q 493 -133 493 -194 q 478 -59 493 -97 q 447 0 463 -21 l 222 0 l 222 68 l 403 82 l 403 958 l 164 950 l 115 660 l 24 660 l 47 1032 z "},"Ț":{"ha":961,"x_min":24,"x_max":929,"o":"m 403 958 l 164 950 l 115 660 l 24 660 l 47 1032 l 913 1032 l 929 660 l 842 660 l 796 950 l 556 958 l 556 82 l 753 68 l 753 0 l 222 0 l 222 68 l 403 82 l 403 958 m 576 -187 q 556 -279 576 -237 q 508 -347 535 -321 q 468 -378 482 -374 l 467 -378 l 419 -353 l 418 -344 q 450 -307 438 -335 q 463 -249 463 -279 q 455 -219 463 -231 q 433 -199 447 -208 q 406 -143 406 -179 q 429 -92 406 -107 q 479 -76 453 -76 l 485 -76 q 551 -106 526 -76 q 576 -187 576 -135 z "},"Ṫ":{"ha":961,"x_min":24,"x_max":929,"o":"m 403 958 l 164 950 l 115 660 l 24 660 l 47 1032 l 913 1032 l 929 660 l 842 660 l 796 950 l 556 958 l 556 82 l 753 68 l 753 0 l 222 0 l 222 68 l 403 82 l 403 958 m 472 1151 q 412 1176 435 1151 q 389 1238 389 1200 q 414 1309 389 1281 q 485 1338 439 1338 q 549 1312 525 1338 q 572 1250 572 1286 q 547 1179 572 1207 q 472 1151 521 1151 z "},"Ṭ":{"ha":961,"x_min":24,"x_max":929,"o":"m 403 958 l 164 950 l 115 660 l 24 660 l 47 1032 l 913 1032 l 929 660 l 842 660 l 796 950 l 556 958 l 556 82 l 753 68 l 753 0 l 222 0 l 222 68 l 403 82 l 403 958 m 471 -283 q 410 -258 433 -283 q 388 -193 388 -232 q 413 -118 388 -149 q 485 -87 439 -87 q 550 -114 526 -87 q 574 -178 574 -140 q 547 -253 574 -224 q 472 -283 521 -283 l 471 -283 z "},"U":{"ha":1028,"x_min":33,"x_max":1007,"o":"m 529 -11 q 228 98 325 -11 q 132 436 132 207 l 132 946 l 33 963 l 33 1032 l 404 1032 l 404 963 l 286 944 l 286 421 q 353 149 286 232 q 547 65 421 65 q 737 154 674 65 q 800 413 800 243 l 800 944 l 683 963 l 683 1032 l 1007 1032 l 1007 963 l 906 946 l 906 419 q 803 96 906 203 q 529 -11 700 -11 z "},"Ú":{"ha":1028,"x_min":33,"x_max":1007,"o":"m 529 -11 q 228 98 325 -11 q 132 436 132 207 l 132 946 l 33 963 l 33 1032 l 404 1032 l 404 963 l 286 944 l 286 421 q 353 149 286 232 q 547 65 421 65 q 737 154 674 65 q 800 413 800 243 l 800 944 l 683 963 l 683 1032 l 1007 1032 l 1007 963 l 906 946 l 906 419 q 803 96 906 203 q 529 -11 700 -11 m 439 1151 l 625 1363 l 738 1292 q 630 1189 699 1243 q 508 1110 561 1135 l 439 1151 z "},"Ŭ":{"ha":1028,"x_min":33,"x_max":1007,"o":"m 529 -11 q 228 98 325 -11 q 132 436 132 207 l 132 946 l 33 963 l 33 1032 l 404 1032 l 404 963 l 286 944 l 286 421 q 353 149 286 232 q 547 65 421 65 q 737 154 674 65 q 800 413 800 243 l 800 944 l 683 963 l 683 1032 l 1007 1032 l 1007 963 l 906 946 l 906 419 q 803 96 906 203 q 529 -11 700 -11 m 543 1117 q 369 1176 432 1117 q 307 1326 307 1236 q 308 1354 307 1344 l 386 1354 q 388 1336 386 1344 q 431 1256 396 1290 q 543 1222 467 1222 q 701 1338 678 1222 l 703 1354 l 778 1354 q 779 1328 779 1344 q 750 1221 779 1269 q 667 1144 721 1172 q 543 1117 614 1117 z "},"Ǔ":{"ha":1028,"x_min":33,"x_max":1007,"o":"m 529 -11 q 228 98 325 -11 q 132 436 132 207 l 132 946 l 33 963 l 33 1032 l 404 1032 l 404 963 l 286 944 l 286 421 q 353 149 286 232 q 547 65 421 65 q 737 154 674 65 q 800 413 800 243 l 800 944 l 683 963 l 683 1032 l 1007 1032 l 1007 963 l 906 946 l 906 419 q 803 96 906 203 q 529 -11 700 -11 m 544 1229 l 721 1364 l 775 1326 l 601 1136 l 488 1136 l 311 1325 l 369 1364 l 544 1229 z "},"Û":{"ha":1028,"x_min":33,"x_max":1007,"o":"m 529 -11 q 228 98 325 -11 q 132 436 132 207 l 132 946 l 33 963 l 33 1032 l 404 1032 l 404 963 l 286 944 l 286 421 q 353 149 286 232 q 547 65 421 65 q 737 154 674 65 q 800 413 800 243 l 800 944 l 683 963 l 683 1032 l 1007 1032 l 1007 963 l 906 946 l 906 419 q 803 96 906 203 q 529 -11 700 -11 m 600 1364 l 788 1164 l 731 1124 l 544 1267 l 356 1124 l 301 1163 l 489 1364 l 600 1364 z "},"Ü":{"ha":1028,"x_min":33,"x_max":1007,"o":"m 529 -11 q 228 98 325 -11 q 132 436 132 207 l 132 946 l 33 963 l 33 1032 l 404 1032 l 404 963 l 286 944 l 286 421 q 353 149 286 232 q 547 65 421 65 q 737 154 674 65 q 800 413 800 243 l 800 944 l 683 963 l 683 1032 l 1007 1032 l 1007 963 l 906 946 l 906 419 q 803 96 906 203 q 529 -11 700 -11 m 363 1138 q 307 1163 328 1138 q 286 1225 286 1189 q 309 1299 286 1269 q 376 1328 332 1328 l 378 1328 q 439 1301 417 1328 q 461 1239 461 1275 q 436 1166 461 1194 q 364 1138 411 1138 l 363 1138 m 703 1138 q 647 1163 668 1138 q 625 1225 625 1189 q 649 1298 625 1268 q 715 1328 672 1328 l 717 1328 q 777 1301 756 1328 q 799 1239 799 1275 q 774 1166 799 1194 q 703 1138 750 1138 z "},"Ụ":{"ha":1028,"x_min":33,"x_max":1007,"o":"m 529 -11 q 228 98 325 -11 q 132 436 132 207 l 132 946 l 33 963 l 33 1032 l 404 1032 l 404 963 l 286 944 l 286 421 q 353 149 286 232 q 547 65 421 65 q 737 154 674 65 q 800 413 800 243 l 800 944 l 683 963 l 683 1032 l 1007 1032 l 1007 963 l 906 946 l 906 419 q 803 96 906 203 q 529 -11 700 -11 m 504 -283 q 444 -258 467 -283 q 421 -193 421 -232 q 447 -118 421 -149 q 518 -87 472 -87 q 583 -114 560 -87 q 607 -178 607 -140 q 581 -253 607 -224 q 506 -283 554 -283 l 504 -283 z "},"Ù":{"ha":1028,"x_min":33,"x_max":1007,"o":"m 529 -11 q 228 98 325 -11 q 132 436 132 207 l 132 946 l 33 963 l 33 1032 l 404 1032 l 404 963 l 286 944 l 286 421 q 353 149 286 232 q 547 65 421 65 q 737 154 674 65 q 800 413 800 243 l 800 944 l 683 963 l 683 1032 l 1007 1032 l 1007 963 l 906 946 l 906 419 q 803 96 906 203 q 529 -11 700 -11 m 578 1110 q 453 1190 525 1135 q 346 1292 382 1244 l 457 1363 l 644 1151 l 578 1110 z "},"Ủ":{"ha":1028,"x_min":33,"x_max":1007,"o":"m 529 -11 q 228 98 325 -11 q 132 436 132 207 l 132 946 l 33 963 l 33 1032 l 404 1032 l 404 963 l 286 944 l 286 421 q 353 149 286 232 q 547 65 421 65 q 737 154 674 65 q 800 413 800 243 l 800 944 l 683 963 l 683 1032 l 1007 1032 l 1007 963 l 906 946 l 906 419 q 803 96 906 203 q 529 -11 700 -11 m 517 1078 q 501 1104 507 1088 q 494 1139 494 1121 q 503 1160 494 1151 q 531 1179 513 1168 q 563 1202 553 1192 q 574 1229 574 1213 q 496 1279 574 1279 q 433 1265 458 1279 l 431 1344 q 476 1359 449 1353 q 528 1365 504 1365 q 686 1249 686 1365 q 670 1199 686 1217 q 622 1161 654 1181 l 592 1140 q 574 1100 574 1126 q 578 1078 574 1089 l 517 1078 z "},"Ư":{"ha":1028,"x_min":33,"x_max":1078,"o":"m 33 1032 l 404 1032 l 404 963 l 286 944 l 286 421 q 353 149 286 232 q 547 65 421 65 q 737 154 674 65 q 800 413 800 243 l 800 944 l 683 963 l 683 1032 l 810 1032 q 925 1074 890 1032 q 960 1175 960 1115 q 958 1201 960 1194 l 1074 1201 q 1076 1171 1076 1179 q 1032 1025 1078 1079 q 906 956 986 971 l 906 419 q 803 96 906 203 q 529 -11 700 -11 q 228 98 325 -11 q 132 436 132 207 l 132 946 l 33 963 l 33 1032 z "},"Ứ":{"ha":1028,"x_min":33,"x_max":1076,"o":"m 33 1032 l 404 1032 l 404 963 l 286 944 l 286 421 q 353 149 286 232 q 547 65 421 65 q 737 154 674 65 q 800 413 800 243 l 800 944 l 683 963 l 683 1032 l 810 1032 q 925 1074 890 1032 q 960 1175 960 1115 q 958 1201 960 1194 l 1074 1201 q 1076 1171 1076 1179 q 1032 1025 1078 1079 q 906 956 986 971 l 906 419 q 803 96 906 203 q 529 -11 700 -11 q 228 98 325 -11 q 132 436 132 207 l 132 946 l 33 963 l 33 1032 m 438 1151 l 624 1363 l 736 1292 q 628 1189 697 1243 q 507 1110 560 1135 l 438 1151 z "},"Ự":{"ha":1028,"x_min":33,"x_max":1076,"o":"m 33 1032 l 404 1032 l 404 963 l 286 944 l 286 421 q 353 149 286 232 q 547 65 421 65 q 737 154 674 65 q 800 413 800 243 l 800 944 l 683 963 l 683 1032 l 810 1032 q 925 1074 890 1032 q 960 1175 960 1115 q 958 1201 960 1194 l 1074 1201 q 1076 1171 1076 1179 q 1032 1025 1078 1079 q 906 956 986 971 l 906 419 q 803 96 906 203 q 529 -11 700 -11 q 228 98 325 -11 q 132 436 132 207 l 132 946 l 33 963 l 33 1032 m 519 -283 q 459 -258 482 -283 q 436 -193 436 -232 q 462 -118 436 -149 q 533 -87 488 -87 q 599 -114 575 -87 q 622 -178 622 -140 q 596 -253 622 -224 q 521 -283 569 -283 l 519 -283 z "},"Ừ":{"ha":1028,"x_min":33,"x_max":1076,"o":"m 33 1032 l 404 1032 l 404 963 l 286 944 l 286 421 q 353 149 286 232 q 547 65 421 65 q 737 154 674 65 q 800 413 800 243 l 800 944 l 683 963 l 683 1032 l 810 1032 q 925 1074 890 1032 q 960 1175 960 1115 q 958 1201 960 1194 l 1074 1201 q 1076 1171 1076 1179 q 1032 1025 1078 1079 q 906 956 986 971 l 906 419 q 803 96 906 203 q 529 -11 700 -11 q 228 98 325 -11 q 132 436 132 207 l 132 946 l 33 963 l 33 1032 m 576 1110 q 452 1190 524 1135 q 344 1292 381 1244 l 456 1363 l 643 1151 l 576 1110 z "},"Ử":{"ha":1028,"x_min":33,"x_max":1076,"o":"m 33 1032 l 404 1032 l 404 963 l 286 944 l 286 421 q 353 149 286 232 q 547 65 421 65 q 737 154 674 65 q 800 413 800 243 l 800 944 l 683 963 l 683 1032 l 810 1032 q 925 1074 890 1032 q 960 1175 960 1115 q 958 1201 960 1194 l 1074 1201 q 1076 1171 1076 1179 q 1032 1025 1078 1079 q 906 956 986 971 l 906 419 q 803 96 906 203 q 529 -11 700 -11 q 228 98 325 -11 q 132 436 132 207 l 132 946 l 33 963 l 33 1032 m 515 1078 q 499 1104 506 1088 q 493 1139 493 1121 q 502 1160 493 1151 q 529 1179 511 1168 q 562 1202 551 1192 q 572 1229 572 1213 q 494 1279 572 1279 q 432 1265 457 1279 l 429 1344 q 475 1359 447 1353 q 526 1365 503 1365 q 685 1249 685 1365 q 669 1199 685 1217 q 621 1161 653 1181 l 590 1140 q 572 1100 572 1126 q 576 1078 572 1089 l 515 1078 z "},"Ữ":{"ha":1028,"x_min":33,"x_max":1076,"o":"m 33 1032 l 404 1032 l 404 963 l 286 944 l 286 421 q 353 149 286 232 q 547 65 421 65 q 737 154 674 65 q 800 413 800 243 l 800 944 l 683 963 l 683 1032 l 810 1032 q 925 1074 890 1032 q 960 1175 960 1115 q 958 1201 960 1194 l 1074 1201 q 1076 1171 1076 1179 q 1032 1025 1078 1079 q 906 956 986 971 l 906 419 q 803 96 906 203 q 529 -11 700 -11 q 228 98 325 -11 q 132 436 132 207 l 132 946 l 33 963 l 33 1032 m 647 1132 q 581 1147 607 1132 q 519 1189 554 1161 q 478 1220 496 1210 q 440 1231 461 1231 q 388 1209 406 1231 q 357 1149 371 1188 l 292 1186 q 350 1288 311 1249 q 449 1326 389 1326 q 519 1311 492 1326 q 579 1265 546 1296 q 618 1235 603 1244 q 651 1225 633 1225 q 701 1249 682 1225 q 733 1310 719 1272 l 799 1272 q 743 1169 778 1207 q 647 1132 708 1132 z "},"Ű":{"ha":1028,"x_min":33,"x_max":1007,"o":"m 529 -11 q 228 98 325 -11 q 132 436 132 207 l 132 946 l 33 963 l 33 1032 l 404 1032 l 404 963 l 286 944 l 286 421 q 353 149 286 232 q 547 65 421 65 q 737 154 674 65 q 800 413 800 243 l 800 944 l 683 963 l 683 1032 l 1007 1032 l 1007 963 l 906 946 l 906 419 q 803 96 906 203 q 529 -11 700 -11 m 585 1293 q 484 1199 544 1246 q 367 1117 424 1151 l 308 1167 l 494 1364 l 585 1293 m 904 1289 q 803 1196 867 1243 q 682 1117 740 1149 l 624 1168 l 822 1363 l 904 1289 z "},"Ū":{"ha":1028,"x_min":33,"x_max":1007,"o":"m 529 -11 q 228 98 325 -11 q 132 436 132 207 l 132 946 l 33 963 l 33 1032 l 404 1032 l 404 963 l 286 944 l 286 421 q 353 149 286 232 q 547 65 421 65 q 737 154 674 65 q 800 413 800 243 l 800 944 l 683 963 l 683 1032 l 1007 1032 l 1007 963 l 906 946 l 906 419 q 803 96 906 203 q 529 -11 700 -11 m 749 1185 l 338 1185 l 338 1285 l 749 1285 l 749 1185 z "},"Ų":{"ha":1028,"x_min":33,"x_max":1007,"o":"m 529 -11 q 228 98 325 -11 q 132 436 132 207 l 132 946 l 33 963 l 33 1032 l 404 1032 l 404 963 l 286 944 l 286 421 q 353 149 286 232 q 547 65 421 65 q 737 154 674 65 q 800 413 800 243 l 800 944 l 683 963 l 683 1032 l 1007 1032 l 1007 963 l 906 946 l 906 419 q 842 148 906 250 q 667 10 779 46 q 558 -78 601 -29 q 515 -168 515 -128 q 544 -233 515 -211 q 617 -256 572 -256 q 719 -231 667 -256 l 719 -300 q 647 -333 690 -321 q 558 -346 603 -346 q 435 -315 483 -346 q 386 -214 386 -283 q 436 -103 386 -161 q 554 -10 486 -44 q 529 -11 546 -11 z "},"Ů":{"ha":1028,"x_min":33,"x_max":1007,"o":"m 529 -11 q 228 98 325 -11 q 132 436 132 207 l 132 946 l 33 963 l 33 1032 l 404 1032 l 404 963 l 286 944 l 286 421 q 353 149 286 232 q 547 65 421 65 q 737 154 674 65 q 800 413 800 243 l 800 944 l 683 963 l 683 1032 l 1007 1032 l 1007 963 l 906 946 l 906 419 q 803 96 906 203 q 529 -11 700 -11 m 539 1071 q 379 1106 443 1071 q 315 1215 315 1142 q 383 1325 315 1285 q 546 1365 450 1365 q 711 1327 653 1365 q 769 1214 769 1289 q 709 1107 769 1143 q 539 1071 649 1071 m 542 1136 q 635 1154 599 1136 q 671 1215 671 1172 q 544 1297 671 1297 q 449 1279 483 1297 q 415 1215 415 1261 q 451 1156 415 1176 q 542 1136 486 1136 z "},"Ũ":{"ha":1028,"x_min":33,"x_max":1007,"o":"m 529 -11 q 228 98 325 -11 q 132 436 132 207 l 132 946 l 33 963 l 33 1032 l 404 1032 l 404 963 l 286 944 l 286 421 q 353 149 286 232 q 547 65 421 65 q 737 154 674 65 q 800 413 800 243 l 800 944 l 683 963 l 683 1032 l 1007 1032 l 1007 963 l 906 946 l 906 419 q 803 96 906 203 q 529 -11 700 -11 m 649 1132 q 582 1147 608 1132 q 521 1189 556 1161 q 480 1220 497 1210 q 442 1231 463 1231 q 390 1209 407 1231 q 358 1149 372 1188 l 293 1186 q 351 1288 313 1249 q 450 1326 390 1326 q 520 1311 493 1326 q 581 1265 547 1296 q 619 1235 604 1244 q 653 1225 635 1225 q 702 1249 683 1225 q 735 1310 721 1272 l 800 1272 q 744 1169 779 1207 q 649 1132 710 1132 z "},"V":{"ha":931,"x_min":-22,"x_max":957,"o":"m -22 1032 l 347 1032 l 347 963 l 224 946 l 453 294 l 504 125 l 550 297 l 757 946 l 647 963 l 647 1032 l 957 1032 l 957 963 l 868 946 l 539 -11 l 418 -11 l 63 946 l -22 963 l -22 1032 z "},"W":{"ha":1389,"x_min":-26,"x_max":1415,"o":"m -26 1032 l 350 1032 l 350 963 l 219 946 l 410 299 l 450 106 l 496 299 l 656 828 l 618 946 l 519 963 l 519 1032 l 910 1032 l 910 963 l 774 946 l 961 299 l 1008 90 l 1047 299 l 1222 946 l 1085 963 l 1085 1032 l 1415 1032 l 1415 963 l 1324 946 l 1047 -7 l 911 -7 l 699 689 l 493 -7 l 361 -7 l 65 944 l -26 963 l -26 1032 z "},"Ẃ":{"ha":1389,"x_min":-26,"x_max":1415,"o":"m -26 1032 l 350 1032 l 350 963 l 219 946 l 410 299 l 450 106 l 496 299 l 656 828 l 618 946 l 519 963 l 519 1032 l 910 1032 l 910 963 l 774 946 l 961 299 l 1008 90 l 1047 299 l 1222 946 l 1085 963 l 1085 1032 l 1415 1032 l 1415 963 l 1324 946 l 1047 -7 l 911 -7 l 699 689 l 493 -7 l 361 -7 l 65 944 l -26 963 l -26 1032 m 592 1151 l 778 1363 l 890 1292 q 783 1189 851 1243 q 661 1110 714 1135 l 592 1151 z "},"Ŵ":{"ha":1389,"x_min":-26,"x_max":1415,"o":"m -26 1032 l 350 1032 l 350 963 l 219 946 l 410 299 l 450 106 l 496 299 l 656 828 l 618 946 l 519 963 l 519 1032 l 910 1032 l 910 963 l 774 946 l 961 299 l 1008 90 l 1047 299 l 1222 946 l 1085 963 l 1085 1032 l 1415 1032 l 1415 963 l 1324 946 l 1047 -7 l 911 -7 l 699 689 l 493 -7 l 361 -7 l 65 944 l -26 963 l -26 1032 m 753 1364 l 940 1164 l 883 1124 l 697 1267 l 508 1124 l 454 1163 l 642 1364 l 753 1364 z "},"Ẅ":{"ha":1389,"x_min":-26,"x_max":1415,"o":"m -26 1032 l 350 1032 l 350 963 l 219 946 l 410 299 l 450 106 l 496 299 l 656 828 l 618 946 l 519 963 l 519 1032 l 910 1032 l 910 963 l 774 946 l 961 299 l 1008 90 l 1047 299 l 1222 946 l 1085 963 l 1085 1032 l 1415 1032 l 1415 963 l 1324 946 l 1047 -7 l 911 -7 l 699 689 l 493 -7 l 361 -7 l 65 944 l -26 963 l -26 1032 m 515 1138 q 460 1163 481 1138 q 439 1225 439 1189 q 462 1299 439 1269 q 529 1328 485 1328 l 531 1328 q 592 1301 569 1328 q 614 1239 614 1275 q 589 1166 614 1194 q 517 1138 564 1138 l 515 1138 m 856 1138 q 799 1163 821 1138 q 778 1225 778 1189 q 801 1298 778 1268 q 868 1328 825 1328 l 869 1328 q 930 1301 908 1328 q 951 1239 951 1275 q 927 1166 951 1194 q 856 1138 903 1138 z "},"Ẁ":{"ha":1389,"x_min":-26,"x_max":1415,"o":"m -26 1032 l 350 1032 l 350 963 l 219 946 l 410 299 l 450 106 l 496 299 l 656 828 l 618 946 l 519 963 l 519 1032 l 910 1032 l 910 963 l 774 946 l 961 299 l 1008 90 l 1047 299 l 1222 946 l 1085 963 l 1085 1032 l 1415 1032 l 1415 963 l 1324 946 l 1047 -7 l 911 -7 l 699 689 l 493 -7 l 361 -7 l 65 944 l -26 963 l -26 1032 m 731 1110 q 606 1190 678 1135 q 499 1292 535 1244 l 610 1363 l 797 1151 l 731 1110 z "},"X":{"ha":989,"x_min":10,"x_max":986,"o":"m 421 515 l 132 944 l 29 963 l 29 1032 l 443 1032 l 443 963 l 311 944 l 528 593 l 744 946 l 622 963 l 622 1032 l 964 1032 l 964 963 l 853 944 l 571 542 l 881 82 l 986 68 l 986 0 l 574 0 l 574 68 l 703 82 l 467 461 l 240 82 l 379 68 l 379 0 l 10 0 l 10 68 l 128 82 l 421 515 z "},"Y":{"ha":894,"x_min":-17,"x_max":914,"o":"m 379 401 l 67 944 l -17 963 l -17 1032 l 346 1032 l 346 963 l 236 946 l 432 574 l 476 468 l 526 574 l 711 946 l 597 963 l 597 1032 l 914 1032 l 914 963 l 824 946 l 533 403 l 533 83 l 689 68 l 689 0 l 228 0 l 228 68 l 379 82 l 379 401 z "},"Ý":{"ha":894,"x_min":-17,"x_max":914,"o":"m 379 401 l 67 944 l -17 963 l -17 1032 l 346 1032 l 346 963 l 236 946 l 432 574 l 476 468 l 526 574 l 711 946 l 597 963 l 597 1032 l 914 1032 l 914 963 l 824 946 l 533 403 l 533 83 l 689 68 l 689 0 l 228 0 l 228 68 l 379 82 l 379 401 m 353 1151 l 539 1363 l 651 1292 q 544 1189 613 1243 q 422 1110 475 1135 l 353 1151 z "},"Ŷ":{"ha":894,"x_min":-17,"x_max":914,"o":"m 379 401 l 67 944 l -17 963 l -17 1032 l 346 1032 l 346 963 l 236 946 l 432 574 l 476 468 l 526 574 l 711 946 l 597 963 l 597 1032 l 914 1032 l 914 963 l 824 946 l 533 403 l 533 83 l 689 68 l 689 0 l 228 0 l 228 68 l 379 82 l 379 401 m 514 1364 l 701 1164 l 644 1124 l 458 1267 l 269 1124 l 215 1163 l 403 1364 l 514 1364 z "},"Ÿ":{"ha":894,"x_min":-17,"x_max":914,"o":"m 379 401 l 67 944 l -17 963 l -17 1032 l 346 1032 l 346 963 l 236 946 l 432 574 l 476 468 l 526 574 l 711 946 l 597 963 l 597 1032 l 914 1032 l 914 963 l 824 946 l 533 403 l 533 83 l 689 68 l 689 0 l 228 0 l 228 68 l 379 82 l 379 401 m 276 1138 q 221 1163 242 1138 q 200 1225 200 1189 q 223 1299 200 1269 q 290 1328 246 1328 l 292 1328 q 353 1301 331 1328 q 375 1239 375 1275 q 350 1166 375 1194 q 278 1138 325 1138 l 276 1138 m 617 1138 q 560 1163 582 1138 q 539 1225 539 1189 q 563 1298 539 1268 q 629 1328 586 1328 l 631 1328 q 691 1301 669 1328 q 713 1239 713 1275 q 688 1166 713 1194 q 617 1138 664 1138 z "},"Ẏ":{"ha":894,"x_min":-17,"x_max":914,"o":"m 379 401 l 67 944 l -17 963 l -17 1032 l 346 1032 l 346 963 l 236 946 l 432 574 l 476 468 l 526 574 l 711 946 l 597 963 l 597 1032 l 914 1032 l 914 963 l 824 946 l 533 403 l 533 83 l 689 68 l 689 0 l 228 0 l 228 68 l 379 82 l 379 401 m 449 1151 q 388 1176 411 1151 q 365 1238 365 1200 q 390 1309 365 1281 q 461 1338 415 1338 q 525 1312 501 1338 q 549 1250 549 1286 q 523 1179 549 1207 q 449 1151 497 1151 z "},"Ỵ":{"ha":894,"x_min":-17,"x_max":914,"o":"m 379 401 l 67 944 l -17 963 l -17 1032 l 346 1032 l 346 963 l 236 946 l 432 574 l 476 468 l 526 574 l 711 946 l 597 963 l 597 1032 l 914 1032 l 914 963 l 824 946 l 533 403 l 533 83 l 689 68 l 689 0 l 228 0 l 228 68 l 379 82 l 379 401 m 438 -283 q 377 -258 400 -283 q 354 -193 354 -232 q 380 -118 354 -149 q 451 -87 406 -87 q 517 -114 493 -87 q 540 -178 540 -140 q 514 -253 540 -224 q 439 -283 488 -283 l 438 -283 z "},"Ỳ":{"ha":894,"x_min":-17,"x_max":914,"o":"m 379 401 l 67 944 l -17 963 l -17 1032 l 346 1032 l 346 963 l 236 946 l 432 574 l 476 468 l 526 574 l 711 946 l 597 963 l 597 1032 l 914 1032 l 914 963 l 824 946 l 533 403 l 533 83 l 689 68 l 689 0 l 228 0 l 228 68 l 379 82 l 379 401 m 492 1110 q 367 1190 439 1135 q 260 1292 296 1244 l 371 1363 l 558 1151 l 492 1110 z "},"Ỷ":{"ha":894,"x_min":-17,"x_max":914,"o":"m 379 401 l 67 944 l -17 963 l -17 1032 l 346 1032 l 346 963 l 236 946 l 432 574 l 476 468 l 526 574 l 711 946 l 597 963 l 597 1032 l 914 1032 l 914 963 l 824 946 l 533 403 l 533 83 l 689 68 l 689 0 l 228 0 l 228 68 l 379 82 l 379 401 m 432 1124 q 413 1156 422 1136 q 404 1192 404 1176 q 413 1213 404 1204 q 439 1233 421 1221 q 471 1260 460 1247 q 482 1290 482 1272 q 463 1344 482 1324 q 404 1364 443 1364 q 342 1349 365 1364 l 339 1436 q 429 1457 383 1457 q 551 1418 507 1457 q 594 1311 594 1379 q 578 1257 594 1276 q 529 1215 563 1238 q 500 1193 506 1199 q 490 1156 490 1183 q 494 1124 490 1139 l 432 1124 z "},"Ỹ":{"ha":894,"x_min":-17,"x_max":914,"o":"m 379 401 l 67 944 l -17 963 l -17 1032 l 346 1032 l 346 963 l 236 946 l 432 574 l 476 468 l 526 574 l 711 946 l 597 963 l 597 1032 l 914 1032 l 914 963 l 824 946 l 533 403 l 533 83 l 689 68 l 689 0 l 228 0 l 228 68 l 379 82 l 379 401 m 563 1132 q 496 1147 522 1132 q 435 1189 469 1161 q 394 1220 411 1210 q 356 1231 376 1231 q 303 1209 321 1231 q 272 1149 286 1188 l 207 1186 q 265 1288 226 1249 q 364 1326 304 1326 q 434 1311 407 1326 q 494 1265 461 1296 q 533 1235 518 1244 q 567 1225 549 1225 q 616 1249 597 1225 q 649 1310 635 1272 l 714 1272 q 658 1169 693 1207 q 563 1132 624 1132 z "},"Z":{"ha":908,"x_min":47,"x_max":856,"o":"m 667 965 l 256 950 l 185 765 l 106 776 l 136 1036 l 810 1036 l 842 976 l 314 176 l 221 74 l 701 99 l 774 317 l 856 299 l 824 0 l 85 0 l 47 61 l 586 867 l 667 965 z "},"Ź":{"ha":908,"x_min":47,"x_max":856,"o":"m 667 965 l 256 950 l 185 765 l 106 776 l 136 1036 l 810 1036 l 842 976 l 314 176 l 221 74 l 701 99 l 774 317 l 856 299 l 824 0 l 85 0 l 47 61 l 586 867 l 667 965 m 406 1151 l 592 1363 l 704 1292 q 597 1189 665 1243 q 475 1110 528 1135 l 406 1151 z "},"Ž":{"ha":908,"x_min":47,"x_max":856,"o":"m 667 965 l 256 950 l 185 765 l 106 776 l 136 1036 l 810 1036 l 842 976 l 314 176 l 221 74 l 701 99 l 774 317 l 856 299 l 824 0 l 85 0 l 47 61 l 586 867 l 667 965 m 511 1229 l 688 1364 l 742 1326 l 568 1136 l 454 1136 l 278 1325 l 336 1364 l 511 1229 z "},"Ż":{"ha":908,"x_min":47,"x_max":856,"o":"m 667 965 l 256 950 l 185 765 l 106 776 l 136 1036 l 810 1036 l 842 976 l 314 176 l 221 74 l 701 99 l 774 317 l 856 299 l 824 0 l 85 0 l 47 61 l 586 867 l 667 965 m 501 1151 q 441 1176 464 1151 q 418 1238 418 1200 q 443 1309 418 1281 q 514 1338 468 1338 q 578 1312 554 1338 q 601 1250 601 1286 q 576 1179 601 1207 q 501 1151 550 1151 z "},"Ẓ":{"ha":908,"x_min":47,"x_max":856,"o":"m 667 965 l 256 950 l 185 765 l 106 776 l 136 1036 l 810 1036 l 842 976 l 314 176 l 221 74 l 701 99 l 774 317 l 856 299 l 824 0 l 85 0 l 47 61 l 586 867 l 667 965 m 444 -283 q 384 -258 407 -283 q 361 -193 361 -232 q 387 -118 361 -149 q 458 -87 413 -87 q 524 -114 500 -87 q 547 -178 547 -140 q 521 -253 547 -224 q 446 -283 494 -283 l 444 -283 z "},"a":{"ha":779,"x_min":63,"x_max":744,"o":"m 63 208 q 193 401 63 339 q 524 467 324 463 l 524 506 q 510 608 524 571 q 462 663 496 646 q 365 681 428 681 q 238 660 294 681 q 126 611 182 640 l 92 683 q 158 724 110 699 q 271 768 207 749 q 399 788 335 788 q 555 760 497 788 q 638 674 613 733 q 663 514 663 614 l 663 68 l 744 68 l 744 7 q 674 -7 717 0 q 600 -14 632 -14 q 547 -2 561 -14 q 533 50 533 10 l 533 96 q 431 19 492 54 q 294 -15 371 -15 q 128 42 194 -15 q 63 208 63 100 m 354 79 q 438 101 390 79 q 524 154 485 124 l 524 393 q 295 347 372 393 q 218 225 218 300 q 255 115 218 150 q 354 79 292 79 z "},"á":{"ha":779,"x_min":63,"x_max":744,"o":"m 63 208 q 193 401 63 339 q 524 467 324 463 l 524 506 q 510 608 524 571 q 462 663 496 646 q 365 681 428 681 q 238 660 294 681 q 126 611 182 640 l 92 683 q 158 724 110 699 q 271 768 207 749 q 399 788 335 788 q 555 760 497 788 q 638 674 613 733 q 663 514 663 614 l 663 68 l 744 68 l 744 7 q 674 -7 717 0 q 600 -14 632 -14 q 547 -2 561 -14 q 533 50 533 10 l 533 96 q 431 19 492 54 q 294 -15 371 -15 q 128 42 194 -15 q 63 208 63 100 m 354 79 q 438 101 390 79 q 524 154 485 124 l 524 393 q 295 347 372 393 q 218 225 218 300 q 255 115 218 150 q 354 79 292 79 m 271 953 l 493 1229 l 599 1140 q 474 1011 569 1093 q 325 907 378 929 l 271 953 z "},"ă":{"ha":779,"x_min":63,"x_max":744,"o":"m 63 208 q 193 401 63 339 q 524 467 324 463 l 524 506 q 510 608 524 571 q 462 663 496 646 q 365 681 428 681 q 238 660 294 681 q 126 611 182 640 l 92 683 q 158 724 110 699 q 271 768 207 749 q 399 788 335 788 q 555 760 497 788 q 638 674 613 733 q 663 514 663 614 l 663 68 l 744 68 l 744 7 q 674 -7 717 0 q 600 -14 632 -14 q 547 -2 561 -14 q 533 50 533 10 l 533 96 q 431 19 492 54 q 294 -15 371 -15 q 128 42 194 -15 q 63 208 63 100 m 354 79 q 438 101 390 79 q 524 154 485 124 l 524 393 q 295 347 372 393 q 218 225 218 300 q 255 115 218 150 q 354 79 292 79 m 383 915 q 259 946 313 915 q 178 1028 206 976 q 150 1143 150 1081 q 153 1185 150 1174 l 226 1185 q 228 1160 226 1169 q 271 1067 233 1107 q 383 1028 308 1028 q 494 1068 458 1028 q 535 1160 531 1108 q 536 1185 538 1179 l 608 1185 q 611 1144 611 1163 q 583 1031 611 1083 q 502 947 554 978 q 383 915 450 915 z "},"ắ":{"ha":779,"x_min":63,"x_max":744,"o":"m 63 208 q 193 401 63 339 q 524 467 324 463 l 524 506 q 510 608 524 571 q 462 663 496 646 q 365 681 428 681 q 238 660 294 681 q 126 611 182 640 l 92 683 q 158 724 110 699 q 271 768 207 749 q 399 788 335 788 q 555 760 497 788 q 638 674 613 733 q 663 514 663 614 l 663 68 l 744 68 l 744 7 q 674 -7 717 0 q 600 -14 632 -14 q 547 -2 561 -14 q 533 50 533 10 l 533 96 q 431 19 492 54 q 294 -15 371 -15 q 128 42 194 -15 q 63 208 63 100 m 354 79 q 438 101 390 79 q 524 154 485 124 l 524 393 q 295 347 372 393 q 218 225 218 300 q 255 115 218 150 q 354 79 292 79 m 328 1154 l 499 1364 l 583 1292 q 479 1188 546 1247 q 385 1111 413 1129 l 328 1154 m 379 899 q 238 944 296 899 q 181 1068 181 989 q 183 1103 181 1093 l 251 1103 q 251 1092 251 1100 q 251 1079 250 1085 q 379 996 260 996 q 470 1017 442 996 q 504 1079 499 1038 q 504 1103 507 1093 l 571 1103 q 574 1089 572 1097 q 575 1069 575 1081 q 517 944 575 990 q 379 899 458 899 z "},"ặ":{"ha":779,"x_min":63,"x_max":744,"o":"m 63 208 q 193 401 63 339 q 524 467 324 463 l 524 506 q 510 608 524 571 q 462 663 496 646 q 365 681 428 681 q 238 660 294 681 q 126 611 182 640 l 92 683 q 158 724 110 699 q 271 768 207 749 q 399 788 335 788 q 555 760 497 788 q 638 674 613 733 q 663 514 663 614 l 663 68 l 744 68 l 744 7 q 674 -7 717 0 q 600 -14 632 -14 q 547 -2 561 -14 q 533 50 533 10 l 533 96 q 431 19 492 54 q 294 -15 371 -15 q 128 42 194 -15 q 63 208 63 100 m 354 79 q 438 101 390 79 q 524 154 485 124 l 524 393 q 295 347 372 393 q 218 225 218 300 q 255 115 218 150 q 354 79 292 79 m 381 -283 q 320 -258 343 -283 q 297 -193 297 -232 q 323 -118 297 -149 q 394 -87 349 -87 q 460 -114 436 -87 q 483 -178 483 -140 q 457 -253 483 -224 q 382 -283 431 -283 l 381 -283 m 383 915 q 259 946 313 915 q 178 1028 206 976 q 150 1143 150 1081 q 153 1185 150 1174 l 226 1185 q 228 1160 226 1169 q 271 1067 233 1107 q 383 1028 308 1028 q 494 1068 458 1028 q 535 1160 531 1108 q 536 1185 538 1179 l 608 1185 q 611 1144 611 1163 q 583 1031 611 1083 q 502 947 554 978 q 383 915 450 915 z "},"ằ":{"ha":779,"x_min":63,"x_max":744,"o":"m 63 208 q 193 401 63 339 q 524 467 324 463 l 524 506 q 510 608 524 571 q 462 663 496 646 q 365 681 428 681 q 238 660 294 681 q 126 611 182 640 l 92 683 q 158 724 110 699 q 271 768 207 749 q 399 788 335 788 q 555 760 497 788 q 638 674 613 733 q 663 514 663 614 l 663 68 l 744 68 l 744 7 q 674 -7 717 0 q 600 -14 632 -14 q 547 -2 561 -14 q 533 50 533 10 l 533 96 q 431 19 492 54 q 294 -15 371 -15 q 128 42 194 -15 q 63 208 63 100 m 354 79 q 438 101 390 79 q 524 154 485 124 l 524 393 q 295 347 372 393 q 218 225 218 300 q 255 115 218 150 q 354 79 292 79 m 378 1111 q 283 1188 350 1129 q 179 1292 217 1247 l 264 1364 l 435 1154 l 378 1111 m 379 899 q 238 944 296 899 q 181 1068 181 989 q 183 1103 181 1093 l 251 1103 q 251 1092 251 1100 q 251 1079 250 1085 q 379 996 260 996 q 470 1017 442 996 q 504 1079 499 1038 q 504 1103 507 1093 l 571 1103 q 574 1089 572 1097 q 575 1069 575 1081 q 517 944 575 990 q 379 899 458 899 z "},"ẳ":{"ha":779,"x_min":63,"x_max":744,"o":"m 63 208 q 193 401 63 339 q 524 467 324 463 l 524 506 q 510 608 524 571 q 462 663 496 646 q 365 681 428 681 q 238 660 294 681 q 126 611 182 640 l 92 683 q 158 724 110 699 q 271 768 207 749 q 399 788 335 788 q 555 760 497 788 q 638 674 613 733 q 663 514 663 614 l 663 68 l 744 68 l 744 7 q 674 -7 717 0 q 600 -14 632 -14 q 547 -2 561 -14 q 533 50 533 10 l 533 96 q 431 19 492 54 q 294 -15 371 -15 q 128 42 194 -15 q 63 208 63 100 m 354 79 q 438 101 390 79 q 524 154 485 124 l 524 393 q 295 347 372 393 q 218 225 218 300 q 255 115 218 150 q 354 79 292 79 m 353 1083 q 336 1129 336 1103 q 347 1158 336 1147 q 381 1185 357 1169 q 408 1207 399 1197 q 418 1229 418 1217 q 346 1286 418 1279 l 338 1286 q 316 1285 326 1286 q 299 1281 306 1283 l 297 1356 q 320 1362 299 1358 q 357 1365 342 1365 q 469 1333 428 1365 q 510 1242 510 1301 q 495 1195 510 1213 q 450 1154 481 1178 q 418 1131 433 1144 q 403 1100 403 1119 q 406 1083 403 1094 l 353 1083 m 379 899 q 238 944 296 899 q 181 1068 181 989 q 183 1103 181 1093 l 251 1103 q 251 1092 251 1100 q 251 1079 250 1085 q 379 996 260 996 q 470 1017 442 996 q 504 1079 499 1038 q 504 1103 507 1093 l 571 1103 q 574 1089 572 1097 q 575 1069 575 1081 q 517 944 575 990 q 379 899 458 899 z "},"ẵ":{"ha":779,"x_min":63,"x_max":744,"o":"m 63 208 q 193 401 63 339 q 524 467 324 463 l 524 506 q 510 608 524 571 q 462 663 496 646 q 365 681 428 681 q 238 660 294 681 q 126 611 182 640 l 92 683 q 158 724 110 699 q 271 768 207 749 q 399 788 335 788 q 555 760 497 788 q 638 674 613 733 q 663 514 663 614 l 663 68 l 744 68 l 744 7 q 674 -7 717 0 q 600 -14 632 -14 q 547 -2 561 -14 q 533 50 533 10 l 533 96 q 431 19 492 54 q 294 -15 371 -15 q 128 42 194 -15 q 63 208 63 100 m 354 79 q 438 101 390 79 q 524 154 485 124 l 524 393 q 295 347 372 393 q 218 225 218 300 q 255 115 218 150 q 354 79 292 79 m 174 1238 q 222 1324 186 1289 q 308 1358 257 1358 q 358 1348 338 1358 q 400 1318 378 1338 q 433 1295 421 1303 q 464 1288 446 1288 q 501 1301 485 1288 q 526 1338 517 1315 l 576 1315 q 528 1229 563 1263 q 443 1196 493 1196 q 395 1206 414 1196 q 353 1235 376 1215 q 320 1258 335 1250 q 288 1267 306 1267 q 251 1254 264 1267 q 224 1217 238 1242 l 174 1238 m 379 899 q 238 944 296 899 q 181 1068 181 989 q 183 1103 181 1093 l 251 1103 q 251 1092 251 1100 q 251 1079 250 1085 q 379 996 260 996 q 470 1017 442 996 q 504 1079 499 1038 q 504 1103 507 1093 l 571 1103 q 574 1089 572 1097 q 575 1069 575 1081 q 517 944 575 990 q 379 899 458 899 z "},"ǎ":{"ha":779,"x_min":63,"x_max":744,"o":"m 63 208 q 193 401 63 339 q 524 467 324 463 l 524 506 q 510 608 524 571 q 462 663 496 646 q 365 681 428 681 q 238 660 294 681 q 126 611 182 640 l 92 683 q 158 724 110 699 q 271 768 207 749 q 399 788 335 788 q 555 760 497 788 q 638 674 613 733 q 663 514 663 614 l 663 68 l 744 68 l 744 7 q 674 -7 717 0 q 600 -14 632 -14 q 547 -2 561 -14 q 533 50 533 10 l 533 96 q 431 19 492 54 q 294 -15 371 -15 q 128 42 194 -15 q 63 208 63 100 m 354 79 q 438 101 390 79 q 524 154 485 124 l 524 393 q 295 347 372 393 q 218 225 218 300 q 255 115 218 150 q 354 79 292 79 m 379 996 l 578 1197 l 629 1160 l 435 889 l 324 889 l 128 1158 l 183 1197 l 379 996 z "},"â":{"ha":779,"x_min":63,"x_max":744,"o":"m 63 208 q 193 401 63 339 q 524 467 324 463 l 524 506 q 510 608 524 571 q 462 663 496 646 q 365 681 428 681 q 238 660 294 681 q 126 611 182 640 l 92 683 q 158 724 110 699 q 271 768 207 749 q 399 788 335 788 q 555 760 497 788 q 638 674 613 733 q 663 514 663 614 l 663 68 l 744 68 l 744 7 q 674 -7 717 0 q 600 -14 632 -14 q 547 -2 561 -14 q 533 50 533 10 l 533 96 q 431 19 492 54 q 294 -15 371 -15 q 128 42 194 -15 q 63 208 63 100 m 354 79 q 438 101 390 79 q 524 154 485 124 l 524 393 q 295 347 372 393 q 218 225 218 300 q 255 115 218 150 q 354 79 292 79 m 435 1194 l 629 924 l 574 885 l 379 1085 l 178 885 l 125 922 l 324 1194 l 435 1194 z "},"ấ":{"ha":779,"x_min":63,"x_max":817,"o":"m 63 208 q 193 401 63 339 q 524 467 324 463 l 524 506 q 510 608 524 571 q 462 663 496 646 q 365 681 428 681 q 238 660 294 681 q 126 611 182 640 l 92 683 q 158 724 110 699 q 271 768 207 749 q 399 788 335 788 q 555 760 497 788 q 638 674 613 733 q 663 514 663 614 l 663 68 l 744 68 l 744 7 q 674 -7 717 0 q 600 -14 632 -14 q 547 -2 561 -14 q 533 50 533 10 l 533 96 q 431 19 492 54 q 294 -15 371 -15 q 128 42 194 -15 q 63 208 63 100 m 354 79 q 438 101 390 79 q 524 154 485 124 l 524 393 q 295 347 372 393 q 218 225 218 300 q 255 115 218 150 q 354 79 292 79 m 543 1136 l 729 1361 l 817 1286 q 710 1178 789 1247 q 589 1092 631 1110 l 543 1136 m 431 1140 l 608 929 l 556 896 l 381 1044 l 197 896 l 150 928 l 331 1140 l 431 1140 z "},"ậ":{"ha":779,"x_min":63,"x_max":744,"o":"m 63 208 q 193 401 63 339 q 524 467 324 463 l 524 506 q 510 608 524 571 q 462 663 496 646 q 365 681 428 681 q 238 660 294 681 q 126 611 182 640 l 92 683 q 158 724 110 699 q 271 768 207 749 q 399 788 335 788 q 555 760 497 788 q 638 674 613 733 q 663 514 663 614 l 663 68 l 744 68 l 744 7 q 674 -7 717 0 q 600 -14 632 -14 q 547 -2 561 -14 q 533 50 533 10 l 533 96 q 431 19 492 54 q 294 -15 371 -15 q 128 42 194 -15 q 63 208 63 100 m 354 79 q 438 101 390 79 q 524 154 485 124 l 524 393 q 295 347 372 393 q 218 225 218 300 q 255 115 218 150 q 354 79 292 79 m 381 -283 q 320 -258 343 -283 q 297 -193 297 -232 q 323 -118 297 -149 q 394 -87 349 -87 q 460 -114 436 -87 q 483 -178 483 -140 q 457 -253 483 -224 q 382 -283 431 -283 l 381 -283 m 435 1194 l 629 924 l 574 885 l 379 1085 l 178 885 l 125 922 l 324 1194 l 435 1194 z "},"ầ":{"ha":779,"x_min":63,"x_max":744,"o":"m 63 208 q 193 401 63 339 q 524 467 324 463 l 524 506 q 510 608 524 571 q 462 663 496 646 q 365 681 428 681 q 238 660 294 681 q 126 611 182 640 l 92 683 q 158 724 110 699 q 271 768 207 749 q 399 788 335 788 q 555 760 497 788 q 638 674 613 733 q 663 514 663 614 l 663 68 l 744 68 l 744 7 q 674 -7 717 0 q 600 -14 632 -14 q 547 -2 561 -14 q 533 50 533 10 l 533 96 q 431 19 492 54 q 294 -15 371 -15 q 128 42 194 -15 q 63 208 63 100 m 354 79 q 438 101 390 79 q 524 154 485 124 l 524 393 q 295 347 372 393 q 218 225 218 300 q 255 115 218 150 q 354 79 292 79 m 656 1128 q 558 1192 617 1144 q 457 1290 500 1240 l 544 1365 l 700 1171 l 656 1128 m 431 1140 l 608 929 l 556 896 l 381 1044 l 197 896 l 150 928 l 331 1140 l 431 1140 z "},"ẩ":{"ha":779,"x_min":63,"x_max":744,"o":"m 63 208 q 193 401 63 339 q 524 467 324 463 l 524 506 q 510 608 524 571 q 462 663 496 646 q 365 681 428 681 q 238 660 294 681 q 126 611 182 640 l 92 683 q 158 724 110 699 q 271 768 207 749 q 399 788 335 788 q 555 760 497 788 q 638 674 613 733 q 663 514 663 614 l 663 68 l 744 68 l 744 7 q 674 -7 717 0 q 600 -14 632 -14 q 547 -2 561 -14 q 533 50 533 10 l 533 96 q 431 19 492 54 q 294 -15 371 -15 q 128 42 194 -15 q 63 208 63 100 m 354 79 q 438 101 390 79 q 524 154 485 124 l 524 393 q 295 347 372 393 q 218 225 218 300 q 255 115 218 150 q 354 79 292 79 m 576 1056 q 558 1090 568 1065 q 549 1128 549 1115 q 560 1156 549 1144 q 592 1183 571 1168 q 622 1209 613 1199 q 632 1235 632 1219 q 614 1272 632 1260 q 557 1283 596 1283 q 523 1279 540 1283 q 497 1272 506 1275 l 497 1357 q 526 1363 500 1360 q 579 1367 553 1367 q 692 1334 653 1367 q 731 1246 731 1301 q 710 1185 731 1210 q 649 1128 690 1160 q 635 1099 635 1118 q 640 1067 635 1083 l 576 1056 m 431 1140 l 608 929 l 556 896 l 381 1044 l 197 896 l 150 928 l 331 1140 l 431 1140 z "},"ẫ":{"ha":779,"x_min":63,"x_max":744,"o":"m 63 208 q 193 401 63 339 q 524 467 324 463 l 524 506 q 510 608 524 571 q 462 663 496 646 q 365 681 428 681 q 238 660 294 681 q 126 611 182 640 l 92 683 q 158 724 110 699 q 271 768 207 749 q 399 788 335 788 q 555 760 497 788 q 638 674 613 733 q 663 514 663 614 l 663 68 l 744 68 l 744 7 q 674 -7 717 0 q 600 -14 632 -14 q 547 -2 561 -14 q 533 50 533 10 l 533 96 q 431 19 492 54 q 294 -15 371 -15 q 128 42 194 -15 q 63 208 63 100 m 354 79 q 438 101 390 79 q 524 154 485 124 l 524 393 q 295 347 372 393 q 218 225 218 300 q 255 115 218 150 q 354 79 292 79 m 176 1238 q 224 1324 189 1289 q 311 1358 260 1358 q 360 1348 340 1358 q 403 1318 381 1338 q 436 1295 424 1303 q 467 1288 449 1288 q 503 1301 488 1288 q 529 1338 519 1315 l 579 1315 q 531 1229 565 1263 q 446 1196 496 1196 q 398 1206 417 1196 q 356 1235 379 1215 q 323 1258 338 1250 q 290 1267 308 1267 q 253 1254 267 1267 q 226 1217 240 1242 l 176 1238 m 431 1140 l 608 929 l 556 896 l 381 1044 l 197 896 l 150 928 l 331 1140 l 431 1140 z "},"ä":{"ha":779,"x_min":63,"x_max":744,"o":"m 63 208 q 193 401 63 339 q 524 467 324 463 l 524 506 q 510 608 524 571 q 462 663 496 646 q 365 681 428 681 q 238 660 294 681 q 126 611 182 640 l 92 683 q 158 724 110 699 q 271 768 207 749 q 399 788 335 788 q 555 760 497 788 q 638 674 613 733 q 663 514 663 614 l 663 68 l 744 68 l 744 7 q 674 -7 717 0 q 600 -14 632 -14 q 547 -2 561 -14 q 533 50 533 10 l 533 96 q 431 19 492 54 q 294 -15 371 -15 q 128 42 194 -15 q 63 208 63 100 m 354 79 q 438 101 390 79 q 524 154 485 124 l 524 393 q 295 347 372 393 q 218 225 218 300 q 255 115 218 150 q 354 79 292 79 m 215 913 q 156 938 178 913 q 135 1000 135 963 q 158 1073 135 1043 q 226 1103 182 1103 q 288 1076 265 1103 q 310 1014 310 1050 q 286 941 310 969 q 215 913 263 913 m 528 913 q 472 938 493 913 q 450 1000 450 964 q 474 1073 450 1043 q 542 1103 497 1103 q 602 1076 581 1103 q 624 1014 624 1050 q 600 941 624 969 q 528 913 576 913 z "},"ạ":{"ha":779,"x_min":63,"x_max":744,"o":"m 63 208 q 193 401 63 339 q 524 467 324 463 l 524 506 q 510 608 524 571 q 462 663 496 646 q 365 681 428 681 q 238 660 294 681 q 126 611 182 640 l 92 683 q 158 724 110 699 q 271 768 207 749 q 399 788 335 788 q 555 760 497 788 q 638 674 613 733 q 663 514 663 614 l 663 68 l 744 68 l 744 7 q 674 -7 717 0 q 600 -14 632 -14 q 547 -2 561 -14 q 533 50 533 10 l 533 96 q 431 19 492 54 q 294 -15 371 -15 q 128 42 194 -15 q 63 208 63 100 m 354 79 q 438 101 390 79 q 524 154 485 124 l 524 393 q 295 347 372 393 q 218 225 218 300 q 255 115 218 150 q 354 79 292 79 m 381 -283 q 320 -258 343 -283 q 297 -193 297 -232 q 323 -118 297 -149 q 394 -87 349 -87 q 460 -114 436 -87 q 483 -178 483 -140 q 457 -253 483 -224 q 382 -283 431 -283 l 381 -283 z "},"à":{"ha":779,"x_min":63,"x_max":744,"o":"m 63 208 q 193 401 63 339 q 524 467 324 463 l 524 506 q 510 608 524 571 q 462 663 496 646 q 365 681 428 681 q 238 660 294 681 q 126 611 182 640 l 92 683 q 158 724 110 699 q 271 768 207 749 q 399 788 335 788 q 555 760 497 788 q 638 674 613 733 q 663 514 663 614 l 663 68 l 744 68 l 744 7 q 674 -7 717 0 q 600 -14 632 -14 q 547 -2 561 -14 q 533 50 533 10 l 533 96 q 431 19 492 54 q 294 -15 371 -15 q 128 42 194 -15 q 63 208 63 100 m 354 79 q 438 101 390 79 q 524 154 485 124 l 524 393 q 295 347 372 393 q 218 225 218 300 q 255 115 218 150 q 354 79 292 79 m 419 907 q 333 963 392 918 q 221 1058 275 1007 q 149 1140 167 1110 l 249 1228 l 472 953 l 421 907 l 419 907 z "},"ả":{"ha":779,"x_min":63,"x_max":744,"o":"m 63 208 q 193 401 63 339 q 524 467 324 463 l 524 506 q 510 608 524 571 q 462 663 496 646 q 365 681 428 681 q 238 660 294 681 q 126 611 182 640 l 92 683 q 158 724 110 699 q 271 768 207 749 q 399 788 335 788 q 555 760 497 788 q 638 674 613 733 q 663 514 663 614 l 663 68 l 744 68 l 744 7 q 674 -7 717 0 q 600 -14 632 -14 q 547 -2 561 -14 q 533 50 533 10 l 533 96 q 431 19 492 54 q 294 -15 371 -15 q 128 42 194 -15 q 63 208 63 100 m 354 79 q 438 101 390 79 q 524 154 485 124 l 524 393 q 295 347 372 393 q 218 225 218 300 q 255 115 218 150 q 354 79 292 79 m 354 863 q 335 895 344 875 q 326 931 326 915 q 335 951 326 943 q 361 972 343 960 q 393 999 382 986 q 404 1029 404 1011 q 385 1083 404 1063 q 326 1103 365 1103 q 264 1088 288 1103 l 261 1175 q 351 1196 306 1196 q 473 1157 429 1196 q 517 1050 517 1118 q 501 996 517 1015 q 451 954 485 976 q 422 932 428 938 q 413 894 413 922 q 417 863 413 878 l 354 863 z "},"ā":{"ha":779,"x_min":63,"x_max":744,"o":"m 63 208 q 193 401 63 339 q 524 467 324 463 l 524 506 q 510 608 524 571 q 462 663 496 646 q 365 681 428 681 q 238 660 294 681 q 126 611 182 640 l 92 683 q 158 724 110 699 q 271 768 207 749 q 399 788 335 788 q 555 760 497 788 q 638 674 613 733 q 663 514 663 614 l 663 68 l 744 68 l 744 7 q 674 -7 717 0 q 600 -14 632 -14 q 547 -2 561 -14 q 533 50 533 10 l 533 96 q 431 19 492 54 q 294 -15 371 -15 q 128 42 194 -15 q 63 208 63 100 m 354 79 q 438 101 390 79 q 524 154 485 124 l 524 393 q 295 347 372 393 q 218 225 218 300 q 255 115 218 150 q 354 79 292 79 m 571 933 l 189 933 l 189 1032 l 571 1032 l 571 933 z "},"ą":{"ha":779,"x_min":63,"x_max":790,"o":"m 294 -15 q 128 42 194 -15 q 63 208 63 100 q 193 401 63 339 q 524 467 324 463 l 524 506 q 510 608 524 571 q 462 663 496 646 q 365 681 428 681 q 235 660 294 681 q 122 611 176 640 l 88 683 q 154 724 104 699 q 269 768 204 749 q 399 788 335 788 q 555 760 497 788 q 638 674 613 733 q 663 514 663 614 l 663 68 l 744 68 l 744 7 l 701 -3 q 596 -80 642 -32 q 550 -167 550 -128 q 574 -230 550 -210 q 647 -250 599 -250 q 713 -238 685 -250 q 781 -204 742 -226 l 790 -269 q 588 -337 697 -337 q 470 -306 517 -337 q 424 -206 424 -274 q 468 -103 424 -157 q 579 -12 513 -50 q 543 3 553 -10 q 533 50 533 15 l 533 96 q 431 19 492 54 q 294 -15 371 -15 m 218 225 q 255 115 218 150 q 354 79 292 79 q 438 101 390 79 q 524 154 485 124 l 524 393 q 295 347 372 393 q 218 225 218 300 z "},"å":{"ha":779,"x_min":63,"x_max":744,"o":"m 63 208 q 193 401 63 339 q 524 467 324 463 l 524 506 q 510 608 524 571 q 462 663 496 646 q 365 681 428 681 q 238 660 294 681 q 126 611 182 640 l 92 683 q 158 724 110 699 q 271 768 207 749 q 399 788 335 788 q 555 760 497 788 q 638 674 613 733 q 663 514 663 614 l 663 68 l 744 68 l 744 7 q 674 -7 717 0 q 600 -14 632 -14 q 547 -2 561 -14 q 533 50 533 10 l 533 96 q 431 19 492 54 q 294 -15 371 -15 q 128 42 194 -15 q 63 208 63 100 m 354 79 q 438 101 390 79 q 524 154 485 124 l 524 393 q 295 347 372 393 q 218 225 218 300 q 255 115 218 150 q 354 79 292 79 m 378 889 q 210 942 267 889 q 153 1081 153 996 q 186 1181 153 1139 q 274 1246 219 1224 q 388 1268 328 1268 q 547 1217 490 1268 q 604 1082 604 1165 q 539 941 604 993 q 378 889 474 889 m 381 954 q 507 1074 507 954 q 476 1166 507 1131 q 382 1201 446 1201 q 285 1170 319 1201 q 250 1083 250 1139 q 283 991 250 1028 q 381 954 317 954 z "},"ǻ":{"ha":779,"x_min":63,"x_max":744,"o":"m 63 208 q 193 401 63 339 q 524 467 324 463 l 524 506 q 510 608 524 571 q 462 663 496 646 q 365 681 428 681 q 238 660 294 681 q 126 611 182 640 l 92 683 q 158 724 110 699 q 271 768 207 749 q 399 788 335 788 q 555 760 497 788 q 638 674 613 733 q 663 514 663 614 l 663 68 l 744 68 l 744 7 q 674 -7 717 0 q 600 -14 632 -14 q 547 -2 561 -14 q 533 50 533 10 l 533 96 q 431 19 492 54 q 294 -15 371 -15 q 128 42 194 -15 q 63 208 63 100 m 354 79 q 438 101 390 79 q 524 154 485 124 l 524 393 q 295 347 372 393 q 218 225 218 300 q 255 115 218 150 q 354 79 292 79 m 153 1044 q 199 1155 153 1114 q 318 1208 246 1196 l 418 1365 l 536 1311 q 444 1211 497 1247 q 564 1155 521 1199 q 607 1046 607 1111 q 542 914 607 958 q 378 869 476 869 q 211 916 269 869 q 153 1044 153 963 m 254 1047 q 286 968 254 996 q 381 940 318 940 q 476 962 444 940 q 507 1038 507 983 q 476 1117 507 1089 q 382 1144 444 1144 q 288 1118 322 1144 q 254 1047 254 1092 z "},"ã":{"ha":779,"x_min":63,"x_max":744,"o":"m 63 208 q 193 401 63 339 q 524 467 324 463 l 524 506 q 510 608 524 571 q 462 663 496 646 q 365 681 428 681 q 238 660 294 681 q 126 611 182 640 l 92 683 q 158 724 110 699 q 271 768 207 749 q 399 788 335 788 q 555 760 497 788 q 638 674 613 733 q 663 514 663 614 l 663 68 l 744 68 l 744 7 q 674 -7 717 0 q 600 -14 632 -14 q 547 -2 561 -14 q 533 50 533 10 l 533 96 q 431 19 492 54 q 294 -15 371 -15 q 128 42 194 -15 q 63 208 63 100 m 354 79 q 438 101 390 79 q 524 154 485 124 l 524 393 q 295 347 372 393 q 218 225 218 300 q 255 115 218 150 q 354 79 292 79 m 113 972 q 170 1076 126 1033 q 281 1118 214 1118 q 351 1101 322 1118 q 414 1053 379 1085 q 456 1019 440 1029 q 492 1008 472 1008 q 549 1035 529 1008 q 576 1090 569 1061 l 647 1056 q 592 950 632 992 q 486 908 551 908 q 419 924 446 908 q 357 972 392 940 q 313 1007 331 996 q 275 1018 296 1018 q 222 1000 240 1018 q 192 962 203 982 q 178 935 182 942 l 113 972 z "},"æ":{"ha":1207,"x_min":57,"x_max":1151,"o":"m 292 -15 q 124 41 192 -15 q 57 206 57 97 q 186 399 57 336 q 514 467 315 463 q 503 604 514 560 q 460 666 492 649 q 360 683 428 683 q 233 663 290 683 q 111 610 175 643 l 76 681 q 148 724 96 699 q 266 769 200 750 q 396 788 332 788 q 542 763 488 788 q 621 685 596 739 q 734 764 669 736 q 874 792 799 792 q 1076 720 1004 792 q 1151 515 1147 649 q 1142 386 1151 431 l 663 386 q 726 165 665 249 q 900 81 788 81 q 1016 101 956 81 q 1110 147 1076 121 l 1136 88 q 1017 15 1096 46 q 858 -15 939 -15 q 688 24 760 -15 q 574 133 617 63 q 460 30 533 75 q 292 -15 386 -15 m 999 460 q 1000 519 1000 478 q 963 662 1000 610 q 849 714 926 714 q 719 656 768 714 q 664 460 671 597 l 999 460 m 351 79 q 465 114 411 79 q 544 193 519 149 q 513 399 513 283 q 291 349 367 397 q 215 224 215 300 q 252 114 215 149 q 351 79 289 79 z "},"ǽ":{"ha":1207,"x_min":57,"x_max":1151,"o":"m 292 -15 q 124 41 192 -15 q 57 206 57 97 q 186 399 57 336 q 514 467 315 463 q 503 604 514 560 q 460 666 492 649 q 360 683 428 683 q 233 663 290 683 q 111 610 175 643 l 76 681 q 148 724 96 699 q 266 769 200 750 q 396 788 332 788 q 542 763 488 788 q 621 685 596 739 q 734 764 669 736 q 874 792 799 792 q 1076 720 1004 792 q 1151 515 1147 649 q 1142 386 1151 431 l 663 386 q 726 165 665 249 q 900 81 788 81 q 1016 101 956 81 q 1110 147 1076 121 l 1136 88 q 1017 15 1096 46 q 858 -15 939 -15 q 688 24 760 -15 q 574 133 617 63 q 460 30 533 75 q 292 -15 386 -15 m 999 460 q 1000 519 1000 478 q 963 662 1000 610 q 849 714 926 714 q 719 656 768 714 q 664 460 671 597 l 999 460 m 351 79 q 465 114 411 79 q 544 193 519 149 q 513 399 513 283 q 291 349 367 397 q 215 224 215 300 q 252 114 215 149 q 351 79 289 79 m 524 953 l 746 1229 l 851 1140 q 726 1011 822 1093 q 578 907 631 929 l 524 953 z "},"b":{"ha":843,"x_min":-3,"x_max":785,"o":"m -3 1111 l 219 1138 l 222 1138 l 254 1117 l 254 699 q 353 765 296 739 q 482 792 411 792 q 634 751 565 792 q 744 626 703 711 q 785 413 785 542 q 735 196 785 293 q 594 42 686 99 q 382 -15 503 -15 q 207 3 286 -15 q 111 38 128 22 l 111 1038 l -3 1053 l -3 1111 m 425 693 q 327 669 372 693 q 254 614 282 644 l 254 103 q 302 72 263 83 q 392 60 342 60 q 564 146 499 60 q 629 397 629 232 q 572 619 629 546 q 425 693 515 693 z "},"ḃ":{"ha":843,"x_min":-3,"x_max":785,"o":"m -3 1111 l 219 1138 l 222 1138 l 254 1117 l 254 699 q 353 765 296 739 q 482 792 411 792 q 634 751 565 792 q 744 626 703 711 q 785 413 785 542 q 735 196 785 293 q 594 42 686 99 q 382 -15 503 -15 q 207 3 286 -15 q 111 38 128 22 l 111 1038 l -3 1053 l -3 1111 m 425 693 q 327 669 372 693 q 254 614 282 644 l 254 103 q 302 72 263 83 q 392 60 342 60 q 564 146 499 60 q 629 397 629 232 q 572 619 629 546 q 425 693 515 693 m 518 910 q 453 935 475 910 q 431 999 431 960 q 458 1072 431 1043 q 532 1101 485 1101 q 601 1076 579 1101 q 624 1013 624 1051 q 597 938 624 965 q 519 910 569 910 l 518 910 z "},"ḅ":{"ha":843,"x_min":-3,"x_max":785,"o":"m -3 1111 l 219 1138 l 222 1138 l 254 1117 l 254 699 q 353 765 296 739 q 482 792 411 792 q 634 751 565 792 q 744 626 703 711 q 785 413 785 542 q 735 196 785 293 q 594 42 686 99 q 382 -15 503 -15 q 207 3 286 -15 q 111 38 128 22 l 111 1038 l -3 1053 l -3 1111 m 425 693 q 327 669 372 693 q 254 614 282 644 l 254 103 q 302 72 263 83 q 392 60 342 60 q 564 146 499 60 q 629 397 629 232 q 572 619 629 546 q 425 693 515 693 m 372 -283 q 312 -258 335 -283 q 289 -193 289 -232 q 315 -118 289 -149 q 386 -87 340 -87 q 451 -114 428 -87 q 475 -178 475 -140 q 449 -253 475 -224 q 374 -283 422 -283 l 372 -283 z "},"c":{"ha":713,"x_min":46,"x_max":654,"o":"m 46 381 q 91 589 46 496 q 224 737 136 682 q 436 792 313 792 q 539 781 496 792 q 642 750 582 769 l 636 536 l 546 536 l 515 678 q 410 717 507 717 q 256 638 313 717 q 200 415 200 560 q 263 166 200 251 q 428 81 326 81 q 538 99 486 81 q 628 142 590 117 l 654 86 q 544 16 617 47 q 396 -15 471 -15 q 203 36 282 -15 q 85 177 125 88 q 46 381 46 267 z "},"ć":{"ha":713,"x_min":46,"x_max":654,"o":"m 46 381 q 91 589 46 496 q 224 737 136 682 q 436 792 313 792 q 539 781 496 792 q 642 750 582 769 l 636 536 l 546 536 l 515 678 q 410 717 507 717 q 256 638 313 717 q 200 415 200 560 q 263 166 200 251 q 428 81 326 81 q 538 99 486 81 q 628 142 590 117 l 654 86 q 544 16 617 47 q 396 -15 471 -15 q 203 36 282 -15 q 85 177 125 88 q 46 381 46 267 m 290 953 l 513 1229 l 618 1140 q 493 1011 589 1093 q 344 907 397 929 l 290 953 z "},"č":{"ha":713,"x_min":46,"x_max":654,"o":"m 46 381 q 91 589 46 496 q 224 737 136 682 q 436 792 313 792 q 539 781 496 792 q 642 750 582 769 l 636 536 l 546 536 l 515 678 q 410 717 507 717 q 256 638 313 717 q 200 415 200 560 q 263 166 200 251 q 428 81 326 81 q 538 99 486 81 q 628 142 590 117 l 654 86 q 544 16 617 47 q 396 -15 471 -15 q 203 36 282 -15 q 85 177 125 88 q 46 381 46 267 m 399 996 l 597 1197 l 649 1160 l 454 889 l 343 889 l 147 1158 l 203 1197 l 399 996 z "},"ç":{"ha":713,"x_min":46,"x_max":654,"o":"m 46 381 q 91 589 46 496 q 224 737 136 682 q 436 792 313 792 q 539 781 496 792 q 642 750 582 769 l 636 536 l 546 536 l 515 678 q 410 717 507 717 q 256 638 313 717 q 200 415 200 560 q 263 166 200 251 q 428 81 326 81 q 538 99 486 81 q 628 142 590 117 l 654 86 q 551 19 618 49 q 415 -14 485 -10 q 467 -94 444 -47 q 490 -189 490 -140 q 445 -301 490 -267 q 310 -335 400 -335 q 258 -329 286 -335 q 211 -317 231 -324 l 213 -221 q 244 -229 226 -226 q 275 -232 263 -232 q 354 -213 331 -232 q 378 -133 378 -194 q 339 -11 378 -78 q 121 115 196 7 q 46 381 46 222 z "},"ĉ":{"ha":713,"x_min":46,"x_max":654,"o":"m 46 381 q 91 589 46 496 q 224 737 136 682 q 436 792 313 792 q 539 781 496 792 q 642 750 582 769 l 636 536 l 546 536 l 515 678 q 410 717 507 717 q 256 638 313 717 q 200 415 200 560 q 263 166 200 251 q 428 81 326 81 q 538 99 486 81 q 628 142 590 117 l 654 86 q 544 16 617 47 q 396 -15 471 -15 q 203 36 282 -15 q 85 177 125 88 q 46 381 46 267 m 454 1194 l 649 924 l 593 885 l 399 1085 l 197 885 l 144 922 l 343 1194 l 454 1194 z "},"ċ":{"ha":713,"x_min":46,"x_max":654,"o":"m 46 381 q 91 589 46 496 q 224 737 136 682 q 436 792 313 792 q 539 781 496 792 q 642 750 582 769 l 636 536 l 546 536 l 515 678 q 410 717 507 717 q 256 638 313 717 q 200 415 200 560 q 263 166 200 251 q 428 81 326 81 q 538 99 486 81 q 628 142 590 117 l 654 86 q 544 16 617 47 q 396 -15 471 -15 q 203 36 282 -15 q 85 177 125 88 q 46 381 46 267 m 393 910 q 328 935 350 910 q 306 999 306 960 q 333 1072 306 1043 q 407 1101 360 1101 q 476 1076 454 1101 q 499 1013 499 1051 q 472 938 499 965 q 394 910 444 910 l 393 910 z "},"d":{"ha":863,"x_min":58,"x_max":814,"o":"m 363 -15 q 210 26 279 -15 q 99 154 140 68 q 58 367 58 240 q 107 582 58 485 q 247 735 156 679 q 461 792 338 792 q 590 776 532 792 l 590 1036 l 449 1053 l 449 1113 l 699 1138 l 703 1138 l 733 1115 l 733 71 l 814 71 l 814 7 q 737 -8 769 -3 q 668 -14 704 -14 q 617 -1 632 -14 q 601 51 601 11 l 601 96 q 499 17 563 49 q 363 -15 436 -15 m 418 83 q 519 108 472 83 q 590 164 567 132 l 590 672 q 538 702 579 689 q 451 715 497 715 q 278 633 343 715 q 214 378 214 550 q 271 156 214 228 q 418 83 328 83 z "},"ð":{"ha":807,"x_min":54,"x_max":754,"o":"m 406 -15 q 143 88 232 -15 q 54 363 54 190 q 103 597 54 500 q 235 743 153 694 q 411 792 317 792 q 547 764 489 792 q 460 914 517 842 q 325 1036 403 986 l 229 917 l 163 963 l 264 1079 q 185 1124 226 1103 q 114 1151 143 1144 l 142 1219 q 321 1147 233 1192 l 410 1256 l 472 1206 l 389 1107 q 656 827 558 992 q 754 451 754 663 q 719 224 754 329 q 606 51 683 118 q 406 -15 528 -15 m 410 60 q 599 438 599 60 q 590 565 599 508 q 569 657 581 622 q 512 701 551 681 q 415 722 472 722 q 267 631 322 722 q 213 376 213 540 q 260 149 213 239 q 410 60 307 60 z "},"ď":{"ha":863,"x_min":58,"x_max":960,"o":"m 363 -15 q 210 26 279 -15 q 99 154 140 68 q 58 367 58 240 q 107 582 58 485 q 247 735 156 679 q 461 792 338 792 q 590 776 532 792 l 590 1036 l 449 1053 l 449 1113 l 699 1138 l 703 1138 l 733 1115 l 733 71 l 814 71 l 814 7 q 737 -8 769 -3 q 668 -14 704 -14 q 617 -1 632 -14 q 601 51 601 11 l 601 96 q 499 17 563 49 q 363 -15 436 -15 m 418 83 q 519 108 472 83 q 590 164 567 132 l 590 672 q 538 702 579 689 q 451 715 497 715 q 278 633 343 715 q 214 378 214 550 q 271 156 214 228 q 418 83 328 83 m 832 833 l 828 844 q 836 983 836 899 q 821 1106 836 1071 l 828 1131 l 947 1131 q 960 1028 960 1094 q 947 926 960 988 q 915 833 933 865 l 832 833 z "},"đ":{"ha":861,"x_min":56,"x_max":831,"o":"m 586 1036 l 444 1053 l 444 1113 l 696 1138 l 699 1138 l 731 1115 l 731 953 l 831 953 l 831 881 l 731 881 l 731 71 l 811 71 l 811 7 q 734 -8 767 -3 q 665 -14 701 -14 q 613 -1 629 -14 q 597 51 597 11 l 597 96 q 496 17 558 49 q 358 -15 433 -15 q 206 26 275 -15 q 97 154 138 68 q 56 367 56 240 q 104 582 56 485 q 244 735 153 679 q 457 792 335 792 q 586 776 529 792 l 586 881 l 404 881 l 404 953 l 586 953 l 586 1036 m 415 83 q 516 108 469 83 q 586 164 563 132 l 586 672 q 535 702 575 689 q 449 715 494 715 q 276 633 340 715 q 211 378 211 550 q 268 156 211 228 q 415 83 325 83 z "},"ḋ":{"ha":863,"x_min":58,"x_max":814,"o":"m 363 -15 q 210 26 279 -15 q 99 154 140 68 q 58 367 58 240 q 107 582 58 485 q 247 735 156 679 q 461 792 338 792 q 590 776 532 792 l 590 1036 l 449 1053 l 449 1113 l 699 1138 l 703 1138 l 733 1115 l 733 71 l 814 71 l 814 7 q 737 -8 769 -3 q 668 -14 704 -14 q 617 -1 632 -14 q 601 51 601 11 l 601 96 q 499 17 563 49 q 363 -15 436 -15 m 418 83 q 519 108 472 83 q 590 164 567 132 l 590 672 q 538 702 579 689 q 451 715 497 715 q 278 633 343 715 q 214 378 214 550 q 271 156 214 228 q 418 83 328 83 m 222 886 q 157 911 179 886 q 135 975 135 936 q 162 1049 135 1019 q 236 1078 189 1078 q 306 1053 283 1078 q 328 989 328 1028 q 301 914 328 942 q 224 886 274 886 l 222 886 z "},"ḍ":{"ha":863,"x_min":58,"x_max":814,"o":"m 363 -15 q 210 26 279 -15 q 99 154 140 68 q 58 367 58 240 q 107 582 58 485 q 247 735 156 679 q 461 792 338 792 q 590 776 532 792 l 590 1036 l 449 1053 l 449 1113 l 699 1138 l 703 1138 l 733 1115 l 733 71 l 814 71 l 814 7 q 737 -8 769 -3 q 668 -14 704 -14 q 617 -1 632 -14 q 601 51 601 11 l 601 96 q 499 17 563 49 q 363 -15 436 -15 m 418 83 q 519 108 472 83 q 590 164 567 132 l 590 672 q 538 702 579 689 q 451 715 497 715 q 278 633 343 715 q 214 378 214 550 q 271 156 214 228 q 418 83 328 83 m 422 -283 q 362 -258 385 -283 q 339 -193 339 -232 q 365 -118 339 -149 q 436 -87 390 -87 q 501 -114 478 -87 q 525 -178 525 -140 q 499 -253 525 -224 q 424 -283 472 -283 l 422 -283 z "},"ǳ":{"ha":1632,"x_min":58,"x_max":1582,"o":"m 363 -15 q 210 26 279 -15 q 99 154 140 68 q 58 367 58 240 q 107 582 58 485 q 247 735 156 679 q 461 792 338 792 q 590 776 532 792 l 590 1036 l 449 1053 l 449 1113 l 699 1138 l 703 1138 l 733 1115 l 733 71 l 814 71 l 814 7 q 737 -8 769 -3 q 668 -14 704 -14 q 617 -1 632 -14 q 601 51 601 11 l 601 96 q 499 17 563 49 q 363 -15 436 -15 m 418 83 q 519 108 472 83 q 590 164 567 132 l 590 672 q 538 702 579 689 q 451 715 497 715 q 278 633 343 715 q 214 378 214 550 q 271 156 214 228 q 418 83 328 83 m 1065 682 l 1040 550 l 956 550 l 956 771 l 1546 771 l 1574 711 l 1165 164 l 1069 78 l 1443 90 l 1501 246 l 1582 236 l 1557 0 l 933 0 l 904 61 l 1319 603 l 1411 692 l 1065 682 z "},"ǆ":{"ha":1632,"x_min":58,"x_max":1582,"o":"m 363 -15 q 210 26 279 -15 q 99 154 140 68 q 58 367 58 240 q 107 582 58 485 q 247 735 156 679 q 461 792 338 792 q 590 776 532 792 l 590 1036 l 449 1053 l 449 1113 l 699 1138 l 703 1138 l 733 1115 l 733 71 l 814 71 l 814 7 q 737 -8 769 -3 q 668 -14 704 -14 q 617 -1 632 -14 q 601 51 601 11 l 601 96 q 499 17 563 49 q 363 -15 436 -15 m 418 83 q 519 108 472 83 q 590 164 567 132 l 590 672 q 538 702 579 689 q 451 715 497 715 q 278 633 343 715 q 214 378 214 550 q 271 156 214 228 q 418 83 328 83 m 1065 682 l 1040 550 l 956 550 l 956 771 l 1546 771 l 1574 711 l 1165 164 l 1069 78 l 1443 90 l 1501 246 l 1582 236 l 1557 0 l 933 0 l 904 61 l 1319 603 l 1411 692 l 1065 682 m 1268 996 l 1467 1197 l 1518 1160 l 1324 889 l 1213 889 l 1017 1158 l 1072 1197 l 1268 996 z "},"e":{"ha":756,"x_min":60,"x_max":699,"o":"m 404 -15 q 148 94 236 -15 q 60 388 60 204 q 106 600 60 508 q 234 742 151 692 q 422 792 317 792 q 623 720 551 792 q 699 515 694 649 q 689 386 699 431 l 211 386 q 275 165 214 249 q 449 81 336 81 q 565 101 504 81 q 658 149 625 121 l 685 88 q 565 15 644 46 q 404 -15 486 -15 m 546 460 q 550 519 550 489 q 512 662 549 610 q 396 714 475 714 q 267 656 315 714 q 213 460 219 597 l 546 460 z "},"é":{"ha":756,"x_min":60,"x_max":699,"o":"m 404 -15 q 148 94 236 -15 q 60 388 60 204 q 106 600 60 508 q 234 742 151 692 q 422 792 317 792 q 623 720 551 792 q 699 515 694 649 q 689 386 699 431 l 211 386 q 275 165 214 249 q 449 81 336 81 q 565 101 504 81 q 658 149 625 121 l 685 88 q 565 15 644 46 q 404 -15 486 -15 m 546 460 q 550 519 550 489 q 512 662 549 610 q 396 714 475 714 q 267 656 315 714 q 213 460 219 597 l 546 460 m 297 953 l 519 1229 l 625 1140 q 500 1011 596 1093 q 351 907 404 929 l 297 953 z "},"ĕ":{"ha":756,"x_min":60,"x_max":699,"o":"m 404 -15 q 148 94 236 -15 q 60 388 60 204 q 106 600 60 508 q 234 742 151 692 q 422 792 317 792 q 623 720 551 792 q 699 515 694 649 q 689 386 699 431 l 211 386 q 275 165 214 249 q 449 81 336 81 q 565 101 504 81 q 658 149 625 121 l 685 88 q 565 15 644 46 q 404 -15 486 -15 m 546 460 q 550 519 550 489 q 512 662 549 610 q 396 714 475 714 q 267 656 315 714 q 213 460 219 597 l 546 460 m 410 915 q 285 946 339 915 q 204 1028 232 976 q 176 1143 176 1081 q 179 1185 176 1174 l 253 1185 q 254 1160 253 1169 q 297 1067 260 1107 q 410 1028 335 1028 q 521 1068 485 1028 q 561 1160 557 1108 q 563 1185 564 1179 l 635 1185 q 638 1144 638 1163 q 609 1031 638 1083 q 528 947 581 978 q 410 915 476 915 z "},"ě":{"ha":756,"x_min":60,"x_max":699,"o":"m 404 -15 q 148 94 236 -15 q 60 388 60 204 q 106 600 60 508 q 234 742 151 692 q 422 792 317 792 q 623 720 551 792 q 699 515 694 649 q 689 386 699 431 l 211 386 q 275 165 214 249 q 449 81 336 81 q 565 101 504 81 q 658 149 625 121 l 685 88 q 565 15 644 46 q 404 -15 486 -15 m 546 460 q 550 519 550 489 q 512 662 549 610 q 396 714 475 714 q 267 656 315 714 q 213 460 219 597 l 546 460 m 406 996 l 604 1197 l 656 1160 l 461 889 l 350 889 l 154 1158 l 210 1197 l 406 996 z "},"ȩ":{"ha":756,"x_min":60,"x_max":699,"o":"m 60 388 q 106 600 60 508 q 234 742 151 692 q 422 792 317 792 q 623 720 551 792 q 699 515 694 649 q 689 386 699 431 l 211 386 q 275 165 214 249 q 449 81 336 81 q 565 101 504 81 q 658 149 625 121 l 685 88 q 576 19 647 49 q 428 -14 504 -10 q 481 -98 458 -47 q 503 -199 504 -149 q 454 -303 499 -272 q 322 -335 410 -335 q 271 -329 299 -335 q 224 -317 243 -324 l 222 -221 q 255 -228 236 -225 q 288 -232 274 -232 q 367 -213 343 -232 q 390 -133 390 -194 q 351 -12 390 -79 q 134 112 208 4 q 60 388 60 219 m 546 460 q 550 519 550 489 q 512 662 549 610 q 396 714 475 714 q 267 656 315 714 q 213 460 219 597 l 546 460 z "},"ê":{"ha":756,"x_min":60,"x_max":699,"o":"m 404 -15 q 148 94 236 -15 q 60 388 60 204 q 106 600 60 508 q 234 742 151 692 q 422 792 317 792 q 623 720 551 792 q 699 515 694 649 q 689 386 699 431 l 211 386 q 275 165 214 249 q 449 81 336 81 q 565 101 504 81 q 658 149 625 121 l 685 88 q 565 15 644 46 q 404 -15 486 -15 m 546 460 q 550 519 550 489 q 512 662 549 610 q 396 714 475 714 q 267 656 315 714 q 213 460 219 597 l 546 460 m 461 1194 l 656 924 l 600 885 l 406 1085 l 204 885 l 151 922 l 350 1194 l 461 1194 z "},"ế":{"ha":756,"x_min":60,"x_max":843,"o":"m 404 -15 q 148 94 236 -15 q 60 388 60 204 q 106 600 60 508 q 234 742 151 692 q 422 792 317 792 q 623 720 551 792 q 699 515 694 649 q 689 386 699 431 l 211 386 q 275 165 214 249 q 449 81 336 81 q 565 101 504 81 q 658 149 625 121 l 685 88 q 565 15 644 46 q 404 -15 486 -15 m 546 460 q 550 519 550 489 q 512 662 549 610 q 396 714 475 714 q 267 656 315 714 q 213 460 219 597 l 546 460 m 569 1136 l 756 1361 l 843 1286 q 736 1178 815 1247 q 615 1092 657 1110 l 569 1136 m 457 1140 l 635 929 l 582 896 l 407 1044 l 224 896 l 176 928 l 357 1140 l 457 1140 z "},"ệ":{"ha":756,"x_min":60,"x_max":699,"o":"m 404 -15 q 148 94 236 -15 q 60 388 60 204 q 106 600 60 508 q 234 742 151 692 q 422 792 317 792 q 623 720 551 792 q 699 515 694 649 q 689 386 699 431 l 211 386 q 275 165 214 249 q 449 81 336 81 q 565 101 504 81 q 658 149 625 121 l 685 88 q 565 15 644 46 q 404 -15 486 -15 m 546 460 q 550 519 550 489 q 512 662 549 610 q 396 714 475 714 q 267 656 315 714 q 213 460 219 597 l 546 460 m 368 -283 q 308 -258 331 -283 q 285 -193 285 -232 q 310 -118 285 -149 q 382 -87 336 -87 q 447 -114 424 -87 q 471 -178 471 -140 q 444 -253 471 -224 q 369 -283 418 -283 l 368 -283 m 461 1194 l 656 924 l 600 885 l 406 1085 l 204 885 l 151 922 l 350 1194 l 461 1194 z "},"ề":{"ha":756,"x_min":60,"x_max":726,"o":"m 404 -15 q 148 94 236 -15 q 60 388 60 204 q 106 600 60 508 q 234 742 151 692 q 422 792 317 792 q 623 720 551 792 q 699 515 694 649 q 689 386 699 431 l 211 386 q 275 165 214 249 q 449 81 336 81 q 565 101 504 81 q 658 149 625 121 l 685 88 q 565 15 644 46 q 404 -15 486 -15 m 546 460 q 550 519 550 489 q 512 662 549 610 q 396 714 475 714 q 267 656 315 714 q 213 460 219 597 l 546 460 m 682 1128 q 585 1192 643 1144 q 483 1290 526 1240 l 571 1365 l 726 1171 l 682 1128 m 457 1140 l 635 929 l 582 896 l 407 1044 l 224 896 l 176 928 l 357 1140 l 457 1140 z "},"ể":{"ha":756,"x_min":60,"x_max":757,"o":"m 404 -15 q 148 94 236 -15 q 60 388 60 204 q 106 600 60 508 q 234 742 151 692 q 422 792 317 792 q 623 720 551 792 q 699 515 694 649 q 689 386 699 431 l 211 386 q 275 165 214 249 q 449 81 336 81 q 565 101 504 81 q 658 149 625 121 l 685 88 q 565 15 644 46 q 404 -15 486 -15 m 546 460 q 550 519 550 489 q 512 662 549 610 q 396 714 475 714 q 267 656 315 714 q 213 460 219 597 l 546 460 m 603 1056 q 585 1090 594 1065 q 575 1128 575 1115 q 586 1156 575 1144 q 618 1183 597 1168 q 649 1209 639 1199 q 658 1235 658 1219 q 640 1272 658 1260 q 583 1283 622 1283 q 549 1279 567 1283 q 524 1272 532 1275 l 524 1357 q 553 1363 526 1360 q 606 1367 579 1367 q 718 1334 679 1367 q 757 1246 757 1301 q 737 1185 757 1210 q 675 1128 717 1160 q 661 1099 661 1118 q 667 1067 661 1083 l 603 1056 m 457 1140 l 635 929 l 582 896 l 407 1044 l 224 896 l 176 928 l 357 1140 l 457 1140 z "},"ễ":{"ha":756,"x_min":60,"x_max":699,"o":"m 404 -15 q 148 94 236 -15 q 60 388 60 204 q 106 600 60 508 q 234 742 151 692 q 422 792 317 792 q 623 720 551 792 q 699 515 694 649 q 689 386 699 431 l 211 386 q 275 165 214 249 q 449 81 336 81 q 565 101 504 81 q 658 149 625 121 l 685 88 q 565 15 644 46 q 404 -15 486 -15 m 546 460 q 550 519 550 489 q 512 662 549 610 q 396 714 475 714 q 267 656 315 714 q 213 460 219 597 l 546 460 m 203 1238 q 251 1324 215 1289 q 338 1358 286 1358 q 387 1348 367 1358 q 429 1318 407 1338 q 463 1295 450 1303 q 493 1288 475 1288 q 530 1301 514 1288 q 556 1338 546 1315 l 606 1315 q 557 1229 592 1263 q 472 1196 522 1196 q 424 1206 443 1196 q 382 1235 406 1215 q 349 1258 364 1250 q 317 1267 335 1267 q 280 1254 293 1267 q 253 1217 267 1242 l 203 1238 m 457 1140 l 635 929 l 582 896 l 407 1044 l 224 896 l 176 928 l 357 1140 l 457 1140 z "},"ë":{"ha":756,"x_min":60,"x_max":699,"o":"m 404 -15 q 148 94 236 -15 q 60 388 60 204 q 106 600 60 508 q 234 742 151 692 q 422 792 317 792 q 623 720 551 792 q 699 515 694 649 q 689 386 699 431 l 211 386 q 275 165 214 249 q 449 81 336 81 q 565 101 504 81 q 658 149 625 121 l 685 88 q 565 15 644 46 q 404 -15 486 -15 m 546 460 q 550 519 550 489 q 512 662 549 610 q 396 714 475 714 q 267 656 315 714 q 213 460 219 597 l 546 460 m 242 913 q 183 938 204 913 q 161 1000 161 963 q 185 1073 161 1043 q 253 1103 208 1103 q 314 1076 292 1103 q 336 1014 336 1050 q 313 941 336 969 q 242 913 289 913 m 554 913 q 498 938 519 913 q 476 1000 476 964 q 500 1073 476 1043 q 568 1103 524 1103 q 628 1076 607 1103 q 650 1014 650 1050 q 626 941 650 969 q 554 913 603 913 z "},"ė":{"ha":756,"x_min":60,"x_max":699,"o":"m 404 -15 q 148 94 236 -15 q 60 388 60 204 q 106 600 60 508 q 234 742 151 692 q 422 792 317 792 q 623 720 551 792 q 699 515 694 649 q 689 386 699 431 l 211 386 q 275 165 214 249 q 449 81 336 81 q 565 101 504 81 q 658 149 625 121 l 685 88 q 565 15 644 46 q 404 -15 486 -15 m 546 460 q 550 519 550 489 q 512 662 549 610 q 396 714 475 714 q 267 656 315 714 q 213 460 219 597 l 546 460 m 400 910 q 335 935 357 910 q 313 999 313 960 q 340 1072 313 1043 q 414 1101 367 1101 q 483 1076 461 1101 q 506 1013 506 1051 q 478 938 506 965 q 401 910 451 910 l 400 910 z "},"ẹ":{"ha":756,"x_min":60,"x_max":699,"o":"m 404 -15 q 148 94 236 -15 q 60 388 60 204 q 106 600 60 508 q 234 742 151 692 q 422 792 317 792 q 623 720 551 792 q 699 515 694 649 q 689 386 699 431 l 211 386 q 275 165 214 249 q 449 81 336 81 q 565 101 504 81 q 658 149 625 121 l 685 88 q 565 15 644 46 q 404 -15 486 -15 m 546 460 q 550 519 550 489 q 512 662 549 610 q 396 714 475 714 q 267 656 315 714 q 213 460 219 597 l 546 460 m 368 -283 q 308 -258 331 -283 q 285 -193 285 -232 q 310 -118 285 -149 q 382 -87 336 -87 q 447 -114 424 -87 q 471 -178 471 -140 q 444 -253 471 -224 q 369 -283 418 -283 l 368 -283 z "},"è":{"ha":756,"x_min":60,"x_max":699,"o":"m 404 -15 q 148 94 236 -15 q 60 388 60 204 q 106 600 60 508 q 234 742 151 692 q 422 792 317 792 q 623 720 551 792 q 699 515 694 649 q 689 386 699 431 l 211 386 q 275 165 214 249 q 449 81 336 81 q 565 101 504 81 q 658 149 625 121 l 685 88 q 565 15 644 46 q 404 -15 486 -15 m 546 460 q 550 519 550 489 q 512 662 549 610 q 396 714 475 714 q 267 656 315 714 q 213 460 219 597 l 546 460 m 446 907 q 360 963 418 918 q 247 1058 301 1007 q 175 1140 193 1110 l 275 1228 l 499 953 l 447 907 l 446 907 z "},"ẻ":{"ha":756,"x_min":60,"x_max":699,"o":"m 404 -15 q 148 94 236 -15 q 60 388 60 204 q 106 600 60 508 q 234 742 151 692 q 422 792 317 792 q 623 720 551 792 q 699 515 694 649 q 689 386 699 431 l 211 386 q 275 165 214 249 q 449 81 336 81 q 565 101 504 81 q 658 149 625 121 l 685 88 q 565 15 644 46 q 404 -15 486 -15 m 546 460 q 550 519 550 489 q 512 662 549 610 q 396 714 475 714 q 267 656 315 714 q 213 460 219 597 l 546 460 m 381 863 q 362 895 371 875 q 353 931 353 915 q 361 951 353 943 q 388 972 369 960 q 419 999 408 986 q 431 1029 431 1011 q 411 1083 431 1063 q 353 1103 392 1103 q 290 1088 314 1103 l 288 1175 q 378 1196 332 1196 q 499 1157 456 1196 q 543 1050 543 1118 q 527 996 543 1015 q 478 954 511 976 q 449 932 454 938 q 439 894 439 922 q 443 863 439 878 l 381 863 z "},"ē":{"ha":756,"x_min":60,"x_max":699,"o":"m 404 -15 q 148 94 236 -15 q 60 388 60 204 q 106 600 60 508 q 234 742 151 692 q 422 792 317 792 q 623 720 551 792 q 699 515 694 649 q 689 386 699 431 l 211 386 q 275 165 214 249 q 449 81 336 81 q 565 101 504 81 q 658 149 625 121 l 685 88 q 565 15 644 46 q 404 -15 486 -15 m 546 460 q 550 519 550 489 q 512 662 549 610 q 396 714 475 714 q 267 656 315 714 q 213 460 219 597 l 546 460 m 597 933 l 215 933 l 215 1032 l 597 1032 l 597 933 z "},"ę":{"ha":756,"x_min":60,"x_max":699,"o":"m 407 -337 q 293 -303 342 -337 q 244 -206 244 -269 q 396 -15 244 -103 q 145 97 231 -12 q 60 388 60 206 q 106 600 60 508 q 234 742 151 692 q 422 792 317 792 q 623 720 551 792 q 699 515 694 649 q 689 386 699 431 l 211 386 q 275 165 214 249 q 449 81 336 81 q 565 101 504 81 q 658 149 625 121 l 685 88 q 625 44 663 65 q 544 8 588 22 q 425 -70 481 -17 q 369 -167 369 -124 q 394 -230 369 -210 q 468 -250 419 -250 q 536 -237 504 -250 q 604 -204 568 -224 l 606 -274 q 517 -320 561 -303 q 407 -337 474 -337 m 546 460 q 550 519 550 489 q 512 662 549 610 q 396 714 475 714 q 267 656 315 714 q 213 460 219 597 l 546 460 z "},"ẽ":{"ha":756,"x_min":60,"x_max":699,"o":"m 404 -15 q 148 94 236 -15 q 60 388 60 204 q 106 600 60 508 q 234 742 151 692 q 422 792 317 792 q 623 720 551 792 q 699 515 694 649 q 689 386 699 431 l 211 386 q 275 165 214 249 q 449 81 336 81 q 565 101 504 81 q 658 149 625 121 l 685 88 q 565 15 644 46 q 404 -15 486 -15 m 546 460 q 550 519 550 489 q 512 662 549 610 q 396 714 475 714 q 267 656 315 714 q 213 460 219 597 l 546 460 m 139 972 q 197 1076 153 1033 q 307 1118 240 1118 q 377 1101 349 1118 q 440 1053 406 1085 q 483 1019 467 1029 q 518 1008 499 1008 q 576 1035 556 1008 q 603 1090 596 1061 l 674 1056 q 618 950 658 992 q 513 908 578 908 q 445 924 472 908 q 383 972 418 940 q 340 1007 357 996 q 301 1018 322 1018 q 248 1000 267 1018 q 219 962 229 982 q 204 935 208 942 l 139 972 z "},"ə":{"ha":756,"x_min":57,"x_max":696,"o":"m 351 786 q 608 676 519 786 q 696 383 696 567 q 650 171 696 263 q 522 29 604 79 q 333 -21 439 -21 q 133 51 204 -21 q 57 256 61 122 q 67 385 57 340 l 544 385 q 481 606 542 522 q 307 690 419 690 q 191 670 251 690 q 97 622 131 650 l 71 683 q 190 756 111 725 q 351 786 269 786 m 210 311 q 206 251 206 282 q 244 109 207 161 q 360 57 281 57 q 488 115 440 57 q 543 311 536 174 l 210 311 z "},"f":{"ha":556,"x_min":43,"x_max":574,"o":"m 174 679 l 43 679 l 43 743 l 174 769 l 174 835 q 219 993 174 921 q 337 1108 264 1065 q 492 1150 410 1150 q 574 1138 539 1150 l 574 999 q 524 1020 561 1010 q 443 1031 488 1031 q 348 997 378 1031 q 318 879 318 963 l 318 769 l 510 769 l 510 679 l 318 679 l 318 79 l 472 68 l 472 0 l 56 0 l 56 68 l 174 81 l 174 679 z "},"ḟ":{"ha":556,"x_min":43,"x_max":574,"o":"m 174 679 l 43 679 l 43 743 l 174 769 l 174 835 q 219 993 174 921 q 337 1108 264 1065 q 492 1150 410 1150 q 574 1138 539 1150 l 574 999 q 524 1020 561 1010 q 443 1031 488 1031 q 348 997 378 1031 q 318 879 318 963 l 318 769 l 510 769 l 510 679 l 318 679 l 318 79 l 472 68 l 472 0 l 56 0 l 56 68 l 174 81 l 174 679 m 132 1010 q 67 1035 89 1010 q 44 1099 44 1060 q 72 1172 44 1143 q 146 1201 99 1201 q 215 1176 193 1201 q 238 1113 238 1151 q 210 1038 238 1065 q 133 1010 183 1010 l 132 1010 z "},"g":{"ha":843,"x_min":57,"x_max":829,"o":"m 394 -375 q 137 -319 217 -375 q 57 -164 57 -262 q 95 -51 57 -103 q 186 26 133 0 q 122 143 122 63 q 151 238 122 193 q 228 306 181 282 q 122 393 158 336 q 85 528 85 450 q 130 668 85 608 q 249 760 175 728 q 407 792 324 792 q 626 733 547 792 q 690 774 647 754 q 782 793 733 793 l 829 793 l 829 671 l 676 671 q 710 551 710 619 q 669 406 710 469 q 555 308 628 343 q 390 274 482 274 q 283 286 331 274 q 251 243 264 267 q 239 197 239 219 q 272 128 239 147 q 392 110 306 110 l 549 110 q 749 58 683 110 q 814 -87 814 7 q 757 -233 814 -167 q 603 -337 700 -299 q 394 -375 507 -375 m 404 350 q 563 538 563 350 q 522 674 563 631 q 399 718 481 718 q 278 676 322 718 q 233 540 233 633 q 276 401 233 453 q 404 350 318 350 m 407 -294 q 535 -274 475 -294 q 633 -215 596 -254 q 671 -122 671 -175 q 638 -31 671 -60 q 508 -3 604 -3 l 344 -3 q 257 4 289 -3 q 200 -136 200 -58 q 247 -254 200 -214 q 407 -294 294 -294 z "},"ğ":{"ha":843,"x_min":57,"x_max":829,"o":"m 394 -375 q 137 -319 217 -375 q 57 -164 57 -262 q 95 -51 57 -103 q 186 26 133 0 q 122 143 122 63 q 151 238 122 193 q 228 306 181 282 q 122 393 158 336 q 85 528 85 450 q 130 668 85 608 q 249 760 175 728 q 407 792 324 792 q 626 733 547 792 q 690 774 647 754 q 782 793 733 793 l 829 793 l 829 671 l 676 671 q 710 551 710 619 q 669 406 710 469 q 555 308 628 343 q 390 274 482 274 q 283 286 331 274 q 251 243 264 267 q 239 197 239 219 q 272 128 239 147 q 392 110 306 110 l 549 110 q 749 58 683 110 q 814 -87 814 7 q 757 -233 814 -167 q 603 -337 700 -299 q 394 -375 507 -375 m 404 350 q 563 538 563 350 q 522 674 563 631 q 399 718 481 718 q 278 676 322 718 q 233 540 233 633 q 276 401 233 453 q 404 350 318 350 m 407 -294 q 535 -274 475 -294 q 633 -215 596 -254 q 671 -122 671 -175 q 638 -31 671 -60 q 508 -3 604 -3 l 344 -3 q 257 4 289 -3 q 200 -136 200 -58 q 247 -254 200 -214 q 407 -294 294 -294 m 436 915 q 312 946 365 915 q 231 1028 258 976 q 203 1143 203 1081 q 206 1185 203 1174 l 279 1185 q 281 1160 279 1169 q 324 1067 286 1107 q 436 1028 361 1028 q 547 1068 511 1028 q 588 1160 583 1108 q 589 1185 590 1179 l 661 1185 q 664 1144 664 1163 q 635 1031 664 1083 q 555 947 607 978 q 436 915 503 915 z "},"ǧ":{"ha":843,"x_min":57,"x_max":829,"o":"m 394 -375 q 137 -319 217 -375 q 57 -164 57 -262 q 95 -51 57 -103 q 186 26 133 0 q 122 143 122 63 q 151 238 122 193 q 228 306 181 282 q 122 393 158 336 q 85 528 85 450 q 130 668 85 608 q 249 760 175 728 q 407 792 324 792 q 626 733 547 792 q 690 774 647 754 q 782 793 733 793 l 829 793 l 829 671 l 676 671 q 710 551 710 619 q 669 406 710 469 q 555 308 628 343 q 390 274 482 274 q 283 286 331 274 q 251 243 264 267 q 239 197 239 219 q 272 128 239 147 q 392 110 306 110 l 549 110 q 749 58 683 110 q 814 -87 814 7 q 757 -233 814 -167 q 603 -337 700 -299 q 394 -375 507 -375 m 404 350 q 563 538 563 350 q 522 674 563 631 q 399 718 481 718 q 278 676 322 718 q 233 540 233 633 q 276 401 233 453 q 404 350 318 350 m 407 -294 q 535 -274 475 -294 q 633 -215 596 -254 q 671 -122 671 -175 q 638 -31 671 -60 q 508 -3 604 -3 l 344 -3 q 257 4 289 -3 q 200 -136 200 -58 q 247 -254 200 -214 q 407 -294 294 -294 m 432 996 l 631 1197 l 682 1160 l 488 889 l 376 889 l 181 1158 l 236 1197 l 432 996 z "},"ĝ":{"ha":843,"x_min":57,"x_max":829,"o":"m 394 -375 q 137 -319 217 -375 q 57 -164 57 -262 q 95 -51 57 -103 q 186 26 133 0 q 122 143 122 63 q 151 238 122 193 q 228 306 181 282 q 122 393 158 336 q 85 528 85 450 q 130 668 85 608 q 249 760 175 728 q 407 792 324 792 q 626 733 547 792 q 690 774 647 754 q 782 793 733 793 l 829 793 l 829 671 l 676 671 q 710 551 710 619 q 669 406 710 469 q 555 308 628 343 q 390 274 482 274 q 283 286 331 274 q 251 243 264 267 q 239 197 239 219 q 272 128 239 147 q 392 110 306 110 l 549 110 q 749 58 683 110 q 814 -87 814 7 q 757 -233 814 -167 q 603 -337 700 -299 q 394 -375 507 -375 m 404 350 q 563 538 563 350 q 522 674 563 631 q 399 718 481 718 q 278 676 322 718 q 233 540 233 633 q 276 401 233 453 q 404 350 318 350 m 407 -294 q 535 -274 475 -294 q 633 -215 596 -254 q 671 -122 671 -175 q 638 -31 671 -60 q 508 -3 604 -3 l 344 -3 q 257 4 289 -3 q 200 -136 200 -58 q 247 -254 200 -214 q 407 -294 294 -294 m 488 1194 l 682 924 l 626 885 l 432 1085 l 231 885 l 178 922 l 376 1194 l 488 1194 z "},"ģ":{"ha":843,"x_min":57,"x_max":829,"o":"m 394 -375 q 137 -319 217 -375 q 57 -164 57 -262 q 95 -51 57 -103 q 186 26 133 0 q 122 143 122 63 q 151 238 122 193 q 228 306 181 282 q 122 393 158 336 q 85 528 85 450 q 130 668 85 608 q 249 760 175 728 q 407 792 324 792 q 626 733 547 792 q 690 774 647 754 q 782 793 733 793 l 829 793 l 829 671 l 676 671 q 710 551 710 619 q 669 406 710 469 q 555 308 628 343 q 390 274 482 274 q 283 286 331 274 q 251 243 264 267 q 239 197 239 219 q 272 128 239 147 q 392 110 306 110 l 549 110 q 749 58 683 110 q 814 -87 814 7 q 757 -233 814 -167 q 603 -337 700 -299 q 394 -375 507 -375 m 404 350 q 563 538 563 350 q 522 674 563 631 q 399 718 481 718 q 278 676 322 718 q 233 540 233 633 q 276 401 233 453 q 404 350 318 350 m 407 -294 q 535 -274 475 -294 q 633 -215 596 -254 q 671 -122 671 -175 q 638 -31 671 -60 q 508 -3 604 -3 l 344 -3 q 257 4 289 -3 q 200 -136 200 -58 q 247 -254 200 -214 q 407 -294 294 -294 m 436 899 q 371 926 396 899 q 346 1006 346 954 q 367 1099 346 1057 q 413 1169 388 1142 q 453 1200 439 1196 l 454 1200 l 501 1175 l 503 1167 q 472 1130 483 1157 q 460 1071 460 1103 q 467 1042 460 1053 q 488 1021 475 1031 q 515 965 515 1001 q 492 914 515 929 q 442 899 468 899 l 436 899 z "},"ġ":{"ha":843,"x_min":57,"x_max":829,"o":"m 394 -375 q 137 -319 217 -375 q 57 -164 57 -262 q 95 -51 57 -103 q 186 26 133 0 q 122 143 122 63 q 151 238 122 193 q 228 306 181 282 q 122 393 158 336 q 85 528 85 450 q 130 668 85 608 q 249 760 175 728 q 407 792 324 792 q 626 733 547 792 q 690 774 647 754 q 782 793 733 793 l 829 793 l 829 671 l 676 671 q 710 551 710 619 q 669 406 710 469 q 555 308 628 343 q 390 274 482 274 q 283 286 331 274 q 251 243 264 267 q 239 197 239 219 q 272 128 239 147 q 392 110 306 110 l 549 110 q 749 58 683 110 q 814 -87 814 7 q 757 -233 814 -167 q 603 -337 700 -299 q 394 -375 507 -375 m 404 350 q 563 538 563 350 q 522 674 563 631 q 399 718 481 718 q 278 676 322 718 q 233 540 233 633 q 276 401 233 453 q 404 350 318 350 m 407 -294 q 535 -274 475 -294 q 633 -215 596 -254 q 671 -122 671 -175 q 638 -31 671 -60 q 508 -3 604 -3 l 344 -3 q 257 4 289 -3 q 200 -136 200 -58 q 247 -254 200 -214 q 407 -294 294 -294 m 426 910 q 361 935 383 910 q 339 999 339 960 q 366 1072 339 1043 q 440 1101 393 1101 q 510 1076 488 1101 q 532 1013 532 1051 q 505 938 532 965 q 428 910 478 910 l 426 910 z "},"ḡ":{"ha":843,"x_min":57,"x_max":829,"o":"m 394 -375 q 137 -319 217 -375 q 57 -164 57 -262 q 95 -51 57 -103 q 186 26 133 0 q 122 143 122 63 q 151 238 122 193 q 228 306 181 282 q 122 393 158 336 q 85 528 85 450 q 130 668 85 608 q 249 760 175 728 q 407 792 324 792 q 626 733 547 792 q 690 774 647 754 q 782 793 733 793 l 829 793 l 829 671 l 676 671 q 710 551 710 619 q 669 406 710 469 q 555 308 628 343 q 390 274 482 274 q 283 286 331 274 q 251 243 264 267 q 239 197 239 219 q 272 128 239 147 q 392 110 306 110 l 549 110 q 749 58 683 110 q 814 -87 814 7 q 757 -233 814 -167 q 603 -337 700 -299 q 394 -375 507 -375 m 404 350 q 563 538 563 350 q 522 674 563 631 q 399 718 481 718 q 278 676 322 718 q 233 540 233 633 q 276 401 233 453 q 404 350 318 350 m 407 -294 q 535 -274 475 -294 q 633 -215 596 -254 q 671 -122 671 -175 q 638 -31 671 -60 q 508 -3 604 -3 l 344 -3 q 257 4 289 -3 q 200 -136 200 -58 q 247 -254 200 -214 q 407 -294 294 -294 m 624 933 l 242 933 l 242 1032 l 624 1032 l 624 933 z "},"h":{"ha":915,"x_min":21,"x_max":875,"o":"m 138 1036 l 21 1051 l 21 1111 l 247 1138 l 250 1138 l 281 1117 l 281 794 l 275 676 q 397 753 319 717 q 554 789 475 789 q 690 756 642 789 q 758 653 739 722 q 778 468 778 585 l 778 81 l 875 68 l 875 0 l 543 0 l 543 68 l 633 81 l 633 469 q 622 598 633 551 q 581 667 611 644 q 489 690 550 690 q 382 665 439 690 q 282 607 325 640 l 282 81 l 378 68 l 378 0 l 54 0 l 54 68 l 138 79 l 138 1036 z "},"ħ":{"ha":926,"x_min":11,"x_max":874,"o":"m 135 1036 l 18 1051 l 18 1111 l 244 1138 l 249 1138 l 279 1117 l 279 943 l 461 943 l 461 869 l 279 869 l 279 794 l 272 676 q 396 753 318 717 q 553 789 474 789 q 689 756 640 789 q 757 653 738 722 q 776 468 776 585 l 776 81 l 874 68 l 874 0 l 542 0 l 542 68 l 632 81 l 632 469 q 621 598 632 551 q 578 667 610 644 q 488 690 547 690 q 381 665 438 690 q 281 607 324 640 l 281 81 l 376 68 l 376 0 l 53 0 l 53 68 l 135 79 l 135 869 l 11 869 l 11 943 l 135 943 l 135 1036 z "},"ĥ":{"ha":915,"x_min":-54,"x_max":875,"o":"m 138 1036 l 21 1051 l 21 1111 l 247 1138 l 250 1138 l 281 1117 l 281 794 l 275 676 q 397 753 319 717 q 554 789 475 789 q 690 756 642 789 q 758 653 739 722 q 778 468 778 585 l 778 81 l 875 68 l 875 0 l 543 0 l 543 68 l 633 81 l 633 469 q 622 598 633 551 q 581 667 611 644 q 489 690 550 690 q 382 665 439 690 q 282 607 325 640 l 282 81 l 378 68 l 378 0 l 54 0 l 54 68 l 138 79 l 138 1036 m 244 1443 l 432 1243 l 375 1203 l 189 1346 l 0 1203 l -54 1242 l 133 1443 l 244 1443 z "},"ḥ":{"ha":915,"x_min":21,"x_max":875,"o":"m 138 1036 l 21 1051 l 21 1111 l 247 1138 l 250 1138 l 281 1117 l 281 794 l 275 676 q 397 753 319 717 q 554 789 475 789 q 690 756 642 789 q 758 653 739 722 q 778 468 778 585 l 778 81 l 875 68 l 875 0 l 543 0 l 543 68 l 633 81 l 633 469 q 622 598 633 551 q 581 667 611 644 q 489 690 550 690 q 382 665 439 690 q 282 607 325 640 l 282 81 l 378 68 l 378 0 l 54 0 l 54 68 l 138 79 l 138 1036 m 449 -283 q 388 -258 411 -283 q 365 -193 365 -232 q 391 -118 365 -149 q 463 -87 417 -87 q 528 -114 504 -87 q 551 -178 551 -140 q 525 -253 551 -224 q 450 -283 499 -283 l 449 -283 z "},"i":{"ha":463,"x_min":58,"x_max":426,"o":"m 226 910 q 160 935 182 910 q 138 999 138 960 q 165 1072 138 1043 q 239 1101 192 1101 q 308 1076 286 1101 q 331 1013 331 1051 q 303 938 331 965 q 228 910 276 910 l 226 910 m 171 664 l 65 689 l 65 763 l 281 789 l 283 789 l 315 764 l 315 79 l 426 68 l 426 0 l 58 0 l 58 68 l 171 81 l 171 664 z "},"ı":{"ha":463,"x_min":58,"x_max":426,"o":"m 171 664 l 65 689 l 65 763 l 281 789 l 283 789 l 315 764 l 315 79 l 426 68 l 426 0 l 58 0 l 58 68 l 171 81 l 171 664 z "},"í":{"ha":463,"x_min":58,"x_max":451,"o":"m 171 664 l 65 689 l 65 763 l 281 789 l 283 789 l 315 764 l 315 79 l 426 68 l 426 0 l 58 0 l 58 68 l 171 81 l 171 664 m 124 953 l 346 1229 l 451 1140 q 326 1011 422 1093 q 178 907 231 929 l 124 953 z "},"ĭ":{"ha":463,"x_min":3,"x_max":464,"o":"m 171 664 l 65 689 l 65 763 l 281 789 l 283 789 l 315 764 l 315 79 l 426 68 l 426 0 l 58 0 l 58 68 l 171 81 l 171 664 m 236 915 q 112 946 165 915 q 31 1028 58 976 q 3 1143 3 1081 q 6 1185 3 1174 l 79 1185 q 81 1160 79 1169 q 124 1067 86 1107 q 236 1028 161 1028 q 347 1068 311 1028 q 388 1160 383 1108 q 389 1185 390 1179 l 461 1185 q 464 1144 464 1163 q 435 1031 464 1083 q 355 947 407 978 q 236 915 303 915 z "},"ǐ":{"ha":463,"x_min":-19,"x_max":482,"o":"m 171 664 l 65 689 l 65 763 l 281 789 l 283 789 l 315 764 l 315 79 l 426 68 l 426 0 l 58 0 l 58 68 l 171 81 l 171 664 m 232 996 l 431 1197 l 482 1160 l 288 889 l 176 889 l -19 1158 l 36 1197 l 232 996 z "},"î":{"ha":463,"x_min":-22,"x_max":482,"o":"m 171 664 l 65 689 l 65 763 l 281 789 l 283 789 l 315 764 l 315 79 l 426 68 l 426 0 l 58 0 l 58 68 l 171 81 l 171 664 m 288 1194 l 482 924 l 426 885 l 232 1085 l 31 885 l -22 922 l 176 1194 l 288 1194 z "},"ï":{"ha":463,"x_min":-12,"x_max":476,"o":"m 171 664 l 65 689 l 65 763 l 281 789 l 283 789 l 315 764 l 315 79 l 426 68 l 426 0 l 58 0 l 58 68 l 171 81 l 171 664 m 68 913 q 9 938 31 913 q -12 1000 -12 963 q 11 1073 -12 1043 q 79 1103 35 1103 q 140 1076 118 1103 q 163 1014 163 1050 q 139 941 163 969 q 68 913 115 913 m 381 913 q 324 938 346 913 q 303 1000 303 964 q 326 1073 303 1043 q 394 1103 350 1103 q 455 1076 433 1103 q 476 1014 476 1050 q 453 941 476 969 q 381 913 429 913 z "},"ị":{"ha":463,"x_min":58,"x_max":426,"o":"m 171 664 l 65 689 l 65 763 l 281 789 l 283 789 l 315 764 l 315 79 l 426 68 l 426 0 l 58 0 l 58 68 l 171 81 l 171 664 m 226 910 q 161 935 183 910 q 139 999 139 960 q 166 1072 139 1043 q 240 1101 193 1101 q 310 1076 288 1101 q 332 1013 332 1051 q 305 938 332 965 q 228 910 278 910 l 226 910 m 224 -283 q 163 -258 186 -283 q 140 -193 140 -232 q 166 -118 140 -149 q 238 -87 192 -87 q 303 -114 279 -87 q 326 -178 326 -140 q 300 -253 326 -224 q 225 -283 274 -283 l 224 -283 z "},"ì":{"ha":463,"x_min":1,"x_max":426,"o":"m 171 664 l 65 689 l 65 763 l 281 789 l 283 789 l 315 764 l 315 79 l 426 68 l 426 0 l 58 0 l 58 68 l 171 81 l 171 664 m 272 907 q 186 963 244 918 q 74 1058 128 1007 q 1 1140 19 1110 l 101 1228 l 325 953 l 274 907 l 272 907 z "},"ỉ":{"ha":463,"x_min":58,"x_max":426,"o":"m 171 664 l 65 689 l 65 763 l 281 789 l 283 789 l 315 764 l 315 79 l 426 68 l 426 0 l 58 0 l 58 68 l 171 81 l 171 664 m 207 863 q 188 895 197 875 q 179 931 179 915 q 188 951 179 943 q 214 972 196 960 q 246 999 235 986 q 257 1029 257 1011 q 238 1083 257 1063 q 179 1103 218 1103 q 117 1088 140 1103 l 114 1175 q 204 1196 158 1196 q 326 1157 282 1196 q 369 1050 369 1118 q 353 996 369 1015 q 304 954 338 976 q 275 932 281 938 q 265 894 265 922 q 269 863 265 878 l 207 863 z "},"ĳ":{"ha":903,"x_min":58,"x_max":793,"o":"m 226 910 q 160 935 182 910 q 138 999 138 960 q 165 1072 138 1043 q 239 1101 192 1101 q 308 1076 286 1101 q 331 1013 331 1051 q 303 938 331 965 q 228 910 276 910 l 226 910 m 171 664 l 65 689 l 65 763 l 281 789 l 283 789 l 315 764 l 315 79 l 426 68 l 426 0 l 58 0 l 58 68 l 171 81 l 171 664 m 688 910 q 622 935 644 910 q 600 999 600 960 q 627 1072 600 1043 q 701 1101 654 1101 q 771 1076 749 1101 q 793 1013 793 1051 q 766 938 793 965 q 689 910 739 910 l 688 910 m 521 763 l 736 789 l 739 789 l 769 764 l 769 10 q 736 -184 769 -106 q 646 -300 703 -262 q 518 -337 589 -337 q 454 -332 464 -337 l 447 -267 q 480 -264 458 -268 q 524 -251 501 -260 q 603 -158 581 -232 q 626 42 626 -83 l 626 660 l 521 685 l 521 763 z "},"ī":{"ha":463,"x_min":42,"x_max":426,"o":"m 171 664 l 65 689 l 65 763 l 281 789 l 283 789 l 315 764 l 315 79 l 426 68 l 426 0 l 58 0 l 58 68 l 171 81 l 171 664 m 424 933 l 42 933 l 42 1032 l 424 1032 l 424 933 z "},"į":{"ha":463,"x_min":58,"x_max":426,"o":"m 226 910 q 160 935 182 910 q 138 999 138 960 q 165 1072 138 1043 q 239 1101 192 1101 q 309 1076 286 1101 q 332 1013 332 1050 q 305 938 332 965 q 228 910 278 910 l 226 910 m 226 -337 q 119 -303 167 -337 q 72 -207 72 -268 q 117 -92 72 -151 q 232 0 161 -33 l 58 0 l 58 68 l 171 81 l 171 664 l 65 689 l 65 763 l 281 789 l 283 789 l 315 764 l 315 79 l 426 68 l 426 0 l 336 0 q 238 -76 278 -26 q 197 -167 197 -126 q 221 -228 197 -207 q 285 -250 244 -250 q 349 -238 321 -250 q 417 -204 378 -226 l 417 -274 q 338 -319 382 -301 q 226 -337 293 -337 z "},"ĩ":{"ha":463,"x_min":-35,"x_max":500,"o":"m 171 664 l 65 689 l 65 763 l 281 789 l 283 789 l 315 764 l 315 79 l 426 68 l 426 0 l 58 0 l 58 68 l 171 81 l 171 664 m -35 972 q 23 1076 -21 1033 q 133 1118 67 1118 q 203 1101 175 1118 q 267 1053 232 1085 q 309 1019 293 1029 q 344 1008 325 1008 q 402 1035 382 1008 q 429 1090 422 1061 l 500 1056 q 444 950 485 992 q 339 908 404 908 q 272 924 299 908 q 210 972 244 940 q 166 1007 183 996 q 128 1018 149 1018 q 74 1000 93 1018 q 45 962 56 982 q 31 935 35 942 l -35 972 z "},"j":{"ha":440,"x_min":-15,"x_max":331,"o":"m 225 910 q 160 935 182 910 q 138 999 138 960 q 165 1072 138 1043 q 239 1101 192 1101 q 308 1076 286 1101 q 331 1013 331 1051 q 303 938 331 965 q 226 910 276 910 l 225 910 m 58 763 l 274 789 l 276 789 l 307 764 l 307 10 q 274 -184 307 -106 q 183 -300 240 -262 q 56 -337 126 -337 q -8 -332 1 -337 l -15 -267 q 17 -264 -4 -268 q 61 -251 39 -260 q 141 -158 118 -232 q 164 42 164 -83 l 164 660 l 58 685 l 58 763 z "},"ȷ":{"ha":440,"x_min":-15,"x_max":307,"o":"m 58 763 l 274 789 l 276 789 l 307 764 l 307 10 q 274 -184 307 -106 q 183 -300 240 -262 q 56 -337 126 -337 q -8 -332 1 -337 l -15 -267 q 17 -264 -4 -268 q 61 -251 39 -260 q 141 -158 118 -232 q 164 42 164 -83 l 164 660 l 58 685 l 58 763 z "},"ĵ":{"ha":440,"x_min":-25,"x_max":479,"o":"m 58 763 l 274 789 l 276 789 l 307 764 l 307 10 q 274 -184 307 -106 q 183 -300 240 -262 q 56 -337 126 -337 q -8 -332 1 -337 l -15 -267 q 17 -264 -4 -268 q 61 -251 39 -260 q 141 -158 118 -232 q 164 42 164 -83 l 164 660 l 58 685 l 58 763 m 285 1194 l 479 924 l 424 885 l 229 1085 l 28 885 l -25 922 l 174 1194 l 285 1194 z "},"k":{"ha":833,"x_min":28,"x_max":867,"o":"m 136 1036 l 28 1051 l 28 1111 l 249 1138 l 250 1138 l 281 1117 l 281 438 l 278 356 l 599 688 l 494 707 l 494 771 l 831 771 l 831 707 l 721 688 l 517 489 l 781 79 l 867 68 l 867 0 l 529 0 l 529 68 l 617 81 l 421 403 l 278 261 l 281 190 l 281 81 l 379 68 l 379 0 l 49 0 l 49 68 l 136 81 l 136 1036 z "},"ķ":{"ha":833,"x_min":28,"x_max":867,"o":"m 136 1036 l 28 1051 l 28 1111 l 249 1138 l 250 1138 l 281 1117 l 281 438 l 278 356 l 599 688 l 494 707 l 494 771 l 831 771 l 831 707 l 721 688 l 517 489 l 781 79 l 867 68 l 867 0 l 529 0 l 529 68 l 617 81 l 421 403 l 278 261 l 281 190 l 281 81 l 379 68 l 379 0 l 49 0 l 49 68 l 136 81 l 136 1036 m 553 -187 q 532 -279 553 -237 q 485 -347 511 -321 q 444 -378 458 -374 l 443 -378 l 396 -353 l 394 -344 q 426 -307 414 -335 q 439 -249 439 -279 q 431 -219 439 -231 q 410 -199 424 -208 q 382 -143 382 -179 q 406 -92 382 -107 q 456 -76 429 -76 l 461 -76 q 528 -106 503 -76 q 553 -187 553 -135 z "},"ĸ":{"ha":921,"x_min":56,"x_max":903,"o":"m 164 664 l 61 689 l 61 764 l 271 789 l 274 789 l 307 764 l 307 485 l 304 353 l 633 686 l 519 704 l 519 769 l 864 769 l 864 704 l 764 692 l 546 478 l 814 78 l 903 68 l 903 0 l 575 0 l 575 67 l 647 78 l 450 390 l 304 256 l 308 188 l 308 78 l 414 67 l 414 0 l 56 0 l 56 68 l 163 78 l 164 664 z "},"l":{"ha":463,"x_min":51,"x_max":426,"o":"m 164 1036 l 51 1051 l 51 1111 l 275 1138 l 278 1138 l 308 1117 l 308 79 l 426 68 l 426 0 l 51 0 l 51 68 l 164 81 l 164 1036 z "},"ĺ":{"ha":464,"x_min":51,"x_max":439,"o":"m 119 1153 l 343 1363 l 439 1283 q 315 1185 401 1239 q 171 1110 228 1132 l 119 1153 m 51 68 l 164 78 l 164 940 l 51 951 l 51 1011 l 276 1039 l 308 1017 l 308 78 l 428 68 l 428 0 l 51 0 l 51 68 z "},"ľ":{"ha":463,"x_min":51,"x_max":547,"o":"m 164 1036 l 51 1051 l 51 1111 l 275 1138 l 278 1138 l 308 1117 l 308 79 l 426 68 l 426 0 l 51 0 l 51 68 l 164 81 l 164 1036 m 419 833 l 415 844 q 424 983 424 899 q 408 1106 424 1071 l 415 1131 l 535 1131 q 547 1028 547 1094 q 534 926 547 988 q 503 833 521 865 l 419 833 z "},"ļ":{"ha":463,"x_min":51,"x_max":426,"o":"m 164 1036 l 51 1051 l 51 1111 l 275 1138 l 278 1138 l 308 1117 l 308 79 l 426 68 l 426 0 l 51 0 l 51 68 l 164 81 l 164 1036 m 338 -187 q 317 -279 338 -237 q 270 -347 296 -321 q 231 -378 244 -374 l 228 -378 l 182 -353 l 181 -344 q 212 -308 200 -335 q 224 -249 224 -281 q 216 -219 224 -231 q 196 -199 208 -208 q 168 -143 168 -179 q 192 -92 168 -107 q 242 -76 215 -76 l 247 -76 q 313 -106 289 -76 q 338 -187 338 -135 z "},"ŀ":{"ha":679,"x_min":51,"x_max":656,"o":"m 164 1036 l 51 1051 l 51 1111 l 275 1138 l 278 1138 l 308 1117 l 308 79 l 426 68 l 426 0 l 51 0 l 51 68 l 164 81 l 164 1036 m 551 436 q 489 461 515 436 q 463 525 463 486 q 494 597 463 568 q 567 626 525 626 q 633 601 610 626 q 656 538 656 575 q 626 465 656 493 q 551 436 596 436 z "},"ḷ":{"ha":463,"x_min":51,"x_max":426,"o":"m 164 1036 l 51 1051 l 51 1111 l 275 1138 l 278 1138 l 308 1117 l 308 79 l 426 68 l 426 0 l 51 0 l 51 68 l 164 81 l 164 1036 m 228 -283 q 167 -258 190 -283 q 144 -193 144 -232 q 170 -118 144 -149 q 242 -87 196 -87 q 307 -114 283 -87 q 331 -178 331 -140 q 304 -253 331 -224 q 229 -283 278 -283 l 228 -283 z "},"ǉ":{"ha":903,"x_min":51,"x_max":793,"o":"m 164 1036 l 51 1051 l 51 1111 l 275 1138 l 278 1138 l 308 1117 l 308 79 l 426 68 l 426 0 l 51 0 l 51 68 l 164 81 l 164 1036 m 688 910 q 622 935 644 910 q 600 999 600 960 q 627 1072 600 1043 q 701 1101 654 1101 q 771 1076 749 1101 q 793 1013 793 1051 q 766 938 793 965 q 689 910 739 910 l 688 910 m 521 763 l 736 789 l 739 789 l 769 764 l 769 10 q 736 -184 769 -106 q 646 -300 703 -262 q 518 -337 589 -337 q 454 -332 464 -337 l 447 -267 q 480 -264 458 -268 q 524 -251 501 -260 q 603 -158 581 -232 q 626 42 626 -83 l 626 660 l 521 685 l 521 763 z "},"ł":{"ha":496,"x_min":29,"x_max":478,"o":"m 175 1036 l 63 1051 l 63 1111 l 286 1138 l 289 1138 l 319 1117 l 319 697 l 478 772 l 478 681 l 319 608 l 319 79 l 438 68 l 438 0 l 61 0 l 61 68 l 175 81 l 175 547 l 29 481 l 29 565 l 175 635 l 175 1036 z "},"m":{"ha":1382,"x_min":46,"x_max":1347,"o":"m 61 68 l 146 81 l 146 664 l 46 689 l 46 764 l 244 789 l 269 771 l 278 715 l 276 671 q 409 752 325 715 q 560 789 493 789 q 681 764 635 789 q 750 686 726 739 q 874 756 794 724 q 1024 789 954 789 q 1158 756 1110 789 q 1227 655 1207 724 q 1247 471 1247 586 l 1247 81 l 1347 68 l 1347 0 l 1017 0 l 1017 68 l 1103 81 l 1103 467 q 1091 595 1103 547 q 1047 667 1079 643 q 953 690 1014 690 q 856 670 907 690 q 768 622 804 650 q 781 468 781 568 l 781 81 l 879 68 l 879 0 l 543 0 l 543 68 l 635 81 l 635 469 q 624 599 635 553 q 585 667 614 644 q 496 690 556 690 q 390 665 446 690 q 292 607 333 640 l 292 81 l 385 68 l 385 0 l 61 0 l 61 68 z "},"ḿ":{"ha":1382,"x_min":46,"x_max":1347,"o":"m 61 68 l 146 81 l 146 664 l 46 689 l 46 764 l 244 789 l 269 771 l 278 715 l 276 671 q 409 752 325 715 q 560 789 493 789 q 681 764 635 789 q 750 686 726 739 q 874 756 794 724 q 1024 789 954 789 q 1158 756 1110 789 q 1227 655 1207 724 q 1247 471 1247 586 l 1247 81 l 1347 68 l 1347 0 l 1017 0 l 1017 68 l 1103 81 l 1103 467 q 1091 595 1103 547 q 1047 667 1079 643 q 953 690 1014 690 q 856 670 907 690 q 768 622 804 650 q 781 468 781 568 l 781 81 l 879 68 l 879 0 l 543 0 l 543 68 l 635 81 l 635 469 q 624 599 635 553 q 585 667 614 644 q 496 690 556 690 q 390 665 446 690 q 292 607 333 640 l 292 81 l 385 68 l 385 0 l 61 0 l 61 68 m 583 953 l 806 1229 l 911 1140 q 786 1011 882 1093 q 638 907 690 929 l 583 953 z "},"ṁ":{"ha":1382,"x_min":46,"x_max":1347,"o":"m 61 68 l 146 81 l 146 664 l 46 689 l 46 764 l 244 789 l 269 771 l 278 715 l 276 671 q 409 752 325 715 q 560 789 493 789 q 681 764 635 789 q 750 686 726 739 q 874 756 794 724 q 1024 789 954 789 q 1158 756 1110 789 q 1227 655 1207 724 q 1247 471 1247 586 l 1247 81 l 1347 68 l 1347 0 l 1017 0 l 1017 68 l 1103 81 l 1103 467 q 1091 595 1103 547 q 1047 667 1079 643 q 953 690 1014 690 q 856 670 907 690 q 768 622 804 650 q 781 468 781 568 l 781 81 l 879 68 l 879 0 l 543 0 l 543 68 l 635 81 l 635 469 q 624 599 635 553 q 585 667 614 644 q 496 690 556 690 q 390 665 446 690 q 292 607 333 640 l 292 81 l 385 68 l 385 0 l 61 0 l 61 68 m 686 910 q 621 935 643 910 q 599 999 599 960 q 626 1072 599 1043 q 700 1101 653 1101 q 769 1076 747 1101 q 792 1013 792 1051 q 765 938 792 965 q 688 910 738 910 l 686 910 z "},"n":{"ha":922,"x_min":46,"x_max":885,"o":"m 146 664 l 46 689 l 46 764 l 244 789 l 249 789 l 278 764 l 278 706 l 276 672 q 408 753 326 717 q 565 789 490 789 q 701 756 653 789 q 768 653 749 722 q 788 468 788 585 l 788 79 l 885 69 l 885 0 l 556 0 l 556 68 l 642 79 l 642 469 q 631 598 642 551 q 589 667 619 644 q 500 690 558 690 q 393 665 450 690 q 292 607 336 640 l 292 81 l 386 68 l 386 0 l 58 0 l 58 68 l 146 81 l 146 664 z "},"ń":{"ha":922,"x_min":46,"x_max":885,"o":"m 146 664 l 46 689 l 46 764 l 244 789 l 249 789 l 278 764 l 278 706 l 276 672 q 408 753 326 717 q 565 789 490 789 q 701 756 653 789 q 768 653 749 722 q 788 468 788 585 l 788 79 l 885 69 l 885 0 l 556 0 l 556 68 l 642 79 l 642 469 q 631 598 642 551 q 589 667 619 644 q 500 690 558 690 q 393 665 450 690 q 292 607 336 640 l 292 81 l 386 68 l 386 0 l 58 0 l 58 68 l 146 81 l 146 664 m 335 953 l 557 1229 l 663 1140 q 538 1011 633 1093 q 389 907 442 929 l 335 953 z "},"ň":{"ha":922,"x_min":46,"x_max":885,"o":"m 146 664 l 46 689 l 46 764 l 244 789 l 249 789 l 278 764 l 278 706 l 276 672 q 408 753 326 717 q 565 789 490 789 q 701 756 653 789 q 768 653 749 722 q 788 468 788 585 l 788 79 l 885 69 l 885 0 l 556 0 l 556 68 l 642 79 l 642 469 q 631 598 642 551 q 589 667 619 644 q 500 690 558 690 q 393 665 450 690 q 292 607 336 640 l 292 81 l 386 68 l 386 0 l 58 0 l 58 68 l 146 81 l 146 664 m 443 996 l 642 1197 l 693 1160 l 499 889 l 388 889 l 192 1158 l 247 1197 l 443 996 z "},"ņ":{"ha":922,"x_min":46,"x_max":885,"o":"m 146 664 l 46 689 l 46 764 l 244 789 l 249 789 l 278 764 l 278 706 l 276 672 q 408 753 326 717 q 565 789 490 789 q 701 756 653 789 q 768 653 749 722 q 788 468 788 585 l 788 79 l 885 69 l 885 0 l 556 0 l 556 68 l 642 79 l 642 469 q 631 598 642 551 q 589 667 619 644 q 500 690 558 690 q 393 665 450 690 q 292 607 336 640 l 292 81 l 386 68 l 386 0 l 58 0 l 58 68 l 146 81 l 146 664 m 560 -187 q 539 -279 560 -237 q 492 -347 518 -321 q 451 -378 465 -374 l 450 -378 l 403 -353 l 401 -344 q 433 -307 421 -335 q 446 -249 446 -279 q 438 -219 446 -231 q 417 -199 431 -208 q 389 -143 389 -179 q 413 -92 389 -107 q 463 -76 436 -76 l 468 -76 q 535 -106 510 -76 q 560 -187 560 -135 z "},"ṅ":{"ha":922,"x_min":46,"x_max":885,"o":"m 146 664 l 46 689 l 46 764 l 244 789 l 249 789 l 278 764 l 278 706 l 276 672 q 408 753 326 717 q 565 789 490 789 q 701 756 653 789 q 768 653 749 722 q 788 468 788 585 l 788 79 l 885 69 l 885 0 l 556 0 l 556 68 l 642 79 l 642 469 q 631 598 642 551 q 589 667 619 644 q 500 690 558 690 q 393 665 450 690 q 292 607 336 640 l 292 81 l 386 68 l 386 0 l 58 0 l 58 68 l 146 81 l 146 664 m 438 910 q 372 935 394 910 q 350 999 350 960 q 377 1072 350 1043 q 451 1101 404 1101 q 521 1076 499 1101 q 543 1013 543 1051 q 516 938 543 965 q 439 910 489 910 l 438 910 z "},"ṇ":{"ha":922,"x_min":46,"x_max":885,"o":"m 146 664 l 46 689 l 46 764 l 244 789 l 249 789 l 278 764 l 278 706 l 276 672 q 408 753 326 717 q 565 789 490 789 q 701 756 653 789 q 768 653 749 722 q 788 468 788 585 l 788 79 l 885 69 l 885 0 l 556 0 l 556 68 l 642 79 l 642 469 q 631 598 642 551 q 589 667 619 644 q 500 690 558 690 q 393 665 450 690 q 292 607 336 640 l 292 81 l 386 68 l 386 0 l 58 0 l 58 68 l 146 81 l 146 664 m 454 -283 q 394 -258 417 -283 q 371 -193 371 -232 q 397 -118 371 -149 q 468 -87 422 -87 q 533 -114 510 -87 q 557 -178 557 -140 q 531 -253 557 -224 q 456 -283 504 -283 l 454 -283 z "},"ŋ":{"ha":935,"x_min":58,"x_max":801,"o":"m 161 665 l 58 690 l 58 765 l 258 790 l 261 790 l 290 765 l 290 711 l 289 674 q 423 754 342 718 q 579 790 504 790 q 714 758 665 790 q 782 657 763 725 q 801 474 801 589 l 801 15 q 738 -248 801 -157 q 556 -346 675 -339 q 514 -346 540 -347 q 482 -340 488 -344 l 476 -272 q 510 -270 486 -274 q 550 -261 535 -267 q 633 -167 610 -242 q 656 31 656 -93 l 656 474 q 644 599 656 554 q 603 667 633 644 q 513 690 572 690 q 406 665 463 690 q 306 607 349 640 l 306 81 l 399 68 l 399 0 l 72 0 l 72 68 l 161 81 l 161 665 z "},"ǌ":{"ha":1363,"x_min":46,"x_max":1253,"o":"m 146 664 l 46 689 l 46 764 l 244 789 l 249 789 l 278 764 l 278 706 l 276 672 q 408 753 326 717 q 565 789 490 789 q 701 756 653 789 q 768 653 749 722 q 788 468 788 585 l 788 79 l 885 69 l 885 0 l 556 0 l 556 68 l 642 79 l 642 469 q 631 598 642 551 q 589 667 619 644 q 500 690 558 690 q 393 665 450 690 q 292 607 336 640 l 292 81 l 386 68 l 386 0 l 58 0 l 58 68 l 146 81 l 146 664 m 1147 910 q 1082 935 1104 910 q 1060 999 1060 960 q 1087 1072 1060 1043 q 1161 1101 1114 1101 q 1231 1076 1208 1101 q 1253 1013 1253 1051 q 1226 938 1253 965 q 1149 910 1199 910 l 1147 910 m 981 763 l 1196 789 l 1199 789 l 1229 764 l 1229 10 q 1196 -184 1229 -106 q 1106 -300 1163 -262 q 978 -337 1049 -337 q 914 -332 924 -337 l 907 -267 q 940 -264 918 -268 q 983 -251 961 -260 q 1063 -158 1040 -232 q 1086 42 1086 -83 l 1086 660 l 981 685 l 981 763 z "},"ñ":{"ha":922,"x_min":46,"x_max":885,"o":"m 146 664 l 46 689 l 46 764 l 244 789 l 249 789 l 278 764 l 278 706 l 276 672 q 408 753 326 717 q 565 789 490 789 q 701 756 653 789 q 768 653 749 722 q 788 468 788 585 l 788 79 l 885 69 l 885 0 l 556 0 l 556 68 l 642 79 l 642 469 q 631 598 642 551 q 589 667 619 644 q 500 690 558 690 q 393 665 450 690 q 292 607 336 640 l 292 81 l 386 68 l 386 0 l 58 0 l 58 68 l 146 81 l 146 664 m 176 972 q 234 1076 190 1033 q 344 1118 278 1118 q 415 1101 386 1118 q 478 1053 443 1085 q 520 1019 504 1029 q 556 1008 536 1008 q 613 1035 593 1008 q 640 1090 633 1061 l 711 1056 q 656 950 696 992 q 550 908 615 908 q 483 924 510 908 q 421 972 456 940 q 377 1007 394 996 q 339 1018 360 1018 q 285 1000 304 1018 q 256 962 267 982 q 242 935 246 942 l 176 972 z "},"o":{"ha":844,"x_min":63,"x_max":781,"o":"m 63 388 q 114 604 63 513 q 249 744 165 696 q 429 792 333 792 q 692 681 604 792 q 781 389 781 569 q 729 171 781 263 q 594 32 678 79 q 414 -15 510 -15 q 151 96 239 -15 q 63 388 63 207 m 422 64 q 569 143 518 64 q 621 378 621 222 q 574 622 621 532 q 422 713 526 713 q 274 633 326 713 q 222 399 222 554 q 271 154 222 244 q 422 64 319 64 z "},"ó":{"ha":844,"x_min":63,"x_max":781,"o":"m 63 388 q 114 604 63 513 q 249 744 165 696 q 429 792 333 792 q 692 681 604 792 q 781 389 781 569 q 729 171 781 263 q 594 32 678 79 q 414 -15 510 -15 q 151 96 239 -15 q 63 388 63 207 m 422 64 q 569 143 518 64 q 621 378 621 222 q 574 622 621 532 q 422 713 526 713 q 274 633 326 713 q 222 399 222 554 q 271 154 222 244 q 422 64 319 64 m 315 953 l 538 1229 l 643 1140 q 518 1011 614 1093 q 369 907 422 929 l 315 953 z "},"ŏ":{"ha":844,"x_min":63,"x_max":781,"o":"m 63 388 q 114 604 63 513 q 249 744 165 696 q 429 792 333 792 q 692 681 604 792 q 781 389 781 569 q 729 171 781 263 q 594 32 678 79 q 414 -15 510 -15 q 151 96 239 -15 q 63 388 63 207 m 422 64 q 569 143 518 64 q 621 378 621 222 q 574 622 621 532 q 422 713 526 713 q 274 633 326 713 q 222 399 222 554 q 271 154 222 244 q 422 64 319 64 m 428 915 q 303 946 357 915 q 222 1028 250 976 q 194 1143 194 1081 q 197 1185 194 1174 l 271 1185 q 272 1160 271 1169 q 315 1067 278 1107 q 428 1028 353 1028 q 539 1068 503 1028 q 579 1160 575 1108 q 581 1185 582 1179 l 653 1185 q 656 1144 656 1163 q 627 1031 656 1083 q 547 947 599 978 q 428 915 494 915 z "},"ǒ":{"ha":844,"x_min":63,"x_max":781,"o":"m 63 388 q 114 604 63 513 q 249 744 165 696 q 429 792 333 792 q 692 681 604 792 q 781 389 781 569 q 729 171 781 263 q 594 32 678 79 q 414 -15 510 -15 q 151 96 239 -15 q 63 388 63 207 m 422 64 q 569 143 518 64 q 621 378 621 222 q 574 622 621 532 q 422 713 526 713 q 274 633 326 713 q 222 399 222 554 q 271 154 222 244 q 422 64 319 64 m 424 996 l 622 1197 l 674 1160 l 479 889 l 368 889 l 172 1158 l 228 1197 l 424 996 z "},"ô":{"ha":844,"x_min":63,"x_max":781,"o":"m 63 388 q 114 604 63 513 q 249 744 165 696 q 429 792 333 792 q 692 681 604 792 q 781 389 781 569 q 729 171 781 263 q 594 32 678 79 q 414 -15 510 -15 q 151 96 239 -15 q 63 388 63 207 m 422 64 q 569 143 518 64 q 621 378 621 222 q 574 622 621 532 q 422 713 526 713 q 274 633 326 713 q 222 399 222 554 q 271 154 222 244 q 422 64 319 64 m 479 1194 l 674 924 l 618 885 l 424 1085 l 222 885 l 169 922 l 368 1194 l 479 1194 z "},"ố":{"ha":844,"x_min":63,"x_max":861,"o":"m 63 388 q 114 604 63 513 q 249 744 165 696 q 429 792 333 792 q 692 681 604 792 q 781 389 781 569 q 729 171 781 263 q 594 32 678 79 q 414 -15 510 -15 q 151 96 239 -15 q 63 388 63 207 m 422 64 q 569 143 518 64 q 621 378 621 222 q 574 622 621 532 q 422 713 526 713 q 274 633 326 713 q 222 399 222 554 q 271 154 222 244 q 422 64 319 64 m 588 1136 l 774 1361 l 861 1286 q 754 1178 833 1247 q 633 1092 675 1110 l 588 1136 m 475 1140 l 653 929 l 600 896 l 425 1044 l 242 896 l 194 928 l 375 1140 l 475 1140 z "},"ộ":{"ha":844,"x_min":63,"x_max":781,"o":"m 63 388 q 114 604 63 513 q 249 744 165 696 q 429 792 333 792 q 692 681 604 792 q 781 389 781 569 q 729 171 781 263 q 594 32 678 79 q 414 -15 510 -15 q 151 96 239 -15 q 63 388 63 207 m 422 64 q 569 143 518 64 q 621 378 621 222 q 574 622 621 532 q 422 713 526 713 q 274 633 326 713 q 222 399 222 554 q 271 154 222 244 q 422 64 319 64 m 413 -283 q 352 -258 375 -283 q 329 -193 329 -232 q 355 -118 329 -149 q 426 -87 381 -87 q 492 -114 468 -87 q 515 -178 515 -140 q 489 -253 515 -224 q 414 -283 463 -283 l 413 -283 m 479 1194 l 674 924 l 618 885 l 424 1085 l 222 885 l 169 922 l 368 1194 l 479 1194 z "},"ồ":{"ha":844,"x_min":63,"x_max":781,"o":"m 63 388 q 114 604 63 513 q 249 744 165 696 q 429 792 333 792 q 692 681 604 792 q 781 389 781 569 q 729 171 781 263 q 594 32 678 79 q 414 -15 510 -15 q 151 96 239 -15 q 63 388 63 207 m 422 64 q 569 143 518 64 q 621 378 621 222 q 574 622 621 532 q 422 713 526 713 q 274 633 326 713 q 222 399 222 554 q 271 154 222 244 q 422 64 319 64 m 700 1128 q 603 1192 661 1144 q 501 1290 544 1240 l 589 1365 l 744 1171 l 700 1128 m 475 1140 l 653 929 l 600 896 l 425 1044 l 242 896 l 194 928 l 375 1140 l 475 1140 z "},"ổ":{"ha":844,"x_min":63,"x_max":781,"o":"m 63 388 q 114 604 63 513 q 249 744 165 696 q 429 792 333 792 q 692 681 604 792 q 781 389 781 569 q 729 171 781 263 q 594 32 678 79 q 414 -15 510 -15 q 151 96 239 -15 q 63 388 63 207 m 422 64 q 569 143 518 64 q 621 378 621 222 q 574 622 621 532 q 422 713 526 713 q 274 633 326 713 q 222 399 222 554 q 271 154 222 244 q 422 64 319 64 m 621 1056 q 603 1090 613 1065 q 593 1128 593 1115 q 604 1156 593 1144 q 636 1183 615 1168 q 667 1209 657 1199 q 676 1235 676 1219 q 658 1272 676 1260 q 601 1283 640 1283 q 567 1279 585 1283 q 542 1272 550 1275 l 542 1357 q 571 1363 544 1360 q 624 1367 597 1367 q 736 1334 697 1367 q 775 1246 775 1301 q 755 1185 775 1210 q 693 1128 735 1160 q 679 1099 679 1118 q 685 1067 679 1083 l 621 1056 m 475 1140 l 653 929 l 600 896 l 425 1044 l 242 896 l 194 928 l 375 1140 l 475 1140 z "},"ỗ":{"ha":844,"x_min":63,"x_max":781,"o":"m 63 388 q 114 604 63 513 q 249 744 165 696 q 429 792 333 792 q 692 681 604 792 q 781 389 781 569 q 729 171 781 263 q 594 32 678 79 q 414 -15 510 -15 q 151 96 239 -15 q 63 388 63 207 m 422 64 q 569 143 518 64 q 621 378 621 222 q 574 622 621 532 q 422 713 526 713 q 274 633 326 713 q 222 399 222 554 q 271 154 222 244 q 422 64 319 64 m 221 1238 q 269 1324 233 1289 q 356 1358 304 1358 q 405 1348 385 1358 q 447 1318 425 1338 q 481 1295 468 1303 q 511 1288 493 1288 q 548 1301 532 1288 q 574 1338 564 1315 l 624 1315 q 575 1229 610 1263 q 490 1196 540 1196 q 442 1206 461 1196 q 400 1235 424 1215 q 367 1258 382 1250 q 335 1267 353 1267 q 298 1254 311 1267 q 271 1217 285 1242 l 221 1238 m 475 1140 l 653 929 l 600 896 l 425 1044 l 242 896 l 194 928 l 375 1140 l 475 1140 z "},"ö":{"ha":844,"x_min":63,"x_max":781,"o":"m 63 388 q 114 604 63 513 q 249 744 165 696 q 429 792 333 792 q 692 681 604 792 q 781 389 781 569 q 729 171 781 263 q 594 32 678 79 q 414 -15 510 -15 q 151 96 239 -15 q 63 388 63 207 m 422 64 q 569 143 518 64 q 621 378 621 222 q 574 622 621 532 q 422 713 526 713 q 274 633 326 713 q 222 399 222 554 q 271 154 222 244 q 422 64 319 64 m 260 913 q 201 938 222 913 q 179 1000 179 963 q 203 1073 179 1043 q 271 1103 226 1103 q 332 1076 310 1103 q 354 1014 354 1050 q 331 941 354 969 q 260 913 307 913 m 572 913 q 516 938 538 913 q 494 1000 494 964 q 518 1073 494 1043 q 586 1103 542 1103 q 647 1076 625 1103 q 668 1014 668 1050 q 644 941 668 969 q 572 913 621 913 z "},"ọ":{"ha":844,"x_min":63,"x_max":781,"o":"m 63 388 q 114 604 63 513 q 249 744 165 696 q 429 792 333 792 q 692 681 604 792 q 781 389 781 569 q 729 171 781 263 q 594 32 678 79 q 414 -15 510 -15 q 151 96 239 -15 q 63 388 63 207 m 422 64 q 569 143 518 64 q 621 378 621 222 q 574 622 621 532 q 422 713 526 713 q 274 633 326 713 q 222 399 222 554 q 271 154 222 244 q 422 64 319 64 m 413 -283 q 352 -258 375 -283 q 329 -193 329 -232 q 355 -118 329 -149 q 426 -87 381 -87 q 492 -114 468 -87 q 515 -178 515 -140 q 489 -253 515 -224 q 414 -283 463 -283 l 413 -283 z "},"ò":{"ha":844,"x_min":63,"x_max":781,"o":"m 63 388 q 114 604 63 513 q 249 744 165 696 q 429 792 333 792 q 692 681 604 792 q 781 389 781 569 q 729 171 781 263 q 594 32 678 79 q 414 -15 510 -15 q 151 96 239 -15 q 63 388 63 207 m 422 64 q 569 143 518 64 q 621 378 621 222 q 574 622 621 532 q 422 713 526 713 q 274 633 326 713 q 222 399 222 554 q 271 154 222 244 q 422 64 319 64 m 464 907 q 378 963 436 918 q 265 1058 319 1007 q 193 1140 211 1110 l 293 1228 l 517 953 l 465 907 l 464 907 z "},"ỏ":{"ha":844,"x_min":63,"x_max":781,"o":"m 63 388 q 114 604 63 513 q 249 744 165 696 q 429 792 333 792 q 692 681 604 792 q 781 389 781 569 q 729 171 781 263 q 594 32 678 79 q 414 -15 510 -15 q 151 96 239 -15 q 63 388 63 207 m 422 64 q 569 143 518 64 q 621 378 621 222 q 574 622 621 532 q 422 713 526 713 q 274 633 326 713 q 222 399 222 554 q 271 154 222 244 q 422 64 319 64 m 399 863 q 380 895 389 875 q 371 931 371 915 q 379 951 371 943 q 406 972 388 960 q 438 999 426 986 q 449 1029 449 1011 q 429 1083 449 1063 q 371 1103 410 1103 q 308 1088 332 1103 l 306 1175 q 396 1196 350 1196 q 517 1157 474 1196 q 561 1050 561 1118 q 545 996 561 1015 q 496 954 529 976 q 467 932 472 938 q 457 894 457 922 q 461 863 457 878 l 399 863 z "},"ơ":{"ha":833,"x_min":57,"x_max":840,"o":"m 57 388 q 108 604 57 513 q 244 744 160 696 q 424 792 328 792 q 593 756 521 792 q 686 820 657 769 q 715 922 715 871 q 714 950 715 943 l 838 950 q 840 919 840 928 q 798 774 840 835 q 682 688 756 714 q 775 389 775 581 q 724 171 775 263 q 588 32 672 79 q 408 -15 504 -15 q 145 96 233 -15 q 57 388 57 207 m 217 399 q 265 154 217 244 q 417 64 314 64 q 564 143 513 64 q 615 378 615 222 q 568 622 615 532 q 417 713 521 713 q 269 633 321 713 q 217 399 217 554 z "}}}
